<svg id="English" xmlns="http://www.w3.org/2000/svg" viewBox="0 0 201.96 105.08"><defs><style>.cls-1{fill:#00aeef;}</style></defs><title>UNEnvironment_Logo_English_Short</title><path class="cls-1" d="M196.45,88.38A19.46,19.46,0,0,1,183.2,65.17l12.62,1.62s4.84.22,4.66,8.79C200.31,83.91,196.45,88.38,196.45,88.38Z" transform="translate(-37.15 -37.44)"/><path class="cls-1" d="M207.73,88.38A19.45,19.45,0,0,0,221,65.17l-12.62,1.62s-4.84.22-4.66,8.79C203.88,83.91,207.73,88.38,207.73,88.38Z" transform="translate(-37.15 -37.44)"/><path class="cls-1" d="M202.09,55.86A3,3,0,0,1,205,58.8a3.22,3.22,0,0,1-1.93,2.77c-.12.07-.24.13-.22.33s.63.32.89.38l17,2a19.44,19.44,0,0,0-18.63-13.91h0a19.45,19.45,0,0,0-18.64,13.91l17-2c.26-.06.86-.17.89-.38s-.1-.26-.23-.33a3.23,3.23,0,0,1-1.92-2.77,2.94,2.94,0,0,1,2.94-2.94Z" transform="translate(-37.15 -37.44)"/><path class="cls-1" d="M209.84,102.13l1.15-.71S205.54,94,193.34,94c-6.24,0-9.47,2.51-13.85,2.51a6,6,0,0,1-3.52-.86s2.09,3,9.62,3c5.53,0,9.47-3.23,13.35-3.23C204.25,95.46,208.19,100.2,209.84,102.13Z" transform="translate(-37.15 -37.44)"/><path class="cls-1" d="M192.91,102.13l-1.15-.71S197.21,94,209.41,94c6.25,0,9.47,2.51,13.85,2.51a6,6,0,0,0,3.52-.86s-2.08,3-9.62,3c-5.52,0-9.47-3.23-13.34-3.23C198.51,95.46,194.56,100.2,192.91,102.13Z" transform="translate(-37.15 -37.44)"/><path class="cls-1" d="M187.1,93.38c-.22.57-2.55-.11-4.13.36a13,13,0,0,1-15.18-8s3.88,4.16,6.89,4.45a23.42,23.42,0,0,1,9.12,2.58l.64.15a.8.8,0,0,0-.36-.43c-.37-.2-3.27-1.14-4.66-5.74a37.47,37.47,0,0,1-.86-5.31A47.25,47.25,0,0,1,183,87.14C184.3,89.36,184.44,91.87,187.1,93.38Z" transform="translate(-37.15 -37.44)"/><path class="cls-1" d="M177.59,88.5c-.23.23-.83-.14-1-.25s-1.77-.82-4.41-1.76-7.5-5.06-7-12.13a9.81,9.81,0,0,0,2.69,4.42c2,1.76,2.73,2,4,3.41s4,4.7,4.09,4.66.14-.22-.07-.39-.93-2-1.4-2.59-1.87-4.81.18-10a16.16,16.16,0,0,1,2,7.57c-.14,3.8-.32,2.9.61,6.06C177.19,87.53,177.7,88.39,177.59,88.5Z" transform="translate(-37.15 -37.44)"/><path class="cls-1" d="M171.49,79.28c-.13.13-.68-.68-1.11-1.44s-3.45-4-3.84-4.62a10.61,10.61,0,0,1-1.22-10.8s.25-.08.25,1.36a13.74,13.74,0,0,0,2.4,6,11.6,11.6,0,0,1,2.26,5.89s.15.43.33.46.18-.43.18-.43-.15-2.15-.15-3.62a8.7,8.7,0,0,1,2-5.42,7.44,7.44,0,0,0,1-1.58,2.68,2.68,0,0,1,.61-.86,21.91,21.91,0,0,1-1.11,8c-1.4,3.83-1.87,4.48-1.65,6.56C171.53,78.74,171.56,79.21,171.49,79.28Z" transform="translate(-37.15 -37.44)"/><path class="cls-1" d="M169.12,67.94c-.14,0-.25-.5-.32-.9a19.25,19.25,0,0,0-.79-3.19,12.81,12.81,0,0,1-1.4-5.49,14,14,0,0,1,3.91-9.25,14.35,14.35,0,0,1-.82,2.76,7.15,7.15,0,0,0-.22,4,31.5,31.5,0,0,1,.32,3.58,29.88,29.88,0,0,1-.39,4.24s-.07.39.07.39.29-.32.29-.32a8.16,8.16,0,0,1,1.79-4.23c1.65-2,4.63-3.23,5.1-4.13,0,0-.22,3.16-3.7,6.85-3.1,3.29-2.19,1.62-3.19,4.31a7.53,7.53,0,0,0-.43,1.22C169.34,68,169.12,67.94,169.12,67.94Z" transform="translate(-37.15 -37.44)"/><path class="cls-1" d="M171,57.32a2.55,2.55,0,0,1,.47-1.4c.54-1,0-2.69.68-5.2s2.05-6.82,7.11-9.4a6.6,6.6,0,0,0-.76.83,20,20,0,0,0-2,4.73,17.06,17.06,0,0,1-2.76,5.49c-.65.68-.36.75-.36.75a1.23,1.23,0,0,0,.65-.57,7.72,7.72,0,0,1,3.8-2.8,35.6,35.6,0,0,0,4.92-1.47,34,34,0,0,1-6.07,4.88c-2.9,1.65-3.23,1.15-4.95,3.37C171.74,56.53,171.17,57.32,171,57.32Z" transform="translate(-37.15 -37.44)"/><path class="cls-1" d="M178,47.74s0-.28.54-.79,1.08-2,2-3.41a11.8,11.8,0,0,1,8.54-5.92,14.38,14.38,0,0,0-1.9,1.62,36.79,36.79,0,0,1-2.58,3.23A21.18,21.18,0,0,1,181.14,45s-.36.28-.29.39.43-.11.43-.11a8.18,8.18,0,0,1,4.2-1.54c2.3-.07,4.7,0,5.06.07,0,0-2.15,1.47-7.28,2.41s-4.16,1-4.95,1.47C178.31,47.71,178.13,47.85,178,47.74Z" transform="translate(-37.15 -37.44)"/><path class="cls-1" d="M187.13,41.79s.11-.29.94-.54.75-1,3.26-2.37,5.13-1.94,7.79-.82c0,0-1.12.14-1.3.21a25.83,25.83,0,0,0-2.61.86,26.54,26.54,0,0,1-4.42,1.72c-1.11.22-.57.29-.57.29a1.38,1.38,0,0,0,.46.11,12.65,12.65,0,0,1,4.31.32,24.11,24.11,0,0,1,2.22,1c.65.21,1.4.35,1.51.61,0,0-1.61.14-2.58.14a14.67,14.67,0,0,1-4.74-.83,6.57,6.57,0,0,0-3.08-.71A2.3,2.3,0,0,1,187.13,41.79Z" transform="translate(-37.15 -37.44)"/><path class="cls-1" d="M197.32,40.53s.11-.14.83-.29a18.54,18.54,0,0,1,2.58-.93,8.38,8.38,0,0,1,6.71,1l-1.79,0c-.33,0-3.13.51-3.77.51s-1.94-.29-2.12-.08,1.19.51,1.4.58a4.4,4.4,0,0,1,2.4,1.33,16.75,16.75,0,0,0,2.23,1.9,31.86,31.86,0,0,1-4.49-1.33c-.89-.5-2.44-2-2.69-2.15S197.32,40.53,197.32,40.53Z" transform="translate(-37.15 -37.44)"/><path class="cls-1" d="M205.61,42a7.93,7.93,0,0,1,3.91,1c1.65,1,3,2.4,3.12,3.23a6,6,0,0,0-1.54-1,21.67,21.67,0,0,1-2.69-1.36C208.05,43.65,206,42.32,205.61,42Z" transform="translate(-37.15 -37.44)"/><path class="cls-1" d="M216.23,93.77s.32-.32,1.4-1.25,1.36-2.3,2.55-4.41a19.33,19.33,0,0,1,4.59-5.74s-.43,1.61-.47,2.11a10.23,10.23,0,0,1-1.79,4.92c-1.36,1.61-1.44,2-3,2.94,0,0-.61.43-.57.57s1.08,0,1.08,0a13.72,13.72,0,0,0,1.5-.65c.36-.21,2-1,2.62-1.29a26.94,26.94,0,0,1,2.62-.93c1.44-.43,6.64-1.76,8.68-5.06a10.24,10.24,0,0,1-1.36,2.83c-.75.9-5,6.53-10.94,6.42,0,0-2.33-.17-3.55-.39a6.73,6.73,0,0,0-1.83-.18A5.16,5.16,0,0,1,216.23,93.77Z" transform="translate(-37.15 -37.44)"/><path class="cls-1" d="M229.47,73.65a21.06,21.06,0,0,0-2.73,8.5c-.5,5,.36,3.52-.46,5.74,0,0-.29.57-.18.61s.53-.21,2.11-1.18,3.12-.69,6.5-3.91,4-9.66,4.12-10.19a3.42,3.42,0,0,0-.75,1.36,4.62,4.62,0,0,1-.9,1.65c-.1.11-3.76,4.13-4.19,4.48a32.68,32.68,0,0,0-3.05,3.74c-.47.75-1.83,2.11-2.09,2a2.43,2.43,0,0,1,.15-.58,13.33,13.33,0,0,0,1.54-3.19,14.6,14.6,0,0,0,.58-3.55C230.15,78.13,229.5,74.44,229.47,73.65Z" transform="translate(-37.15 -37.44)"/><path class="cls-1" d="M232.48,78.49a1.25,1.25,0,0,1,0-.9,6.07,6.07,0,0,0-.43-3.33c-.65-1.4-2.05-5.28-1.94-7.86s.39-2.94.39-2.94.72,2.11.94,2.47,2.36,4.16,2.18,6.25-.28,2.72-.17,2.76.35-.25.39-.5a21.5,21.5,0,0,1,1.08-3.38c.68-1.68,3.44-5.41,4.05-7.89a12.65,12.65,0,0,1-1.51,8.32c-2.4,4-2.65,3.13-3.66,5S232.63,78.49,232.48,78.49Z" transform="translate(-37.15 -37.44)"/><path class="cls-1" d="M234.67,67.12c-.18,0-.07-1.69-.5-2.23S230,60,229.25,55.6c0,0,2.34,2.37,2.73,2.62a8.55,8.55,0,0,1,2.44,3.19c.47,1.37.36,2.51.54,2.55s.18-1.51.18-1.51a39.2,39.2,0,0,1,.28-4.45c.26-1.43.9-3.84.62-5.06a10.61,10.61,0,0,1,1.32,5.39,14.34,14.34,0,0,1-1.58,6,11.31,11.31,0,0,0-.68,2.23C235.1,66.9,234.67,67.12,234.67,67.12Z" transform="translate(-37.15 -37.44)"/><path class="cls-1" d="M230.29,44.66s4.85,2.87,4.09,12.48c0,0,0,.43-.28,0A9.73,9.73,0,0,0,232.3,55c-.46-.29-4.77-2.91-6.6-6.93,0,0,.29-.07.72.32a13,13,0,0,0,2,1.19,7,7,0,0,1,2.84,1.72,9.73,9.73,0,0,1,1.83,2.83s.32.26.1-.46a6.11,6.11,0,0,0-.82-2.08A9,9,0,0,1,231.19,48,7.06,7.06,0,0,0,230.29,44.66Z" transform="translate(-37.15 -37.44)"/><path class="cls-1" d="M229.47,48a2.64,2.64,0,0,0-.36-1.54c-.47-.9-.1-1.9-1.58-4.27-.82-1.33-3.69-2.37-3.69-2.37s.82,1.15,1.36,1.79a7.08,7.08,0,0,1,.9,1.44c.18.32,1.17,1.28,1.54,1.83a1.38,1.38,0,0,1,.21.57c0,.18-.39-.11-.5-.21a9.3,9.3,0,0,0-3-1.65,29.52,29.52,0,0,1-3.8-.72,14.52,14.52,0,0,0,5.24,2.94A6,6,0,0,1,229.47,48Z" transform="translate(-37.15 -37.44)"/><path class="cls-1" d="M223.8,42.11a9,9,0,0,0-7-3.34,1.68,1.68,0,0,0,.76.36c.5.11,1.4,1,1.86,1.29A12,12,0,0,0,223.8,42.11Z" transform="translate(-37.15 -37.44)"/><path class="cls-1" d="M86.1,37.44V79.59a24.27,24.27,0,0,1-1.85,9.76,19.71,19.71,0,0,1-5.08,7.08,21.75,21.75,0,0,1-7.75,4.3,34,34,0,0,1-19.65,0A21.79,21.79,0,0,1,44,96.43,19.54,19.54,0,0,1,39,89.35a24.45,24.45,0,0,1-1.82-9.76V37.44H50.3V79.59q0,6.27,3,9.14c2,1.92,4.77,2.87,8.31,2.87s6.34-.95,8.31-2.87,3-5,3-9.14V37.44Z" transform="translate(-37.15 -37.44)"/><path class="cls-1" d="M148.82,101.3H135.66L110,59.28v42H96.89V37.44H110l25.66,42.1V37.44h13.12Z" transform="translate(-37.15 -37.44)"/><path class="cls-1" d="M46.61,142.51a10.42,10.42,0,0,1-4-.72,8.6,8.6,0,0,1-3-2,8.4,8.4,0,0,1-1.87-2.93,10,10,0,0,1-.64-3.6v-.69a12,12,0,0,1,.62-4,9.14,9.14,0,0,1,1.78-3.11,8.07,8.07,0,0,1,2.8-2,9,9,0,0,1,3.69-.73,9.08,9.08,0,0,1,3.63.68,7.16,7.16,0,0,1,2.64,1.9,8.15,8.15,0,0,1,1.6,3,12.82,12.82,0,0,1,.54,3.84v2.17H42.31a5.29,5.29,0,0,0,.5,1.69,4.38,4.38,0,0,0,1,1.3,4.19,4.19,0,0,0,1.38.84,5,5,0,0,0,1.78.29,6.29,6.29,0,0,0,2.58-.52,5.11,5.11,0,0,0,2-1.61l2.5,2.8a7,7,0,0,1-1.14,1.27,8.24,8.24,0,0,1-1.62,1.11,9.71,9.71,0,0,1-2.11.77A10.78,10.78,0,0,1,46.61,142.51ZM46,126.86a3.49,3.49,0,0,0-1.46.29,3.41,3.41,0,0,0-1.07.81,4.16,4.16,0,0,0-.73,1.25,6.81,6.81,0,0,0-.41,1.6h7.08v-.41a5.2,5.2,0,0,0-.21-1.4,3.17,3.17,0,0,0-.62-1.13,2.71,2.71,0,0,0-1.06-.74A3.93,3.93,0,0,0,46,126.86Z" transform="translate(-37.15 -37.44)"/><path class="cls-1" d="M62,123.09l.15,2.21a6.71,6.71,0,0,1,2.38-1.9,7.18,7.18,0,0,1,3.1-.66,7.67,7.67,0,0,1,2.47.38A4.59,4.59,0,0,1,72,124.36a6,6,0,0,1,1.22,2.26,11.51,11.51,0,0,1,.43,3.41v12.13H68.6V130a5,5,0,0,0-.2-1.52,2.37,2.37,0,0,0-.59-.95,2.34,2.34,0,0,0-1-.5,5.19,5.19,0,0,0-1.31-.15,3.71,3.71,0,0,0-1.93.49,3.77,3.77,0,0,0-1.29,1.34v13.45h-5.1V123.09Z" transform="translate(-37.15 -37.44)"/><path class="cls-1" d="M84.69,135.94l3.54-12.85h5.32l-6.43,19.07H82.26l-6.44-19.07h5.33Z" transform="translate(-37.15 -37.44)"/><path class="cls-1" d="M95.75,118.16a2.54,2.54,0,0,1,.77-1.89,2.9,2.9,0,0,1,2.09-.74,3.4,3.4,0,0,1,1.18.2,2.7,2.7,0,0,1,.9.54,2.55,2.55,0,0,1,.57.84,2.88,2.88,0,0,1,0,2.11,2.36,2.36,0,0,1-.57.84,2.57,2.57,0,0,1-.9.55,3.4,3.4,0,0,1-1.18.19,3.36,3.36,0,0,1-1.18-.19,2.48,2.48,0,0,1-.9-.55,2.24,2.24,0,0,1-.57-.84A2.61,2.61,0,0,1,95.75,118.16Zm5.41,24H96.05V123.09h5.11Z" transform="translate(-37.15 -37.44)"/><path class="cls-1" d="M116.07,127.87c-.26,0-.56-.07-.91-.1s-.65,0-.92,0a5,5,0,0,0-2.43.5,3.09,3.09,0,0,0-1.36,1.45v12.48h-5.09V123.09h4.81l.14,2.28a5.54,5.54,0,0,1,1.78-1.93,4.33,4.33,0,0,1,2.46-.7,5.24,5.24,0,0,1,.86.07,5.53,5.53,0,0,1,.73.16Z" transform="translate(-37.15 -37.44)"/><path class="cls-1" d="M117.09,132.45a12,12,0,0,1,.6-3.86,8.67,8.67,0,0,1,1.75-3.07,7.88,7.88,0,0,1,2.82-2,9.53,9.53,0,0,1,3.84-.74,9.63,9.63,0,0,1,3.86.74,8,8,0,0,1,2.84,2,8.69,8.69,0,0,1,1.76,3.07,12.29,12.29,0,0,1,.59,3.86v.37a12.27,12.27,0,0,1-.59,3.87,8.74,8.74,0,0,1-1.76,3.06,8,8,0,0,1-2.83,2,9.43,9.43,0,0,1-3.84.73,9.55,9.55,0,0,1-3.85-.73,8,8,0,0,1-2.84-2,8.72,8.72,0,0,1-1.75-3.06,12,12,0,0,1-.6-3.87Zm5.1.37a10.82,10.82,0,0,0,.21,2.18,5.37,5.37,0,0,0,.67,1.78,3.62,3.62,0,0,0,1.22,1.18,3.51,3.51,0,0,0,1.84.44,3.45,3.45,0,0,0,1.81-.44,3.53,3.53,0,0,0,1.22-1.18,5.17,5.17,0,0,0,.69-1.78,10.82,10.82,0,0,0,.21-2.18v-.37a10.5,10.5,0,0,0-.21-2.14,5.33,5.33,0,0,0-.69-1.78,3.59,3.59,0,0,0-1.23-1.22,3.55,3.55,0,0,0-1.83-.45,3.45,3.45,0,0,0-1.81.45,3.65,3.65,0,0,0-1.22,1.22,5.54,5.54,0,0,0-.67,1.78,10.5,10.5,0,0,0-.21,2.14Z" transform="translate(-37.15 -37.44)"/><path class="cls-1" d="M143,123.09l.16,2.21a6.54,6.54,0,0,1,2.38-1.9,7.12,7.12,0,0,1,3.1-.66,7.65,7.65,0,0,1,2.46.38,4.59,4.59,0,0,1,1.91,1.24,6,6,0,0,1,1.22,2.26,11.51,11.51,0,0,1,.43,3.41v12.13h-5.09V130a5,5,0,0,0-.2-1.52,2.27,2.27,0,0,0-.59-.95,2.34,2.34,0,0,0-.95-.5,5.13,5.13,0,0,0-1.31-.15,3.71,3.71,0,0,0-1.93.49,3.86,3.86,0,0,0-1.29,1.34v13.45h-5.1V123.09Z" transform="translate(-37.15 -37.44)"/><path class="cls-1" d="M163.28,123.09l.16,2.13a6.75,6.75,0,0,1,2.31-1.82,7.21,7.21,0,0,1,3.17-.66,6.4,6.4,0,0,1,3,.69,4.65,4.65,0,0,1,2,2.22,6.68,6.68,0,0,1,2.36-2.13,6.88,6.88,0,0,1,3.37-.78,7.76,7.76,0,0,1,2.53.39,4.65,4.65,0,0,1,1.94,1.25,5.8,5.8,0,0,1,1.23,2.24,11.53,11.53,0,0,1,.43,3.4v12.14h-5.11V130a5.26,5.26,0,0,0-.2-1.57,2.36,2.36,0,0,0-.57-1,2.06,2.06,0,0,0-.9-.48,4.85,4.85,0,0,0-1.2-.13,3.2,3.2,0,0,0-2,.59,3.61,3.61,0,0,0-1.2,1.6,1.28,1.28,0,0,0,0,.19c0,.07,0,.13,0,.19v12.71h-5.1V130.05a5.39,5.39,0,0,0-.19-1.57,2.24,2.24,0,0,0-.56-1,2.08,2.08,0,0,0-.91-.5,5,5,0,0,0-1.21-.14,3.55,3.55,0,0,0-1.9.48,3.36,3.36,0,0,0-1.24,1.32v13.48H158.5V123.09Z" transform="translate(-37.15 -37.44)"/><path class="cls-1" d="M198.52,142.51a10.33,10.33,0,0,1-4-.72,8.64,8.64,0,0,1-3-2,8.4,8.4,0,0,1-1.87-2.93,10,10,0,0,1-.64-3.6v-.69a12,12,0,0,1,.62-4,9.14,9.14,0,0,1,1.78-3.11,8.17,8.17,0,0,1,2.8-2,9.86,9.86,0,0,1,7.32,0,7.16,7.16,0,0,1,2.64,1.9,8.15,8.15,0,0,1,1.6,3,12.82,12.82,0,0,1,.54,3.84v2.17H194.22a5.29,5.29,0,0,0,.5,1.69,4.38,4.38,0,0,0,1,1.3,4.3,4.3,0,0,0,1.38.84,5,5,0,0,0,1.78.29,6.29,6.29,0,0,0,2.58-.52,5.11,5.11,0,0,0,2-1.61l2.51,2.8a7.47,7.47,0,0,1-1.15,1.27,8.24,8.24,0,0,1-1.62,1.11,9.52,9.52,0,0,1-2.11.77A10.78,10.78,0,0,1,198.52,142.51Zm-.58-15.65a3.52,3.52,0,0,0-1.46.29,3.41,3.41,0,0,0-1.07.81,4.38,4.38,0,0,0-.73,1.25,6.81,6.81,0,0,0-.41,1.6h7.09v-.41a5.62,5.62,0,0,0-.22-1.4,3,3,0,0,0-.62-1.13,2.71,2.71,0,0,0-1.06-.74A3.93,3.93,0,0,0,197.94,126.86Z" transform="translate(-37.15 -37.44)"/><path class="cls-1" d="M213.94,123.09l.16,2.21a6.54,6.54,0,0,1,2.38-1.9,7.12,7.12,0,0,1,3.1-.66,7.65,7.65,0,0,1,2.46.38,4.59,4.59,0,0,1,1.91,1.24,6,6,0,0,1,1.22,2.26,11.51,11.51,0,0,1,.43,3.41v12.13h-5.09V130a5,5,0,0,0-.2-1.52,2.27,2.27,0,0,0-.59-.95,2.34,2.34,0,0,0-.95-.5,5.13,5.13,0,0,0-1.31-.15,3.71,3.71,0,0,0-1.93.49,3.86,3.86,0,0,0-1.29,1.34v13.45h-5.1V123.09Z" transform="translate(-37.15 -37.44)"/><path class="cls-1" d="M235.56,118.4v4.69h3.26v3.74h-3.26v9.51a3.43,3.43,0,0,0,.12,1,1.37,1.37,0,0,0,.37.61,1.4,1.4,0,0,0,.61.3,4.23,4.23,0,0,0,.85.08,7.17,7.17,0,0,0,.84,0,5,5,0,0,0,.66-.09v3.86a11.66,11.66,0,0,1-1.38.33,9.71,9.71,0,0,1-1.7.13,7.53,7.53,0,0,1-2.26-.31,4.15,4.15,0,0,1-1.71-1,4.28,4.28,0,0,1-1.11-1.74,7.91,7.91,0,0,1-.38-2.59V126.83h-2.79v-3.74h2.79V118.4Z" transform="translate(-37.15 -37.44)"/></svg>