<svg id="Capa_1" data-name="Capa 1" xmlns="http://www.w3.org/2000/svg" viewBox="0 0 850.32 850.32"><defs><style>.cls-1{fill:#153e85;}.cls-1,.cls-2,.cls-3{fill-rule:evenodd;}.cls-2{fill:#32a130;}.cls-3{fill:#fff;}</style></defs><title>CPPS-logo</title><path class="cls-1" d="M424.08,60c-.4.29-.27.69-.24,1.09.59,9.49,1.15,19,1.78,28.48.44,6.54.94,13.08,1.55,19.61a2.17,2.17,0,0,1-1.39,2.62c-1.45.62-2.75,2.38-4.18,2-1.24-.35-2.12-2-3.1-3.2-10.18-11.92-20.81-23.44-31.43-35a2.4,2.4,0,0,0-1.43-1.06c0,.63,0,1.23,0,1.82q1.14,14.94,2.29,29.89c.21,2.79.41,5.58.66,8.37.1,1.07-.12,1.63-1.37,1.61s-2.7.23-4.06.31c-1.59.1-1.63.06-1.73-1.48-.16-2.47-.26-5-.42-7.42q-1-15.55-2.13-31.11c-.21-3-.47-5.9-.8-8.83a2.09,2.09,0,0,1,1.28-2.47c1.65-.8,3.25-2.43,4.85-2.41s2.62,2.32,3.84,3.65Q403,82.71,417.88,99a3.77,3.77,0,0,0,1.82,1.49c-.21-2.92-.39-5.73-.61-8.54-.56-7-1.15-14-1.71-21-.23-3-.37-5.91-.63-8.86-.1-1.17.35-1.52,1.47-1.58,1.31-.08,2.7.25,3.94-.48Z"/><path class="cls-1" d="M444.72,791.52q-1.73-20.64-3.46-41.29-.47-5.37-1.11-10.72c-.12-1,.05-1.53,1.11-1.62,6.52-.54,13.05-1.33,19.58-.18,8.19,1.44,13.06,6.48,14.36,14.81,1.1,7-2.75,14.36-9.43,17.9a34.55,34.55,0,0,1-12.15,3.35c-2.88.36-2.91.31-2.67,3.25.32,4,.66,8,1.06,11.93.13,1.2-.19,1.63-1.46,1.78-1.62.18-3.34,0-4.87.79Zm3.41-46.64c.19,2.56.32,4.56.49,6.54.44,5.09.92,10.18,1.33,15.28.08,1,.39,1.43,1.44,1.3,3.4-.43,6.82-.84,9.92-2.48,4.52-2.39,6.76-6.32,6.32-11.14-.47-5.22-3.06-8.78-8.14-10.41a22.71,22.71,0,0,0-9.49-.62C448.08,743.56,448.08,743.56,448.13,744.88Z"/><path class="cls-1" d="M43.92,464.64c.54.29.89-.1,1.28-.34l2-1.27c2.42-1.54,2.42-1.54,3.82,1.09l5.05,9.49c.93,1.75,1.82,3.54,2.82,5.25.57,1,.52,1.56-.48,2.13s-2.11,1.37-3.11,2a5.23,5.23,0,0,1-1.51-2c-2.81-4.72-5.59-9.46-8.41-14.18-.38-.64-.51-1.54-1.49-1.67Z"/><path class="cls-1" d="M719.15,478.05a248,248,0,0,1-6.32,28.26q-2,7.15-4.35,14.2a298.2,298.2,0,0,1-549.12,39.38A293.66,293.66,0,0,1,135,491.94a298.47,298.47,0,0,1,141.5-324c5.67-3.29,11.4-6.48,17.29-9.35A293,293,0,0,1,337,141.39c4.42-1.33,8.86-2.61,13.36-3.7,3.27-.79,6.53-1.71,9.8-2.47a282.11,282.11,0,0,1,33.93-5.63,298.79,298.79,0,0,1,87.4,3.46,5.35,5.35,0,0,1,2.18.92c6.62,4.67,13,9.62,18.3,15.8,4.07,4.73,7.21,10,8.29,16.23a42.63,42.63,0,0,1,.29,7.66c0,3.59-.38,7.17-.13,10.78a15.33,15.33,0,0,0,3.64,8.93,26,26,0,0,1,5.61,11.71,22.15,22.15,0,0,1-1.29,12,48.23,48.23,0,0,1-6.73,11.85c-3.44,4.73-7.3,9.11-11.1,13.54a169,169,0,0,0-14.21,18.41,58.51,58.51,0,0,0-9.07,27.22,101,101,0,0,0,2.24,29.53,71.81,71.81,0,0,0,2.86,10.66,283.64,283.64,0,0,0,14.93,33.13c6.35,11.92,13.06,23.65,19.16,35.7a218.17,218.17,0,0,1,9.17,20.05c1.36,3.55,2.48,7.2,3.64,10.83,1,3.14,2.06,6.29,2.83,9.49,3.78,15.71,3.29,31.35-.61,47-4,16-9.65,31.44-15.9,46.68-5.91,14.41-12.26,28.64-17.74,43.23-5.37,14.3-10,28.82-12.93,43.84-1.89,9.7-2.81,19.47-1.69,29.34a63.35,63.35,0,0,0,9.36,27.19c1.66,2.61,3.67,5,5.4,7.66-.21-1.58-.43-3.16-.65-4.74a116.47,116.47,0,0,1-1-20.1,8.1,8.1,0,0,1,.21-1.16,28.28,28.28,0,0,0,4.42,10.28c1.67,2.24,3.56,4.28,6.44,5.22.24-.81.5-1.47.64-2.16,1.53-7.15,4.91-13.42,8.83-19.53a35.1,35.1,0,0,1,17.05-14.11c3.19-1.26,6.44-2.37,9.68-3.51a75.87,75.87,0,0,0,10-4c5.47-2.81,9.23-6.9,10.37-13.23a27.83,27.83,0,0,1,8.2-14.88c4.15-4.16,9-7.38,13.71-10.84,3.68-2.71,7.35-5.38,11.61-7.14,1.92-.79,3.79-1.69,5.64-2.63a25.1,25.1,0,0,0,9.84-8.9,37.51,37.51,0,0,0,4.11-9.41,40.18,40.18,0,0,1,3.1-7.53,15.68,15.68,0,0,1,10.25-8c4.2-1.08,8.53-1.1,12.79-1.64a40.49,40.49,0,0,0,16.68-5.54,56.16,56.16,0,0,0,14.84-14.12,45.74,45.74,0,0,0,9.19-23.81,34.7,34.7,0,0,1,1.66-8.43c1.86-5.17,5.94-8,10.74-9.95A62.91,62.91,0,0,1,719.15,478.05Z"/><path class="cls-2" d="M719.15,478.05a62.91,62.91,0,0,0-22.89,4.49c-4.8,1.92-8.88,4.78-10.74,9.95a34.7,34.7,0,0,0-1.66,8.43,45.74,45.74,0,0,1-9.19,23.81,56.16,56.16,0,0,1-14.84,14.12,40.49,40.49,0,0,1-16.68,5.54c-4.26.54-8.59.56-12.79,1.64a15.68,15.68,0,0,0-10.25,8,40.18,40.18,0,0,0-3.1,7.53A37.51,37.51,0,0,1,612.9,571a25.1,25.1,0,0,1-9.84,8.9c-1.85.94-3.72,1.84-5.64,2.63-4.26,1.76-7.93,4.43-11.61,7.14-4.69,3.46-9.56,6.68-13.71,10.84a27.83,27.83,0,0,0-8.2,14.88c-1.14,6.33-4.9,10.42-10.37,13.23a75.87,75.87,0,0,1-10,4c-3.24,1.14-6.49,2.25-9.68,3.51a35.1,35.1,0,0,0-17.05,14.11c-3.92,6.11-7.3,12.38-8.83,19.53-.14.69-.4,1.35-.64,2.16-2.88-.94-4.77-3-6.44-5.22a28.28,28.28,0,0,1-4.42-10.28,124,124,0,0,1,3.21-25.16c4.42-20.34,12.07-39.53,21-58.23,6.25-13,13.55-25.55,20.78-38.08,6.55-11.35,12.84-22.84,17.69-35.06a179.59,179.59,0,0,0,10.4-39.29,312.57,312.57,0,0,0,3.62-34.8,216,216,0,0,0-2.48-40.64c-.62-4.19-1.45-8.34-2.08-12.53a50.82,50.82,0,0,0-5.39-15.8c-2.69-5.27-5.89-10.25-9-15.3a97.19,97.19,0,0,1-8.5-16.35c-2.23-5.93-3.33-12-2.26-18.34a21.41,21.41,0,0,1,5.85-11.58,37,37,0,0,1,9.28-6.73c3.38-1.8,6.82-3.51,10.24-5.23a52.74,52.74,0,0,0,8.39-5.1c7.47-5.75,9.78-13.31,7.83-22.35a32.45,32.45,0,0,0-2.41-7c-5-10.52-5.08-21.28-1.85-32.27.42-1.43,1.16-2.82,1-4.39.72.22.65.83.64,1.37a62.6,62.6,0,0,0,.4,9.08c.38,2.85.67,5.74,2.25,8.23s3.92,2.61,5.72.08a8.73,8.73,0,0,0,1.16-2.35,9.11,9.11,0,0,0-.56-7.2c-.8-1.56-.44-1.88,1-2.49a12.13,12.13,0,0,1,7.3-.27c3.53.74,6.78,2.33,10.11,3.65,6.09,2.41,12.34,3.33,18.74,1.77a113.15,113.15,0,0,1,14.14-2.29,218.4,218.4,0,0,1,15.48,17.67,296,296,0,0,1,64.46,161.93,308.05,308.05,0,0,1,.27,45.77A255.16,255.16,0,0,1,719.15,478.05Z"/><path class="cls-1" d="M642.81,221.77a113.15,113.15,0,0,0-14.14,2.29c-6.4,1.56-12.65.64-18.74-1.77-3.33-1.32-6.58-2.91-10.11-3.65a12.13,12.13,0,0,0-7.3.27c-1.45.61-1.81.93-1,2.49a9.11,9.11,0,0,1,.56,7.2,8.73,8.73,0,0,1-1.16,2.35c-1.8,2.53-4,2.54-5.72-.08s-1.87-5.38-2.25-8.23a62.6,62.6,0,0,1-.4-9.08c0-.54.08-1.15-.64-1.37a26.48,26.48,0,0,0-6.62-1,21.54,21.54,0,0,1-3.57-.39,8.7,8.7,0,0,1-6-4.32,16.63,16.63,0,0,1-2.38-6.73c-.76-7-4.56-11.13-11.29-12.9a21.05,21.05,0,0,1-9.11-4.62c-4.93-4.52-7.46-10.26-8.35-16.8a54.6,54.6,0,0,1-.5-7.88,38.67,38.67,0,0,0-.83-8.1,2.06,2.06,0,0,1,0-1.54,76.32,76.32,0,0,1,8.12,3.18q11.94,5,23.38,11.06a298.88,298.88,0,0,1,76.85,58.12C642,220.76,642.4,221.28,642.81,221.77Z"/><path class="cls-3" d="M482.64,133.41c6.36,4.52,13.86,10.05,19,16,4.07,4.74,7.18,10,8.46,15.85a33.39,33.39,0,0,1,.45,7.47c0,3.6-.45,7.27-.2,10.88a15.73,15.73,0,0,0,3.25,9.21A31,31,0,0,1,519.39,204c1.23,4,.51,8.4-.9,12.29a48.42,48.42,0,0,1-6.73,11.85c-3.43,4.72-7.3,9.1-11.1,13.54a168.85,168.85,0,0,0-14.21,18.4c-5.35,8.32-7.72,16.17-9,26.38s-.24,20.59,1.81,30.35A71,71,0,0,0,482,327.4a287.62,287.62,0,0,0,14.86,33.27c6.35,11.92,13,23.56,19.14,35.62a216.13,216.13,0,0,1,9.28,20.1c1.36,3.55,2.58,7.31,3.74,10.94,1,3.14,2.07,6.15,2.84,9.35a97.4,97.4,0,0,1-.26,47c-4,16-9.65,31.45-15.9,46.68C509.79,544.79,503.44,559,498,573.62A273.18,273.18,0,0,0,485,617.46c-1.89,9.7-3,19.4-1.93,29.27s3.7,19,9,27.28c1.66,2.61,4.14,5.73,5.87,8.42-.21-1.58-.27-3.94-.5-5.52a116.47,116.47,0,0,1-1-20.1,6.77,6.77,0,0,1,.22-1.16,123.19,123.19,0,0,1,3.2-25.16c4.42-20.34,12.3-39.54,21.26-58.24,6.26-13,13.58-25.48,20.81-38,6.55-11.35,12.79-23,17.64-35.25a177.61,177.61,0,0,0,10.19-39.16A312.75,312.75,0,0,0,573.35,425c.54-13.62-.72-27.06-2.73-40.53-.62-4.18-1.5-8.55-2.12-12.73-.83-5.61-3-10.45-5.52-15.45-2.7-5.27-6-10.36-9.09-15.4a98,98,0,0,1-8.36-16.39,35.19,35.19,0,0,1-1.86-18.45,20.64,20.64,0,0,1,6.09-11.19,36.94,36.94,0,0,1,9.39-6.6c3.38-1.81,6.8-3.49,10.22-5.22a55.25,55.25,0,0,0,8.57-5.38c7.47-5.74,8.93-13.6,7-22.64A37.31,37.31,0,0,0,582.3,248c-4.71-10.59-4.53-21.19-1.3-32.17.42-1.44,1.16-2.82,1-4.39a26.5,26.5,0,0,0-6.62-1,20.51,20.51,0,0,1-3.57-.38,8.72,8.72,0,0,1-6-4.32c-1.24-2.08-2.51-4.26-2.77-6.64-.76-7-4.32-10.44-11-12.21a22.15,22.15,0,0,1-9-5.4c-4.93-4.53-7.45-10.26-8.35-16.8a54.83,54.83,0,0,1-.5-7.89,38.57,38.57,0,0,0-.83-8.09,3.78,3.78,0,0,1-.13-.84A317.4,317.4,0,0,0,482.64,133.41Z"/><path class="cls-3" d="M723.87,427.57c0-.54,0-1.08,0-1.62,0-.29,0-.57,0-.86C723.88,425.92,723.88,426.74,723.87,427.57Z"/><path class="cls-3" d="M127.81,425.5c0,.15,0,.3,0,.45,0,1.1,0,2.19,0,3.28C127.83,428,127.81,426.74,127.81,425.5Z"/><path class="cls-1" d="M201.08,188.42c-2.83-8.15-5.48-15.76-8.13-23.37-1.73-5-3.43-10-5.23-14.92-.45-1.27-.59-2.22.76-3s2.39-2.64,3.86-2.67S195,146,196.25,147q18.17,13.34,36.55,26.39l2.17,1.5a40.08,40.08,0,0,0-.66-7.8c-1.36-11.19-2.8-22.36-4.23-33.54-.55-4.28-1.11-8.56-1.77-12.82a3.47,3.47,0,0,1,1.7-3.92c2.23-1.58,3.68-1.25,5.83.2,14,9.46,28.23,18.75,42.35,28.11,2.53,1.67,2.28,1.11.88,3.55-.6,1-1.21,2.07-1.84,3.09-1,1.57-1,1.57-2.44.56-4.53-3.14-9.16-6.15-13.55-9.48-2.06-1.57-3.51-1.55-5.61-.12C250.8,146,245.8,149,240.81,152a2.43,2.43,0,0,0-1.36,2.87c.94,6,1.74,12,2.59,18,.24,1.66.21,1.69-1.55,1.81-1.51.1-3.25-.31-4.47.48s-1.69,2.25-2.52,3.41c-.69,1-1.4,1.92-2.19,3L196.82,156c-.37.88.13,1.5.32,2.08,3.66,11.07,7.32,22.14,11.37,33.07a3.49,3.49,0,0,1-.93,4.34c-1.92,1.95-3.44,2.12-5.93,1-10.22-4.53-20.56-8.78-30.86-13.13a4.66,4.66,0,0,0-2-.64c.06.33,0-.13-.18.15a.28.28,0,0,0,0,.22,12.65,12.65,0,0,0,.63,1.28c7,11.65,14,23.26,21.52,34.75-1.81,1.53-3.87,2.57-5.68,3.83-.76-.2-.9-.8-1.16-1.25-8.21-14.28-16.81-28.31-25.35-42.38-1.21-2-1.23-2,.29-3.86,1-1.17,1.63-2.95,3-3.32s2.78.92,4.16,1.51q16.23,6.84,32.43,13.71C199.13,187.68,199.86,187.94,201.08,188.42Zm34.38-62.84c1,7.25,1.9,13.93,2.85,20.87L253,137.28Z"/><path class="cls-1" d="M149.35,652.14c5.44-2.43,10.9-4.83,16.32-7.32,7-3.21,13.88-6.5,20.82-9.76,1.79-.85,1.86-.88,2.61.83s1.8,3,2,4.77a25.31,25.31,0,0,1-4.55,2.09c-14,6-27.76,12.23-41.57,18.49-.44.2-.88.39-1.31.6a1.31,1.31,0,0,1-1.89-.33,3.61,3.61,0,0,0-.33-.35c-1.19-1.28-3.05-2.41-3.4-3.9s1.4-3.06,2.27-4.57c5.68-9.91,11.41-19.8,17.09-29.71a4.61,4.61,0,0,0,1.06-2.46,72.65,72.65,0,0,0-8.93,1.74c-9.92,2.1-19.82,4.3-29.72,6.47a6.47,6.47,0,0,0-1.18.21c-1.06.46-1.61-.05-2.09-.93s-1.15-1.92-1.74-2.88c-1.17-1.9-1-1.55.29-3q9.27-9.88,18.52-19.79c5.11-5.51,10.17-11.07,15.25-16.6l1.39-1.55,5.57,5.16-29.66,31.17a12.06,12.06,0,0,0,4.48-.56c10.87-2.2,21.76-4.37,32.55-7a2.46,2.46,0,0,1,3.16,1.27c.65,1.18,2.14,2.09,2.08,3.38-.06,1.14-1.1,2.24-1.74,3.34q-8.37,14.55-16.75,29.08l-.92,1.66Z"/><path class="cls-1" d="M101,391.28l-24.7-1.5c-4.62-.29-9.25-.64-13.88-.89-1.06-.06-1.39-.43-1.29-1.44.13-1.35.12-2.72.25-4.07.16-1.78.19-1.74,2.08-1.6,9.88.76,19.76,1.53,29.65,2.24,5.74.41,11.49.74,17.24,1.05,1.34.07,2.27.4,2.64,1.85s1.73,2.87,1.39,4.23-2.27,1.84-3.52,2.64c-13.27,8.48-26.23,17.43-39.19,26.38-.44.31-.86.64-1.49,1.11a7.25,7.25,0,0,0,2.78.51l34.48,2.1c1.12.07,2.23.21,3.35.23s1.33.56,1.21,1.53c-.17,1.43-.29,2.87-.33,4.31,0,1-.32,1.36-1.43,1.27-5.57-.49-11.16-.91-16.74-1.3-8.77-.61-17.55-1.18-26.32-1.76-1.68-.11-3.35-.27-5-.31a1.67,1.67,0,0,1-1.71-1.31c-.63-1.81-1.32-3.59-2-5.38,1.2-1.55,3-2.33,4.55-3.4q17.87-12.33,35.77-24.59A6.71,6.71,0,0,0,101,391.28Z"/><path class="cls-1" d="M318,119.22c-5.16-12.45-10.2-24.62-15.25-36.84,1.86-1.21,3.9-1.71,5.77-2.58a.77.77,0,0,1,1.14.48c.22.52.42,1,.62,1.56,5.55,14.29,11.22,28.53,17.24,42.64.7,1.64.63,2.79-.72,4-1,.89-1.63,2.57-2.85,2.78s-2.36-1.13-3.51-1.83c-13.83-8.47-28-16.42-42.1-24.36-.21-.11-.42-.2-.82-.38a3.77,3.77,0,0,0,.52,2l14.25,34.54c.21.52.43,1,.66,1.54a.78.78,0,0,1-.48,1.15c-1.62.67-3.26,1.32-4.88,2-.79.33-1.15,0-1.42-.74-.76-2.1-1.58-4.18-2.4-6.26q-7.46-19-15.38-37.71c-.62-1.48-.64-2.48.64-3.51s2.11-3.38,3.75-3.43c1.44,0,2.94,1.4,4.4,2.23l38.37,21.71A6.42,6.42,0,0,0,318,119.22Z"/><path class="cls-1" d="M222.5,676.24c.31,13.8-11.38,26-22.08,28.9a25.24,25.24,0,0,1-17.55-1.26A24.91,24.91,0,0,1,169.65,672c4.23-10.87,12-18.08,23.66-20.23C208.42,649,222.49,660.89,222.5,676.24Zm-7.11-.26c.08-11.93-9.86-19.86-20.81-17.11-10.43,2.61-16.25,9.9-19,19.91a15.36,15.36,0,0,0,.15,8.07,16.34,16.34,0,0,0,19.9,11.76c9.29-2.33,15.42-8.33,18.76-17.25A16.2,16.2,0,0,0,215.39,676Z"/><path class="cls-1" d="M746.14,573.62A31.15,31.15,0,0,1,724,563.18c-6.63-7.47-8.57-16.13-5.11-25.62s10.51-15.06,20.58-16.36c9.88-1.27,18.52,1.85,25.74,8.5a25,25,0,0,1,6.23,28.13C767.47,567.67,758.52,573.6,746.14,573.62Zm-3.77-45.12c-.64,0-1.28,0-1.91,0-7.5.44-13.76,5.1-15.85,11.91-1.89,6.11-.37,11.59,3.63,16.34,6,7.2,14.11,9.75,23.2,8.9a16.05,16.05,0,0,0,13.44-8.84c3.29-6.36,2.33-13.49-2.63-19.17C757,531.65,750.21,528.9,742.37,528.5Z"/><path class="cls-1" d="M86.69,496c-10.2-.23-18.48-4.06-23.7-13.16a24.92,24.92,0,0,1,8.3-33.68,31.24,31.24,0,0,1,26.88-3.57,25,25,0,0,1,17.76,21.64c1.1,12.44-5.79,20.89-14,25.19A32.67,32.67,0,0,1,86.69,496Zm1.82-7.82a23.91,23.91,0,0,0,15-5.79,16.73,16.73,0,0,0-4.81-28.68c-9.63-3.84-18.67-2.1-26.5,4.29-9.47,7.74-7.78,21.6,3,27.43C78.74,487.36,82.6,488.21,88.51,488.16Z"/><path class="cls-1" d="M585.09,151.72a45,45,0,0,1-19.66-4.59c-3.11-1.46-6.09-3.16-9.06-4.89-1.52-.88-1.54-.91-.66-2.51q9.84-18,19.33-36.11,2.1-4.05,4.15-8.1c.4-.8.78-1.33,1.82-.8,7.33,3.75,14.63,7.55,20.42,13.63a30.91,30.91,0,0,1,7.93,13.74c2.64,10.35-3.2,24.89-17,28.6A24.81,24.81,0,0,1,585.09,151.72Zm-20.77-12.23c6.71,3.61,13.49,6.11,21,5.38,7.77-.75,13.22-4.79,15.92-12.26,2.09-5.78,1.1-11.17-2.11-16.25-3.76-5.93-9.29-9.78-15.45-13.17C577,115.16,570.8,127.21,564.32,139.49Z"/><path class="cls-1" d="M155.55,226.51c2.36-.21,4.67-.34,6.95-.62,6.19-.77,12.36-1.61,18.54-2.41,1.54-.2,1.55-.2,1.68,1.36.11,1.36.24,2.71.31,4.07.09,1.75.07,1.78-1.58,1.94q-9.54,1-19.08,1.9c-3.66.35-7.33.67-11,1l-1.68.09c-1.12.09-1.44-.42-1.13-1.45a23.36,23.36,0,0,0,1-7.1,10.53,10.53,0,0,0-4.59-8.77,8,8,0,0,0-9-.53,16.33,16.33,0,0,0-4.79,4.28,41.08,41.08,0,0,0-3.55,4.83c.15.74.8,1,1.28,1.33,11.4,8.51,23,16.81,34.54,25.08,2.11,1.5,2.11,1.49.66,3.5-.75,1-1.53,2.05-2.24,3.11-.53.78-1,.81-1.76.24-1.83-1.42-3.71-2.78-5.57-4.16q-17-12.67-34.38-24.9c-.39-.27-.77-.57-1.18-.82-.74-.46-.94-.94-.37-1.73,3.21-4.49,6.11-9.22,9.95-13.21,3.28-3.42,7.06-5.91,12-6.27,5.94-.43,13,4.44,14.28,11.45A66.42,66.42,0,0,1,155.55,226.51Z"/><path class="cls-1" d="M621.19,674.75c2.1-1.55,3.94-3,6.12-4.34,10.25,14.51,20.59,28.81,31.3,43.06-5.26,3.92-10.06,8.16-15.88,10.94-4,1.91-8.2,2.72-12.56,1.35a14.2,14.2,0,0,1-9.46-14.55,28.92,28.92,0,0,1,1.37-6.79c.42-1.16.11-1.5-1-1.76-6.3-1.45-12.66-2.66-19-3.77-1.73-.3-3.46-.66-5.19-.92-.85-.13-1.1-.53-.9-1.31.41-1.54.9-3.07,1.18-4.64.24-1.36.95-1.42,2-1.17,4.52,1,9.05,2,13.58,3l15.89,3.59c.39.09.78.17,1.17.28,1.83.52,1.87.61.9,2.18a22.46,22.46,0,0,0-3.37,8.39c-.71,4.45,2.76,10.49,7.83,11a11.53,11.53,0,0,0,6.44-1.49,39.55,39.55,0,0,0,6-3.93c1.27-1,1.28-1,.28-2.4q-7.79-10.8-15.59-21.59C628.66,684.86,625,679.92,621.19,674.75Z"/><path class="cls-1" d="M706,287.06a1.78,1.78,0,0,1-.09-.31,47.63,47.63,0,0,1,.42-6c1.85-1.07,3.84-.41,5.75-.39,16.46.15,32.93.4,49.39.55a3,3,0,0,1,3.08,1.91c1.38,2.47,1,4.05-.9,6.18-11.25,12.46-22.31,25.09-33.44,37.65a7.5,7.5,0,0,1-2.1,2.06l-6-4.83,12.32-13.36a17.37,17.37,0,0,1,1.3-1.41,1.87,1.87,0,0,0,.45-2.52q-4.07-8.94-8-17.95c-.57-1.33-1.45-1.47-2.65-1.47q-8.62,0-17.26,0A6.2,6.2,0,0,1,706,287.06Zm35.41,15.8,13.78-15.46H734.26c2,4.56,3.94,8.91,5.89,13.26A5.49,5.49,0,0,0,741.41,302.86Z"/><path class="cls-1" d="M622.34,152.46c-1.6,2.13-3.23,4.29-4.85,6.46s-3.15,4.23-4.7,6.36c-1,1.33-1,1.38.38,2.41,5.47,4.16,11,8.28,16.46,12.42.89.67,1.78,1.35,2.7,2,.63.45.81.89.28,1.57-1.09,1.37-2.12,2.78-3.27,4.28L602,167.34c10.88-14.06,21.49-28.14,32-42.47,4,3,7.78,6,11.61,8.84,4.66,3.51,9.34,7,14,10.49,1.36,1,1.4,1.07.37,2.35s-1.59,3.28-3,3.45c-1.29.15-2.45-1.56-3.66-2.47-5.23-3.94-10.45-7.92-15.68-11.86-1.47-1.11-1.5-1.09-2.58.29-2.4,3.09-4.81,6.18-7.18,9.31-1.62,2.14-1.89,1.68.37,3.39q8.13,6.14,16.31,12.22c.51.39,1,.76,1.55,1.14,1.42,1.08,1.42,1.09.36,2.53a29.44,29.44,0,0,0-1.85,2.51c-.69,1.18-1.33,1-2.27.25q-8.64-6.65-17.37-13.2A8.52,8.52,0,0,0,622.34,152.46Z"/><path class="cls-1" d="M139.25,299.83c-4.46-2.22-8.73-4.38-13-6.48Q110,285.46,93.67,277.6l-.44-.19c-1.76-.85-1.77-.85-.93-2.57,2.36-4.8,4.75-9.59,7.1-14.4,2.06-4.23,4.08-8.49,6.13-12.73.74-1.53.8-1.58,2.26-.81s3.52.95,4,2.35c.38,1.23-1.07,2.69-1.73,4-3.12,6.38-6.27,12.74-9.51,19.3l14.13,7.12a5.76,5.76,0,0,0,1.31-2.13q4.81-9.91,9.6-19.83c.85-1.76.89-1.8,2.63-.91,1.26.65,3.17.89,3.61,2.11s-.92,2.57-1.54,3.84c-3.18,6.53-6.42,13-9.59,19.45.49.86,1.25,1,1.87,1.3q6.25,3,12.53,6c1.6.76,1.65.75,2.45-.89q4.8-9.78,9.56-19.59c.25-.5.51-1,.71-1.52.38-1,.86-1.4,2-.77,1.38.8,2.85,1.42,4.51,2.24Z"/><path class="cls-1" d="M479.35,118.44c2.31-10.76,4.6-21.28,6.84-31.82,1.29-6.1,2.48-12.21,3.72-18.31.36-1.77.48-1.87,2.21-1.48q14.72,3.32,29.51,6.3a2.66,2.66,0,0,1,1.65.65c-.3,1.48-.57,3-.91,4.58s-.43,1.5-2,1.17q-11.13-2.39-22.24-4.8c-1.78-.38-1.81-.38-2.19,1.29-.95,4.13-1.82,8.27-2.83,12.38-.3,1.22-.09,1.65,1.21,1.91,7.43,1.5,14.84,3.1,22.27,4.66.39.09.79.12,1.18.21a.88.88,0,0,1,.75,1.22c-.31,1.32-.62,2.64-.85,4-.17,1-.52,1.32-1.61,1.06-4.19-1-8.41-1.88-12.62-2.78q-5-1.09-10.08-2.12c-1.81-.37-1.86-.34-2.22,1.35-1,4.84-2,9.7-3.08,14.53-.26,1.15.31,1.39,1.16,1.57,4.06.88,8.11,1.77,12.17,2.63,3.75.8,7.5,1.63,11.27,2.32,1.18.21,1.48.69,1.19,1.75-.42,1.53-.13,3.59-1.25,4.5s-2.87-.26-4.32-.56c-8.84-1.81-17.65-3.71-26.48-5.59C481.05,118.88,480.29,118.67,479.35,118.44Z"/><path class="cls-1" d="M339.22,94.66,361.52,89c.62-.16,1.25-.29,1.85-.5,1-.37,1.62-.21,1.85,1,.29,1.57.75,3.1,1.17,4.78-2.85,1-5.75,1.49-8.58,2.21-5.11,1.29-10.23,2.54-15.34,3.83-1.7.42-1.75.46-1.34,2.05,1.21,4.8,2.51,9.58,3.67,14.39.3,1.24.81,1.24,1.85,1,7.43-1.89,14.87-3.71,22.31-5.55.39-.1.77-.22,1.15-.33a1,1,0,0,1,1.4.8q.5,2.1,1.08,4.17c.22.81-.06,1.15-.86,1.33-2.88.66-5.75,1.37-8.62,2.09l-21.82,5.51c-1.77.44-1.77.41-2.19-1.34-3.76-15.93-7.68-31.82-11.9-47.64a3.24,3.24,0,0,0-.16-.7c-.65-1.29,0-1.6,1.17-1.88q14.88-3.67,29.74-7.45c1.23-.31,1.77,0,1.91,1.27.16,1.56,1.55,3.27.68,4.55-.76,1.11-2.77.93-4.22,1.3q-9.63,2.44-19.3,4.76c-1.09.26-1.51.61-1.23,1.75C336.93,85,338,89.68,339.22,94.66Z"/><path class="cls-1" d="M680.44,694.08c-1.63,1.71-3,3.11-4.37,4.6-.74.82-1.26.63-2,0-2.43-2.43-4.9-4.82-7.36-7.22q-8.09-7.86-16.17-15.7a21.28,21.28,0,0,1-6-9.14,17.71,17.71,0,0,1,1.05-12.84,28.24,28.24,0,0,1,12.59-13.38c7.72-4.12,15.31-3,21.88,3,2.83,2.58,5.5,5.35,8.27,8q8,7.62,16,15.21c1.4,1.34,1.57,1.23,0,2.74-1.31,1.25-2.28,2.86-4,3.71a31.55,31.55,0,0,1-3.8-3.6q-10.36-10-20.7-20c-2.85-2.75-6.11-4.63-10.27-4.3a7.54,7.54,0,0,0-1.65.23c-6.77,2.14-11.09,6.74-13.17,13.43a8.67,8.67,0,0,0,.88,6.51,19.92,19.92,0,0,0,4.23,5.47l22.31,21.43C678.9,692.75,679.57,693.31,680.44,694.08Z"/><path class="cls-1" d="M403.26,774.13c-.8,0-1.6,0-2.4,0-2.1-.06-2.09-.06-2.22,2q-.42,6.33-.88,12.67c-.12,1.74-.14,1.74-1.78,1.63-1.44-.11-2.87-.28-4.31-.29-1.16,0-1.46-.41-1.36-1.59.48-5.49.87-11,1.27-16.49q.89-12.56,1.74-25.11c.2-2.86.38-5.74.48-8.61,0-1.07.26-1.61,1.49-1.53,6,.41,12,.67,17.77,2.37.76.23,1.53.46,2.27.76,6.87,2.8,10.84,7.79,11.06,15.32.23,7.73-3.41,13.29-10.26,16.71C412.09,773.94,407.67,774.11,403.26,774.13Zm.29-6.09V768a26.72,26.72,0,0,0,3.35,0c4.47-.56,8.47-2.09,10.52-6.45,2.54-5.41,1.71-12.75-5.63-16.12a25.78,25.78,0,0,0-9.07-1.9c-1.61-.11-1.71-.08-1.85,1.58-.59,7.16-1.1,14.33-1.69,21.49-.1,1.23.42,1.53,1.5,1.48S402.59,768,403.55,768Z"/><path class="cls-1" d="M704.67,250.63l-13.92,8.73c-1.19-1.9-2.27-3.66-3.39-5.4-.44-.67-.43-1.13.32-1.54s1.65-1,2.47-1.48q20-12.16,39.61-24.79c.41-.26.82-.5,1.21-.79.7-.51,1.2-.52,1.73.32,3.09,4.94,6.33,9.8,8.39,15.3a19.84,19.84,0,0,1,1.39,10.56,17.52,17.52,0,0,1-17.69,14.12,19,19,0,0,1-12.46-5.4,45.43,45.43,0,0,1-6.09-7.39C705.75,252.15,705.24,251.44,704.67,250.63Zm5.18-3.39c.49.81.79,1.37,1.15,1.89,2.12,3.12,4.34,6.15,7.78,8,4,2.12,7.82,1.76,11.55-.64s5.65-5.72,5.42-10.24c-.21-4.19-2.34-7.56-4.36-11-.44-.75-.91-.72-1.56-.31-1.21.77-2.45,1.49-3.68,2.25Z"/><path class="cls-1" d="M111.67,326.17a16.94,16.94,0,0,0,4,1.57c3.23,1.15,6.47,2.3,9.75,3.29,1.77.53,1.79,1,1.22,2.33s-.87,2.57-1.33,3.84c-.56,1.54-.58,1.55-2.2,1-3.16-1.12-6.3-2.27-9.46-3.38-12.34-4.34-24.71-8.6-37.15-12.67-.45-.15-.9-.33-1.36-.46s-.71-.58-.55-1.1c.28-.92.6-1.82.9-2.73a79.51,79.51,0,0,1,4.79-12,29.18,29.18,0,0,1,2.91-4.67c3.87-4.95,8.85-7.55,15.22-6.77,6.89.84,11.85,4.45,14.59,10.91,1.79,4.21,1.66,8.57.79,12.95A71.15,71.15,0,0,1,111.67,326.17Zm-3.54-11.3c0-6.43-2.77-10.41-8.18-12.19s-10-.1-13.38,4.68a15.8,15.8,0,0,0-1.44,2.49q-1,2.28-1.93,4.64c-.65,1.72-.62,1.75,1,2.36,2.4.89,4.8,1.77,7.21,2.62,4.37,1.52,8.76,3,13.13,4.53.74.26,1.35.4,1.66-.59A38,38,0,0,0,108.13,314.87Z"/><path class="cls-1" d="M83.38,542.76c.65,2.08,1.21,4,1.82,5.84a29.32,29.32,0,0,0,3.07,7,13.19,13.19,0,0,0,3,3.43c3.87,3,8.63,1.6,10.28-3a31.47,31.47,0,0,0,1.42-8,47.79,47.79,0,0,1,1.39-8.74,13.8,13.8,0,0,1,22-7.11,25.58,25.58,0,0,1,6.37,7.41c2.41,4.1,3.81,8.6,5.27,13.08a1.26,1.26,0,0,1-.91,1.83c-1.56.58-3.18,2.16-4.55,1.74s-1.15-2.75-1.64-4.23a41.63,41.63,0,0,0-4.9-10.62,13.93,13.93,0,0,0-2.66-3.07c-4.07-3.36-9.39-2-11.29,3a25.93,25.93,0,0,0-1.31,7.52,58.9,58.9,0,0,1-1.27,8.76c-2.15,9.64-13.58,13.63-21.88,7.16a22.69,22.69,0,0,1-6.19-8.14,77.61,77.61,0,0,1-3.6-9.64c-.26-.79-.28-1.36.59-1.76C80,544.48,81.59,543.65,83.38,542.76Z"/><path class="cls-1" d="M493,779.31c2.36-.44,4.64-.82,6.9-1.28a35.52,35.52,0,0,0,9.21-3.28,15.33,15.33,0,0,0,3-2c4.58-4,2.2-10-1.71-11.73a32.14,32.14,0,0,0-7.1-2.09,47.06,47.06,0,0,1-9-2.49A13,13,0,0,1,486,742.48a14.31,14.31,0,0,1,5.77-9.86,25.1,25.1,0,0,1,7.87-4,96.64,96.64,0,0,1,9.55-2.24,1.14,1.14,0,0,1,1.58.91c.39,1.22.86,2.41,1.27,3.62.59,1.74.58,1.77-1.32,2a58.34,58.34,0,0,0-7.75,1.53,17.57,17.57,0,0,0-6.65,3.18c-4.47,3.62-3.8,9.18,1.4,11.55a34.14,34.14,0,0,0,6.87,2c3.27.73,6.58,1.34,9.61,2.87a13.25,13.25,0,0,1,7.79,13.2,13.88,13.88,0,0,1-4.86,9.83,27.77,27.77,0,0,1-11.26,6.13,88.92,88.92,0,0,1-9.57,2.17c-1.08.2-1.65.06-1.9-1C494,782.69,493.14,781.11,493,779.31Z"/><path class="cls-1" d="M697.36,599.25c-1.8,2.3-3.44,4.35-5,6.45a32.72,32.72,0,0,0-4.32,8,11.35,11.35,0,0,0-.87,3.72,6.89,6.89,0,0,0,8.81,7.22,28.67,28.67,0,0,0,7.19-3.22,39.17,39.17,0,0,1,9.36-4.2,13.19,13.19,0,0,1,16.42,10.92,17.41,17.41,0,0,1-.76,8.26c-1.76,5.27-5.22,9.47-8.55,13.76a1,1,0,0,1-1.45.25l-4.89-2.8a6.81,6.81,0,0,1,1.55-2.12,41.3,41.3,0,0,0,6.22-9.06,11.49,11.49,0,0,0,1.2-5.56,6.2,6.2,0,0,0-7.15-6,15.34,15.34,0,0,0-5.18,1.79c-2.78,1.38-5.51,2.88-8.3,4.26a19.32,19.32,0,0,1-6.65,1.84c-6.85.72-14.24-4.89-14.55-13.32a23.81,23.81,0,0,1,2.83-11.51A65.85,65.85,0,0,1,691,596.69a1.16,1.16,0,0,1,1.81-.33C694.23,597.32,695.73,598.23,697.36,599.25Z"/><path class="cls-1" d="M762.86,415l-20.08.45c-.32,0-.63.06-.95.07-1.8,0-1.82,0-1.87-1.84-.05-1.35,0-2.72-.08-4.07s.41-1.62,1.64-1.62c6.31,0,12.63,0,18.94-.13,9.75-.19,19.5-.48,29.25-.72.55,0,1.11,0,1.67,0,1.74,0,1.76,0,1.8,1.66,0,1.12,0,2.23,0,3.35,0,8.24.21,16.47.45,24.7,0,.8,0,1.6,0,2.39s-.31,1-1,1h-.24c-1.67-.1-3.74.7-4.9-.25s-.35-3-.38-4.6c-.13-6.31-.18-12.63-.28-18.94,0-1.66,0-1.68-1.78-1.68q-7.08,0-14.15.07c-1.65,0-1.72,0-1.69,1.75.13,7,.29,13.9.44,20.85,0,.24,0,.48,0,.72,0,2.55-.12,2.06-2.07,2.09-1.34,0-3,.57-3.94-.22s-.35-2.56-.38-3.88c-.15-6.64-.25-13.27-.38-19.9C763,415.88,762.92,415.57,762.86,415Z"/><path class="cls-1" d="M741.2,369.4c-1.83.69-3.7.57-5.47,1-.88.22-1.07-.35-1.26-1a59.93,59.93,0,0,1-1.56-7.74,41.32,41.32,0,0,1,1.22-18.72c3.57-10.91,12.4-16.9,23.16-17.33,7.61-.3,14,2.86,19.1,8.45,5.59,6.1,8.9,13.37,10.83,21.34.22.9.06,1.35-.8,1.62-1.37.43-2.75.84-4.08,1.37-1,.38-1.32,0-1.51-.87a41.26,41.26,0,0,0-2.09-6.61A36.71,36.71,0,0,0,773,340.72,19.6,19.6,0,0,0,760,333.45a18.21,18.21,0,0,0-18.57,10.81c-2.44,5.78-2.47,11.81-1.69,17.91C740,364.6,740.64,367,741.2,369.4Z"/><path class="cls-1" d="M736.35,507.93a4.62,4.62,0,0,1-2.14-.45c-1.28-.41-3.06-.32-3.72-1.34-.82-1.26.17-2.92.5-4.36a48,48,0,0,1,7.2-17.12c3.79-5.4,8.62-9.43,15.18-11,11-2.59,23,1.94,28.38,13.43,3.34,7.08,3.82,14.62,3.09,22.28-.18,1.82-.57,3.63-.85,5.44-.14.89-.62,1.26-1.5,1-1.63-.44-3.8.27-4.84-.85s.16-3.16.32-4.79c.49-5,.69-9.91-.65-14.76-2-7.32-6.43-12.5-14.05-14.21-6.32-1.41-12,0-16.78,4.66s-7.23,10.46-8.93,16.71C737.09,504.37,736.75,506.17,736.35,507.93Z"/><path class="cls-1" d="M210,719.05a6.21,6.21,0,0,1,2.23,1.18,44.09,44.09,0,0,0,16,6.22,18.81,18.81,0,0,0,21.95-17,17.68,17.68,0,0,0-2.18-9.69c-3.1-6.2-8-10.66-13.64-14.51-.72-.49-1.47-1-2.32-1.51a46.18,46.18,0,0,1,3.42-4.55c.43-.6.86-.5,1.41-.14,7.14,4.6,13.51,10,17.61,17.6,5.63,10.45,3.88,22.28-4.57,30.34-5.33,5.08-11.84,7.09-19.12,6.61-8.27-.55-15.67-3.56-22.53-8.06-1.34-.87-1.33-.91-.51-2.42S209.27,720.4,210,719.05Z"/><path class="cls-1" d="M372.82,782.15c-.59,1.94-1.12,3.6-1.61,5.28-.23.8-.73.93-1.46.77-9.2-2-17.78-5.13-24.64-12-11.81-11.76-8.49-33,7.86-40a39.2,39.2,0,0,1,15.2-2.92,55.37,55.37,0,0,1,11.9,1.27c1.07.23,1.48.67,1.26,1.79s-.38,2.53-.5,3.8c-.1,1-.46,1.34-1.56,1.09a47.47,47.47,0,0,0-13.34-1.07,22.91,22.91,0,0,0-13.7,5.07c-7.45,6.19-8.78,18.33-2,25.78a30.91,30.91,0,0,0,10.49,7.44A54.27,54.27,0,0,0,372.82,782.15Z"/><path class="cls-1" d="M450,112.15C450.9,101.9,451.83,92,452.73,82c.36-4,.59-8,1-11.94.12-1.27-.42-1.46-1.46-1.54-5.17-.41-10.35-.88-15.52-1.3-2.16-.18-2.16-.15-1.95-2.21.1-1,.26-2.06.29-3.1s.37-1.38,1.46-1.27c5.08.52,10.18,1,15.27,1.41,8.76.77,17.51,1.51,26.27,2.27.4,0,.8.07,1.2.06,1.1,0,1.62.41,1.45,1.59a27,27,0,0,0-.35,3.58c0,1.13-.4,1.54-1.59,1.41-3.73-.41-7.47-.74-11.21-1.09-1.67-.15-3.35-.21-5-.45-1.24-.17-1.47.39-1.56,1.45-.61,6.84-1.3,13.68-1.9,20.52q-1,11.58-1.88,23.18c-.09,1-.44,1.37-1.47,1.24-1.67-.21-3.34-.32-5-.44-.92-.06-1.26-.46-1-1.4A13.86,13.86,0,0,0,450,112.15Z"/><path class="cls-1" d="M649.29,198.38c2.67,2.77,5.09,5.31,7.53,7.82,3.12,3.2,6.23,6.43,9.42,9.56.92.91.93,1.48,0,2.28a23,23,0,0,0-2.4,2.34c-.82.92-1.38.93-2.27,0-3.08-3.35-6.26-6.61-9.42-9.89q-5.49-5.69-11-11.34c-1.51-1.54-1.59-1.35,0-2.89q13.35-12.75,26.65-25.53c3-2.94,6-6,9-8.93,1.16-1.14,1.18-1.14,2.37.06,1,1,1.9,1.94,2.84,2.93,1.13,1.18,1.52,1-.15,2.56q-15.44,14.53-30.56,29.41C650.73,197.29,650.06,197.75,649.29,198.38Z"/><path class="cls-1" d="M577.48,729.11a12.11,12.11,0,1,1-12.35-12A12.16,12.16,0,0,1,577.48,729.11Z"/><path class="cls-1" d="M297.89,721.85a12.06,12.06,0,1,1-12.31,12A12,12,0,0,1,297.89,721.85Z"/><path class="cls-1" d="M72.53,524.72c-.64.17-.91-.23-1-.72-.52-1.85-1-3.7-1.5-5.55-.21-.79.31-.92.9-1.07,2.7-.68,5.41-1.37,8.11-2.07q20.27-5.25,40.42-10.91c1.89-.53,1.9-.52,2.4,1.27.35,1.23.68,2.46,1,3.7.45,1.75.44,1.76-1.31,2.22-7.26,1.88-14.53,3.71-21.77,5.65-8.7,2.33-17.38,4.75-26.07,7.13Z"/><path class="cls-1" d="M741.26,449.88c7.08.66,14.17,1.33,21.26,1.95s14,1.2,21,1.78c2.55.21,5.1.38,7.66.54,1,.06,1.44.38,1.29,1.48-.21,1.5-.29,3-.37,4.54-.07,1.15-.41,1.7-1.76,1.54-5.24-.59-10.49-1.09-15.75-1.58q-9.68-.88-19.35-1.71c-4.86-.4-9.73-.71-14.59-1.09-1.82-.15-1.84-.18-1.74-2,.08-1.28.29-2.55.35-3.82C739.37,449.34,739.75,449.74,741.26,449.88Z"/><path class="cls-1" d="M143.8,565.52c.92,1.89,1.69,3.64,2.63,5.3.66,1.17.28,1.61-.81,2.11-5.22,2.42-10.42,4.87-15.58,7.4-9.75,4.77-19.48,9.6-29.21,14.41-1.68.83-1.57,1.22-2.59-.86-.56-1.15-1.13-2.3-1.67-3.46-.74-1.57-.75-1.61.71-2.29q23-10.78,45.63-22.25C143.12,565.77,143.34,565.7,143.8,565.52Z"/><path class="cls-1" d="M790.39,381a7.1,7.1,0,0,0,.18.94c.32,1-.22,1.28-1.06,1.39-3,.39-6,.8-9,1.18q-16.51,2.12-33,4.63c-2.76.41-5.53.77-8.28,1.25-1,.18-1.48-.15-1.6-1.13-.19-1.59-.4-3.17-.64-4.75-.15-1,.09-1.41,1.18-1.53,4.68-.55,9.35-1.17,14-1.83q15.88-2.25,31.76-4.56c1.51-.21,3-.45,4.5-.7.86-.14,1.34.09,1.42,1.07.11,1.35.36,2.69.55,4Z"/><path class="cls-1" d="M802.29,390.7a6.78,6.78,0,0,1-1.58-2.23c-2.64-4.38-5.23-8.79-7.89-13.15-.59-1-.69-1.55.4-2.32,3.18-2.24,3.14-2.3,5.33,1,2.64,4,5.25,8,8,12,.7,1,.7,1.63-.44,2.27C804.75,389,803.53,389.89,802.29,390.7Z"/></svg>