<?xml version="1.0" encoding="UTF-8" standalone="no"?>
<svg
   xmlns:dc="http://purl.org/dc/elements/1.1/"
   xmlns:cc="http://creativecommons.org/ns#"
   xmlns:rdf="http://www.w3.org/1999/02/22-rdf-syntax-ns#"
   xmlns:svg="http://www.w3.org/2000/svg"
   xmlns="http://www.w3.org/2000/svg"
   viewBox="0 0 368.48666 325.37601"
   height="325.37601"
   width="368.48666"
   xml:space="preserve"
   id="svg2"
   version="1.1"><metadata
     id="metadata8"><rdf:RDF><cc:Work
         rdf:about=""><dc:format>image/svg+xml</dc:format><dc:type
           rdf:resource="http://purl.org/dc/dcmitype/StillImage" /></cc:Work></rdf:RDF></metadata><defs
     id="defs6"><clipPath
       id="clipPath20"
       clipPathUnits="userSpaceOnUse"><path
         id="path18"
         d="M 0,244.032 H 276.365 V 0 H 0 Z" /></clipPath></defs><g
     transform="matrix(1.3333333,0,0,-1.3333333,0,325.376)"
     id="g10"><path
       id="path12"
       style="fill:#00aeef;fill-opacity:1;fill-rule:nonzero;stroke:none"
       d="M 238.873,86.038 H 37.041 v 1.622 h 201.832 z" /><g
       id="g14"><g
         clip-path="url(#clipPath20)"
         id="g16"><g
           transform="translate(46.9294,71.0587)"
           id="g22"><path
             id="path24"
             style="fill:#00aeef;fill-opacity:1;fill-rule:nonzero;stroke:none"
             d="m 0,0 v -8.514 c 0,-0.744 -0.124,-1.402 -0.372,-1.972 -0.248,-0.569 -0.591,-1.046 -1.028,-1.43 -0.437,-0.385 -0.959,-0.673 -1.564,-0.869 -0.605,-0.194 -1.265,-0.292 -1.98,-0.292 -0.721,0 -1.384,0.098 -1.989,0.292 -0.606,0.196 -1.127,0.484 -1.564,0.869 -0.437,0.384 -0.778,0.861 -1.024,1.43 -0.244,0.57 -0.367,1.228 -0.367,1.972 V 0 h 2.658 v -8.514 c 0,-0.845 0.202,-1.461 0.607,-1.847 0.404,-0.387 0.964,-0.58 1.679,-0.58 0.72,0 1.28,0.193 1.679,0.58 0.398,0.386 0.598,1.002 0.598,1.847 l 0,8.514 z" /></g><g
           transform="translate(51.2973,67.746)"
           id="g26"><path
             id="path28"
             style="fill:#00aeef;fill-opacity:1;fill-rule:nonzero;stroke:none"
             d="m 0,0 0.08,-1.108 c 0.33,0.413 0.729,0.731 1.196,0.953 0.466,0.221 0.986,0.332 1.559,0.332 0.455,0 0.868,-0.064 1.241,-0.191 0.372,-0.126 0.691,-0.335 0.956,-0.624 0.266,-0.29 0.472,-0.667 0.616,-1.135 0.145,-0.466 0.217,-1.039 0.217,-1.718 v -6.096 h -2.56 v 6.113 c 0,0.308 -0.034,0.562 -0.102,0.762 -0.068,0.201 -0.167,0.36 -0.297,0.479 -0.13,0.118 -0.289,0.202 -0.478,0.252 -0.19,0.05 -0.408,0.076 -0.656,0.076 -0.378,0 -0.702,-0.084 -0.97,-0.249 C 0.533,-2.318 0.316,-2.543 0.151,-2.827 v -6.76 H -2.41 V 0 Z" /></g><path
           id="path30"
           style="fill:#00aeef;fill-opacity:1;fill-rule:nonzero;stroke:none"
           d="m 61.805,58.159 h -2.569 v 9.587 h 2.569 z m -2.72,12.067 c 0,0.384 0.129,0.7 0.386,0.949 0.257,0.248 0.607,0.372 1.049,0.372 0.219,0 0.417,-0.033 0.594,-0.098 0.178,-0.065 0.328,-0.157 0.452,-0.274 0.124,-0.119 0.22,-0.26 0.288,-0.422 0.068,-0.163 0.102,-0.338 0.102,-0.527 0,-0.195 -0.034,-0.374 -0.102,-0.536 -0.068,-0.163 -0.164,-0.303 -0.288,-0.421 -0.124,-0.117 -0.274,-0.21 -0.452,-0.275 -0.177,-0.064 -0.375,-0.097 -0.594,-0.097 -0.218,0 -0.416,0.033 -0.593,0.097 -0.177,0.065 -0.328,0.158 -0.452,0.275 -0.124,0.118 -0.22,0.258 -0.288,0.421 -0.068,0.162 -0.102,0.341 -0.102,0.536" /><g
           transform="translate(66.9791,70.1027)"
           id="g32"><path
             id="path34"
             style="fill:#00aeef;fill-opacity:1;fill-rule:nonzero;stroke:none"
             d="M 0,0 V -2.357 H 1.639 V -4.235 H 0 v -4.784 c 0,-0.202 0.021,-0.368 0.062,-0.497 0.042,-0.13 0.103,-0.232 0.186,-0.305 0.083,-0.075 0.185,-0.125 0.306,-0.152 0.121,-0.026 0.264,-0.039 0.43,-0.039 0.153,0 0.293,0.005 0.421,0.018 0.126,0.012 0.237,0.026 0.332,0.044 v -1.941 c -0.213,-0.064 -0.445,-0.119 -0.696,-0.163 -0.251,-0.045 -0.536,-0.067 -0.855,-0.067 -0.419,0 -0.797,0.052 -1.134,0.155 -0.336,0.103 -0.624,0.267 -0.864,0.492 -0.239,0.224 -0.423,0.517 -0.554,0.877 -0.13,0.36 -0.194,0.794 -0.194,1.303 v 5.059 h -1.4 v 1.878 h 1.4 l 0,2.357 z" /></g><g
           transform="translate(74.165,65.8496)"
           id="g36"><path
             id="path38"
             style="fill:#00aeef;fill-opacity:1;fill-rule:nonzero;stroke:none"
             d="m 0,0 c -0.278,0 -0.522,-0.049 -0.731,-0.146 -0.21,-0.097 -0.39,-0.234 -0.541,-0.408 -0.15,-0.174 -0.273,-0.382 -0.367,-0.625 -0.095,-0.242 -0.163,-0.51 -0.204,-0.806 h 3.562 v 0.203 C 1.713,-1.527 1.676,-1.291 1.608,-1.072 1.54,-0.854 1.436,-0.665 1.298,-0.506 1.159,-0.346 0.982,-0.222 0.766,-0.133 0.551,-0.044 0.295,0 0,0 m 0.292,-7.868 c -0.744,0 -1.41,0.122 -1.998,0.363 -0.587,0.242 -1.087,0.573 -1.497,0.992 -0.411,0.42 -0.724,0.911 -0.939,1.476 -0.216,0.564 -0.324,1.168 -0.324,1.812 v 0.345 c 0,0.726 0.105,1.393 0.315,1.999 0.21,0.604 0.508,1.125 0.895,1.563 0.386,0.437 0.856,0.779 1.409,1.023 0.552,0.245 1.17,0.368 1.856,0.368 C 0.7,2.073 1.308,1.959 1.834,1.732 2.36,1.505 2.801,1.186 3.159,0.775 3.516,0.364 3.784,-0.131 3.964,-0.709 4.145,-1.288 4.235,-1.932 4.235,-2.64 V -3.73 H -1.87 c 0.041,-0.313 0.126,-0.597 0.253,-0.851 0.127,-0.254 0.289,-0.471 0.487,-0.651 0.198,-0.18 0.43,-0.321 0.696,-0.421 0.266,-0.101 0.564,-0.151 0.894,-0.151 0.467,0 0.898,0.087 1.294,0.262 0.396,0.174 0.736,0.444 1.019,0.811 l 1.258,-1.41 C 3.878,-6.359 3.686,-6.572 3.455,-6.779 3.225,-6.985 2.953,-7.169 2.64,-7.332 2.327,-7.494 1.974,-7.625 1.581,-7.722 1.189,-7.819 0.759,-7.868 0.292,-7.868" /></g><g
           transform="translate(82.015,62.8372)"
           id="g40"><path
             id="path42"
             style="fill:#00aeef;fill-opacity:1;fill-rule:nonzero;stroke:none"
             d="m 0,0 c 0,-0.39 0.032,-0.753 0.097,-1.09 0.065,-0.336 0.17,-0.631 0.315,-0.882 0.145,-0.25 0.333,-0.449 0.567,-0.593 0.233,-0.145 0.518,-0.218 0.855,-0.218 0.413,0 0.757,0.09 1.032,0.266 0.275,0.178 0.489,0.422 0.643,0.735 V 2.002 C 3.355,2.321 3.141,2.568 2.866,2.742 2.591,2.916 2.253,3.004 1.852,3.004 1.515,3.004 1.228,2.931 0.992,2.787 0.756,2.641 0.565,2.442 0.421,2.188 0.276,1.935 0.17,1.636 0.102,1.294 0.034,0.951 0,0.581 0,0.186 Z m -2.56,0.186 c 0,0.727 0.084,1.391 0.252,1.993 0.168,0.603 0.412,1.12 0.731,1.551 0.319,0.431 0.712,0.765 1.178,1.001 0.467,0.237 0.998,0.354 1.595,0.354 0.49,0 0.926,-0.091 1.307,-0.274 C 2.884,4.628 3.219,4.371 3.509,4.04 V 8.931 H 6.078 V -4.678 H 3.765 L 3.642,-3.659 C 3.34,-4.037 2.989,-4.332 2.587,-4.541 2.185,-4.751 1.716,-4.856 1.178,-4.856 c -0.591,0 -1.118,0.123 -1.581,0.368 -0.464,0.245 -0.855,0.583 -1.174,1.014 -0.319,0.432 -0.563,0.945 -0.731,1.537 C -2.476,-1.343 -2.56,-0.697 -2.56,0 Z" /></g><g
           transform="translate(105.2552,58.1591)"
           id="g44"><path
             id="path46"
             style="fill:#00aeef;fill-opacity:1;fill-rule:nonzero;stroke:none"
             d="M 0,0 H -2.658 L -7.832,8.487 V 0 h -2.658 v 12.9 h 2.658 L -2.649,4.394 V 12.9 H 0 Z" /></g><g
           transform="translate(110.8456,59.9397)"
           id="g48"><path
             id="path50"
             style="fill:#00aeef;fill-opacity:1;fill-rule:nonzero;stroke:none"
             d="m 0,0 c 0.218,0 0.421,0.027 0.607,0.079 0.186,0.054 0.352,0.123 0.5,0.209 0.148,0.086 0.276,0.184 0.385,0.297 0.11,0.112 0.197,0.227 0.262,0.346 V 2.579 H 0.7 C 0.363,2.579 0.071,2.541 -0.178,2.468 -0.426,2.394 -0.629,2.29 -0.789,2.157 -0.948,2.025 -1.066,1.868 -1.143,1.688 -1.22,1.508 -1.258,1.311 -1.258,1.098 -1.258,0.779 -1.146,0.517 -0.922,0.31 -0.697,0.103 -0.39,0 0,0 M 2.117,-1.781 C 1.999,-1.551 1.914,-1.264 1.861,-0.922 1.6,-1.211 1.274,-1.456 0.881,-1.657 c -0.393,-0.2 -0.872,-0.301 -1.44,-0.301 -0.46,0 -0.89,0.07 -1.289,0.213 -0.398,0.141 -0.744,0.339 -1.036,0.594 -0.293,0.253 -0.522,0.556 -0.687,0.908 -0.165,0.351 -0.248,0.736 -0.248,1.156 0,0.501 0.093,0.948 0.279,1.338 0.186,0.389 0.465,0.72 0.837,0.992 0.373,0.272 0.835,0.478 1.387,0.62 0.552,0.142 1.195,0.212 1.927,0.212 h 1.143 v 0.55 C 1.754,5.068 1.64,5.422 1.413,5.688 1.186,5.954 0.826,6.087 0.337,6.087 -0.095,6.087 -0.433,5.984 -0.678,5.776 -0.923,5.57 -1.046,5.287 -1.046,4.926 h -2.56 c 0,0.414 0.095,0.806 0.288,1.178 0.192,0.373 0.465,0.697 0.819,0.975 0.355,0.278 0.783,0.498 1.285,0.661 0.502,0.161 1.063,0.243 1.683,0.243 0.555,0 1.07,-0.071 1.542,-0.213 C 2.483,7.629 2.891,7.418 3.234,7.137 3.576,6.856 3.844,6.505 4.036,6.083 4.228,5.661 4.323,5.169 4.323,4.607 V 0.55 c 0,-0.272 0.01,-0.516 0.027,-0.732 0.018,-0.216 0.041,-0.41 0.071,-0.585 0.029,-0.173 0.068,-0.33 0.115,-0.469 0.047,-0.139 0.103,-0.27 0.169,-0.394 v -0.151 z" /></g><g
           transform="translate(120.2018,70.1027)"
           id="g52"><path
             id="path54"
             style="fill:#00aeef;fill-opacity:1;fill-rule:nonzero;stroke:none"
             d="M 0,0 V -2.357 H 1.639 V -4.235 H 0 v -4.784 c 0,-0.202 0.021,-0.368 0.062,-0.497 0.042,-0.13 0.103,-0.232 0.186,-0.305 0.083,-0.075 0.185,-0.125 0.306,-0.152 0.121,-0.026 0.264,-0.039 0.43,-0.039 0.153,0 0.293,0.005 0.421,0.018 0.126,0.012 0.237,0.026 0.332,0.044 v -1.941 c -0.213,-0.064 -0.445,-0.119 -0.696,-0.163 -0.251,-0.045 -0.536,-0.067 -0.855,-0.067 -0.419,0 -0.797,0.052 -1.134,0.155 -0.336,0.103 -0.624,0.267 -0.864,0.492 -0.239,0.224 -0.423,0.517 -0.554,0.877 -0.13,0.36 -0.194,0.794 -0.194,1.303 v 5.059 h -1.4 v 1.878 h 1.4 l 0,2.357 z" /></g><path
           id="path56"
           style="fill:#00aeef;fill-opacity:1;fill-rule:nonzero;stroke:none"
           d="m 125.97,58.159 h -2.569 v 9.587 h 2.569 z m -2.72,12.067 c 0,0.384 0.129,0.7 0.385,0.949 0.257,0.248 0.607,0.372 1.05,0.372 0.219,0 0.417,-0.033 0.594,-0.098 0.177,-0.065 0.328,-0.157 0.452,-0.274 0.124,-0.119 0.22,-0.26 0.287,-0.422 0.069,-0.163 0.103,-0.338 0.103,-0.527 0,-0.195 -0.034,-0.374 -0.103,-0.536 -0.067,-0.163 -0.163,-0.303 -0.287,-0.421 -0.124,-0.117 -0.275,-0.21 -0.452,-0.275 -0.177,-0.064 -0.375,-0.097 -0.594,-0.097 -0.218,0 -0.416,0.033 -0.593,0.097 -0.178,0.065 -0.328,0.158 -0.452,0.275 -0.125,0.118 -0.22,0.258 -0.288,0.421 -0.068,0.162 -0.102,0.341 -0.102,0.536" /><g
           transform="translate(130.2401,62.8549)"
           id="g58"><path
             id="path60"
             style="fill:#00aeef;fill-opacity:1;fill-rule:nonzero;stroke:none"
             d="m 0,0 c 0,-0.39 0.035,-0.757 0.106,-1.098 0.071,-0.344 0.185,-0.64 0.342,-0.892 0.156,-0.25 0.36,-0.45 0.611,-0.597 0.251,-0.148 0.559,-0.222 0.926,-0.222 0.354,0 0.657,0.074 0.908,0.222 0.251,0.147 0.456,0.347 0.616,0.597 0.159,0.252 0.274,0.548 0.345,0.892 C 3.925,-0.757 3.961,-0.39 3.961,0 V 0.186 C 3.961,0.563 3.925,0.923 3.854,1.262 3.783,1.602 3.668,1.9 3.509,2.157 3.349,2.415 3.142,2.618 2.888,2.769 2.634,2.919 2.327,2.995 1.967,2.995 1.613,2.995 1.31,2.919 1.059,2.769 0.808,2.618 0.604,2.415 0.448,2.157 0.291,1.9 0.177,1.602 0.106,1.262 0.035,0.923 0,0.563 0,0.186 Z m -2.56,0.186 c 0,0.696 0.1,1.343 0.3,1.94 0.201,0.597 0.494,1.112 0.878,1.546 0.384,0.435 0.858,0.775 1.422,1.024 0.564,0.248 1.206,0.372 1.927,0.372 0.726,0 1.373,-0.124 1.94,-0.372 C 4.474,4.447 4.951,4.107 5.338,3.672 5.725,3.238 6.019,2.723 6.22,2.126 6.42,1.529 6.521,0.882 6.521,0.186 V 0 C 6.521,-0.703 6.42,-1.352 6.22,-1.944 6.019,-2.538 5.725,-3.053 5.338,-3.486 4.951,-3.92 4.477,-4.261 3.916,-4.505 3.355,-4.751 2.711,-4.873 1.985,-4.873 c -0.727,0 -1.373,0.122 -1.936,0.368 -0.564,0.244 -1.04,0.585 -1.427,1.019 -0.387,0.433 -0.681,0.948 -0.882,1.542 -0.2,0.592 -0.3,1.241 -0.3,1.944 z" /></g><g
           transform="translate(140.6951,67.746)"
           id="g62"><path
             id="path64"
             style="fill:#00aeef;fill-opacity:1;fill-rule:nonzero;stroke:none"
             d="m 0,0 0.08,-1.108 c 0.33,0.413 0.729,0.731 1.196,0.953 0.466,0.221 0.986,0.332 1.559,0.332 0.455,0 0.868,-0.064 1.241,-0.191 0.372,-0.126 0.691,-0.335 0.956,-0.624 0.266,-0.29 0.472,-0.667 0.616,-1.135 0.145,-0.466 0.217,-1.039 0.217,-1.718 v -6.096 h -2.56 v 6.113 c 0,0.308 -0.034,0.562 -0.102,0.762 -0.068,0.201 -0.167,0.36 -0.297,0.479 -0.13,0.118 -0.289,0.202 -0.478,0.252 -0.19,0.05 -0.408,0.076 -0.656,0.076 -0.378,0 -0.702,-0.084 -0.97,-0.249 C 0.533,-2.318 0.316,-2.543 0.151,-2.827 v -6.76 H -2.41 V 0 Z" /></g><g
           transform="translate(153.6928,60.8083)"
           id="g66"><path
             id="path68"
             style="fill:#00aeef;fill-opacity:1;fill-rule:nonzero;stroke:none"
             d="m 0,0 c 0,0.135 -0.027,0.259 -0.079,0.372 -0.054,0.112 -0.155,0.217 -0.302,0.314 -0.148,0.098 -0.349,0.191 -0.603,0.28 -0.253,0.088 -0.581,0.174 -0.983,0.256 -0.49,0.107 -0.943,0.24 -1.36,0.4 -0.416,0.159 -0.777,0.357 -1.081,0.592 -0.304,0.237 -0.542,0.512 -0.713,0.825 -0.172,0.313 -0.257,0.676 -0.257,1.089 0,0.402 0.087,0.783 0.261,1.144 0.174,0.36 0.426,0.677 0.754,0.952 0.327,0.275 0.729,0.492 1.204,0.651 0.476,0.16 1.012,0.239 1.609,0.239 0.619,0 1.178,-0.076 1.674,-0.23 C 0.62,6.73 1.041,6.517 1.386,6.242 1.732,5.967 1.998,5.641 2.184,5.262 2.37,4.884 2.463,4.471 2.463,4.022 h -2.561 c 0,0.367 -0.117,0.669 -0.354,0.908 -0.236,0.24 -0.605,0.36 -1.107,0.36 -0.432,0 -0.765,-0.099 -1.001,-0.293 -0.237,-0.195 -0.355,-0.444 -0.355,-0.745 0,-0.141 0.031,-0.267 0.093,-0.376 0.062,-0.11 0.162,-0.21 0.301,-0.301 0.139,-0.091 0.322,-0.176 0.55,-0.252 C -1.744,3.245 -1.465,3.174 -1.134,3.11 -0.614,3.009 -0.133,2.885 0.31,2.738 0.753,2.589 1.136,2.399 1.458,2.166 1.78,1.933 2.032,1.649 2.215,1.315 2.398,0.982 2.49,0.578 2.49,0.106 2.49,-0.319 2.395,-0.711 2.206,-1.068 2.017,-1.425 1.747,-1.734 1.395,-1.994 1.044,-2.254 0.62,-2.458 0.124,-2.605 c -0.496,-0.147 -1.052,-0.222 -1.666,-0.222 -0.673,0 -1.267,0.095 -1.781,0.284 -0.513,0.189 -0.946,0.437 -1.298,0.744 -0.351,0.307 -0.615,0.653 -0.792,1.036 -0.177,0.385 -0.266,0.772 -0.266,1.162 h 2.428 c 0.011,-0.249 0.066,-0.463 0.164,-0.643 0.097,-0.18 0.225,-0.326 0.385,-0.438 0.159,-0.113 0.344,-0.196 0.553,-0.249 0.21,-0.053 0.43,-0.079 0.66,-0.079 0.491,0 0.861,0.092 1.113,0.279 C -0.126,-0.545 0,-0.301 0,0" /></g><g
           transform="translate(44.9266,43.0118)"
           id="g70"><path
             id="path72"
             style="fill:#00aeef;fill-opacity:1;fill-rule:nonzero;stroke:none"
             d="M 0,0 H -5.103 V -3.455 H 0.886 V -5.591 H -7.761 V 7.31 h 8.63 V 5.156 H -5.103 V 2.082 H 0 Z" /></g><g
           transform="translate(49.5605,47.0077)"
           id="g74"><path
             id="path76"
             style="fill:#00aeef;fill-opacity:1;fill-rule:nonzero;stroke:none"
             d="m 0,0 0.08,-1.107 c 0.33,0.413 0.729,0.73 1.196,0.952 0.466,0.222 0.986,0.333 1.559,0.333 0.455,0 0.868,-0.064 1.241,-0.192 0.372,-0.126 0.691,-0.334 0.956,-0.624 0.266,-0.29 0.472,-0.667 0.616,-1.134 0.145,-0.467 0.217,-1.04 0.217,-1.718 v -6.097 h -2.56 v 6.114 c 0,0.307 -0.034,0.561 -0.102,0.762 -0.068,0.2 -0.167,0.36 -0.297,0.478 -0.13,0.119 -0.289,0.202 -0.478,0.253 -0.19,0.05 -0.408,0.075 -0.656,0.075 -0.378,0 -0.702,-0.083 -0.97,-0.248 C 0.533,-2.318 0.316,-2.543 0.151,-2.826 V -9.587 H -2.41 l 0,9.587 z" /></g><g
           transform="translate(60.9543,40.5491)"
           id="g78"><path
             id="path80"
             style="fill:#00aeef;fill-opacity:1;fill-rule:nonzero;stroke:none"
             d="M 0,0 1.781,6.459 H 4.457 L 1.223,-3.128 h -2.446 l -3.233,9.587 h 2.675 z" /></g><path
           id="path82"
           style="fill:#00aeef;fill-opacity:1;fill-rule:nonzero;stroke:none"
           d="M 69.239,37.421 H 66.67 v 9.587 h 2.569 z m -2.72,12.067 c 0,0.385 0.128,0.701 0.385,0.948 0.257,0.249 0.607,0.372 1.05,0.372 0.219,0 0.416,-0.032 0.594,-0.097 0.177,-0.065 0.327,-0.156 0.452,-0.275 0.123,-0.117 0.219,-0.258 0.287,-0.42 0.068,-0.163 0.102,-0.338 0.102,-0.528 0,-0.194 -0.034,-0.373 -0.102,-0.536 C 69.219,48.79 69.123,48.65 69,48.532 c -0.125,-0.119 -0.275,-0.21 -0.452,-0.275 -0.178,-0.066 -0.375,-0.098 -0.594,-0.098 -0.219,0 -0.416,0.032 -0.594,0.098 -0.177,0.065 -0.327,0.156 -0.452,0.275 -0.124,0.118 -0.219,0.258 -0.288,0.42 -0.067,0.163 -0.101,0.342 -0.101,0.536" /><g
           transform="translate(76.7343,44.6069)"
           id="g84"><path
             id="path86"
             style="fill:#00aeef;fill-opacity:1;fill-rule:nonzero;stroke:none"
             d="m 0,0 c -0.13,0.018 -0.282,0.033 -0.456,0.048 -0.175,0.015 -0.33,0.023 -0.465,0.023 -0.502,0 -0.909,-0.085 -1.219,-0.253 -0.309,-0.168 -0.539,-0.412 -0.686,-0.731 v -6.273 h -2.561 v 9.587 h 2.419 l 0.071,-1.143 c 0.242,0.414 0.54,0.737 0.895,0.97 0.354,0.234 0.768,0.351 1.24,0.351 0.136,0 0.279,-0.013 0.43,-0.037 0.15,-0.023 0.273,-0.05 0.367,-0.079 z" /></g><g
           transform="translate(79.809,42.1167)"
           id="g88"><path
             id="path90"
             style="fill:#00aeef;fill-opacity:1;fill-rule:nonzero;stroke:none"
             d="m 0,0 c 0,-0.39 0.035,-0.756 0.106,-1.098 0.071,-0.343 0.185,-0.639 0.342,-0.891 0.156,-0.251 0.36,-0.45 0.611,-0.597 0.251,-0.149 0.559,-0.222 0.926,-0.222 0.354,0 0.657,0.073 0.908,0.222 0.251,0.147 0.456,0.346 0.616,0.597 0.159,0.252 0.274,0.548 0.345,0.891 C 3.925,-0.756 3.961,-0.39 3.961,0 V 0.186 C 3.961,0.564 3.925,0.924 3.854,1.263 3.783,1.603 3.668,1.901 3.509,2.157 3.349,2.415 3.142,2.619 2.888,2.769 2.634,2.92 2.327,2.995 1.967,2.995 1.613,2.995 1.31,2.92 1.059,2.769 0.808,2.619 0.604,2.415 0.448,2.157 0.291,1.901 0.177,1.603 0.106,1.263 0.035,0.924 0,0.564 0,0.186 Z m -2.56,0.186 c 0,0.697 0.1,1.344 0.3,1.941 0.201,0.596 0.494,1.112 0.878,1.546 0.384,0.434 0.858,0.775 1.422,1.023 0.564,0.248 1.206,0.373 1.927,0.373 0.726,0 1.373,-0.125 1.94,-0.373 C 4.474,4.448 4.951,4.107 5.338,3.673 5.725,3.239 6.019,2.723 6.22,2.127 6.42,1.53 6.521,0.883 6.521,0.186 V 0 C 6.521,-0.703 6.42,-1.351 6.22,-1.944 6.019,-2.538 5.725,-3.052 5.338,-3.486 4.951,-3.92 4.477,-4.26 3.916,-4.505 3.355,-4.75 2.711,-4.872 1.985,-4.872 c -0.727,0 -1.373,0.122 -1.936,0.367 -0.564,0.245 -1.04,0.585 -1.427,1.019 -0.387,0.434 -0.681,0.948 -0.882,1.542 -0.2,0.593 -0.3,1.241 -0.3,1.944 z" /></g><g
           transform="translate(90.2635,47.0077)"
           id="g92"><path
             id="path94"
             style="fill:#00aeef;fill-opacity:1;fill-rule:nonzero;stroke:none"
             d="m 0,0 0.08,-1.107 c 0.33,0.413 0.729,0.73 1.196,0.952 0.466,0.222 0.986,0.333 1.559,0.333 0.455,0 0.868,-0.064 1.241,-0.192 0.372,-0.126 0.691,-0.334 0.956,-0.624 0.266,-0.29 0.472,-0.667 0.616,-1.134 0.145,-0.467 0.217,-1.04 0.217,-1.718 v -6.097 h -2.56 v 6.114 c 0,0.307 -0.034,0.561 -0.102,0.762 -0.068,0.2 -0.167,0.36 -0.297,0.478 -0.13,0.119 -0.289,0.202 -0.478,0.253 -0.19,0.05 -0.408,0.075 -0.656,0.075 -0.378,0 -0.702,-0.083 -0.97,-0.248 C 0.533,-2.318 0.316,-2.543 0.151,-2.826 V -9.587 H -2.41 l 0,9.587 z" /></g><g
           transform="translate(100.4701,47.0077)"
           id="g96"><path
             id="path98"
             style="fill:#00aeef;fill-opacity:1;fill-rule:nonzero;stroke:none"
             d="m 0,0 0.08,-1.072 c 0.319,0.39 0.707,0.695 1.165,0.917 0.458,0.222 0.988,0.333 1.59,0.333 0.573,0 1.08,-0.116 1.52,-0.346 0.44,-0.231 0.781,-0.603 1.023,-1.117 0.313,0.455 0.708,0.813 1.183,1.072 0.475,0.26 1.041,0.391 1.697,0.391 0.466,0 0.89,-0.066 1.271,-0.196 0.381,-0.129 0.706,-0.339 0.975,-0.629 0.269,-0.289 0.475,-0.665 0.62,-1.13 0.145,-0.463 0.217,-1.031 0.217,-1.705 V -9.587 H 8.772 v 6.105 C 8.772,-3.163 8.738,-2.9 8.67,-2.693 8.602,-2.486 8.506,-2.325 8.382,-2.21 8.258,-2.096 8.107,-2.016 7.93,-1.971 7.753,-1.927 7.552,-1.905 7.327,-1.905 6.932,-1.905 6.601,-2.004 6.335,-2.202 6.069,-2.4 5.868,-2.667 5.733,-3.004 c 0,-0.029 0.001,-0.061 0.004,-0.097 0.003,-0.035 0.005,-0.068 0.005,-0.098 V -9.587 H 3.181 v 6.088 c 0,0.318 -0.033,0.581 -0.097,0.788 -0.066,0.206 -0.16,0.369 -0.284,0.487 -0.124,0.119 -0.276,0.201 -0.457,0.248 -0.18,0.047 -0.382,0.071 -0.606,0.071 -0.379,0 -0.698,-0.08 -0.957,-0.239 C 0.52,-2.304 0.313,-2.526 0.16,-2.808 V -9.587 H -2.401 V 0 Z" /></g><g
           transform="translate(117.8986,45.1114)"
           id="g100"><path
             id="path102"
             style="fill:#00aeef;fill-opacity:1;fill-rule:nonzero;stroke:none"
             d="m 0,0 c -0.278,0 -0.522,-0.048 -0.731,-0.146 -0.21,-0.097 -0.39,-0.233 -0.541,-0.408 -0.15,-0.173 -0.273,-0.382 -0.367,-0.624 -0.095,-0.242 -0.163,-0.511 -0.204,-0.807 h 3.562 v 0.204 C 1.713,-1.526 1.676,-1.291 1.608,-1.072 1.54,-0.853 1.436,-0.665 1.298,-0.505 1.159,-0.346 0.982,-0.221 0.766,-0.133 0.551,-0.044 0.295,0 0,0 m 0.292,-7.867 c -0.744,0 -1.41,0.121 -1.998,0.363 -0.587,0.242 -1.087,0.572 -1.497,0.992 -0.411,0.42 -0.724,0.911 -0.939,1.476 -0.216,0.563 -0.324,1.168 -0.324,1.812 v 0.345 c 0,0.726 0.105,1.392 0.315,1.998 0.21,0.605 0.508,1.126 0.895,1.563 0.386,0.438 0.856,0.779 1.409,1.024 0.552,0.245 1.17,0.368 1.856,0.368 C 0.7,2.074 1.308,1.96 1.834,1.732 2.36,1.505 2.801,1.186 3.159,0.775 3.516,0.365 3.784,-0.13 3.964,-0.709 4.145,-1.288 4.235,-1.931 4.235,-2.64 V -3.73 H -1.87 c 0.041,-0.313 0.126,-0.597 0.253,-0.85 0.127,-0.254 0.289,-0.471 0.487,-0.652 0.198,-0.18 0.43,-0.32 0.696,-0.421 0.266,-0.1 0.564,-0.15 0.894,-0.15 0.467,0 0.898,0.087 1.294,0.261 0.396,0.175 0.736,0.445 1.019,0.811 L 4.031,-6.14 C 3.878,-6.358 3.686,-6.57 3.455,-6.778 3.225,-6.985 2.953,-7.169 2.64,-7.331 2.327,-7.494 1.974,-7.624 1.581,-7.721 1.189,-7.819 0.759,-7.867 0.292,-7.867" /></g><g
           transform="translate(125.9434,47.0077)"
           id="g104"><path
             id="path106"
             style="fill:#00aeef;fill-opacity:1;fill-rule:nonzero;stroke:none"
             d="m 0,0 0.08,-1.107 c 0.33,0.413 0.729,0.73 1.196,0.952 0.466,0.222 0.986,0.333 1.559,0.333 0.455,0 0.868,-0.064 1.241,-0.192 0.372,-0.126 0.691,-0.334 0.956,-0.624 0.266,-0.29 0.472,-0.667 0.616,-1.134 0.145,-0.467 0.217,-1.04 0.217,-1.718 v -6.097 h -2.56 v 6.114 c 0,0.307 -0.034,0.561 -0.102,0.762 -0.068,0.2 -0.167,0.36 -0.297,0.478 -0.13,0.119 -0.289,0.202 -0.478,0.253 -0.19,0.05 -0.408,0.075 -0.656,0.075 -0.378,0 -0.702,-0.083 -0.97,-0.248 C 0.533,-2.318 0.316,-2.543 0.151,-2.826 V -9.587 H -2.41 l 0,9.587 z" /></g><g
           transform="translate(136.8145,49.3644)"
           id="g108"><path
             id="path110"
             style="fill:#00aeef;fill-opacity:1;fill-rule:nonzero;stroke:none"
             d="M 0,0 V -2.357 H 1.639 V -4.235 H 0 v -4.784 c 0,-0.202 0.021,-0.367 0.062,-0.496 0.042,-0.131 0.103,-0.233 0.186,-0.306 0.083,-0.074 0.185,-0.124 0.306,-0.151 0.121,-0.026 0.264,-0.04 0.43,-0.04 0.153,0 0.293,0.006 0.421,0.018 0.126,0.012 0.237,0.026 0.332,0.044 v -1.941 C 1.524,-11.955 1.292,-12.009 1.041,-12.054 0.79,-12.099 0.505,-12.12 0.186,-12.12 c -0.419,0 -0.797,0.051 -1.134,0.155 -0.336,0.103 -0.624,0.267 -0.864,0.492 -0.239,0.223 -0.423,0.516 -0.554,0.876 -0.13,0.36 -0.194,0.795 -0.194,1.303 v 5.059 h -1.4 v 1.878 h 1.4 l 0,2.357 z" /></g><g
           transform="translate(147.2249,44.119)"
           id="g112"><path
             id="path114"
             style="fill:#00aeef;fill-opacity:1;fill-rule:nonzero;stroke:none"
             d="m 0,0 h 2.374 c 0.378,0 0.705,0.047 0.979,0.142 0.275,0.095 0.5,0.226 0.674,0.394 0.174,0.169 0.303,0.371 0.385,0.608 0.083,0.235 0.124,0.492 0.124,0.77 0,0.278 -0.041,0.545 -0.124,0.802 C 4.33,2.973 4.201,3.2 4.027,3.398 3.853,3.596 3.628,3.754 3.353,3.872 3.079,3.99 2.752,4.049 2.374,4.049 H 0 Z m 0,-2.153 v -4.545 h -2.658 v 12.9 H 2.374 C 3.137,6.202 3.817,6.096 4.416,5.883 5.016,5.67 5.524,5.374 5.941,4.993 6.357,4.612 6.675,4.16 6.893,3.638 7.111,3.114 7.221,2.546 7.221,1.932 7.221,1.305 7.111,0.741 6.893,0.24 6.675,-0.262 6.357,-0.691 5.941,-1.045 5.524,-1.4 5.016,-1.673 4.416,-1.865 3.817,-2.056 3.137,-2.153 2.374,-2.153 Z" /></g><g
           transform="translate(161.4897,44.6069)"
           id="g116"><path
             id="path118"
             style="fill:#00aeef;fill-opacity:1;fill-rule:nonzero;stroke:none"
             d="m 0,0 c -0.13,0.018 -0.282,0.033 -0.456,0.048 -0.175,0.015 -0.33,0.023 -0.465,0.023 -0.502,0 -0.909,-0.085 -1.219,-0.253 -0.309,-0.168 -0.539,-0.412 -0.686,-0.731 v -6.273 h -2.561 v 9.587 h 2.419 l 0.071,-1.143 c 0.242,0.414 0.54,0.737 0.895,0.97 0.354,0.234 0.768,0.351 1.24,0.351 0.136,0 0.279,-0.013 0.43,-0.037 0.15,-0.023 0.273,-0.05 0.367,-0.079 z" /></g><g
           transform="translate(164.564,42.1167)"
           id="g120"><path
             id="path122"
             style="fill:#00aeef;fill-opacity:1;fill-rule:nonzero;stroke:none"
             d="m 0,0 c 0,-0.39 0.035,-0.756 0.107,-1.098 0.07,-0.343 0.184,-0.639 0.341,-0.891 0.156,-0.251 0.36,-0.45 0.611,-0.597 0.251,-0.149 0.559,-0.222 0.926,-0.222 0.354,0 0.657,0.073 0.908,0.222 0.251,0.147 0.456,0.346 0.616,0.597 0.159,0.252 0.274,0.548 0.345,0.891 C 3.925,-0.756 3.961,-0.39 3.961,0 V 0.186 C 3.961,0.564 3.925,0.924 3.854,1.263 3.783,1.603 3.668,1.901 3.509,2.157 3.349,2.415 3.142,2.619 2.888,2.769 2.634,2.92 2.327,2.995 1.967,2.995 1.613,2.995 1.31,2.92 1.059,2.769 0.808,2.619 0.604,2.415 0.448,2.157 0.291,1.901 0.177,1.603 0.107,1.263 0.035,0.924 0,0.564 0,0.186 Z m -2.56,0.186 c 0,0.697 0.1,1.344 0.3,1.941 0.201,0.596 0.494,1.112 0.878,1.546 0.384,0.434 0.858,0.775 1.422,1.023 0.564,0.248 1.206,0.373 1.927,0.373 0.726,0 1.373,-0.125 1.94,-0.373 C 4.474,4.448 4.951,4.107 5.338,3.673 5.725,3.239 6.019,2.723 6.22,2.127 6.42,1.53 6.521,0.883 6.521,0.186 V 0 C 6.521,-0.703 6.42,-1.351 6.22,-1.944 6.019,-2.538 5.725,-3.052 5.338,-3.486 4.951,-3.92 4.477,-4.26 3.916,-4.505 3.355,-4.75 2.711,-4.872 1.985,-4.872 c -0.727,0 -1.373,0.122 -1.936,0.367 -0.564,0.245 -1.04,0.585 -1.427,1.019 -0.387,0.434 -0.681,0.948 -0.882,1.542 -0.2,0.593 -0.3,1.241 -0.3,1.944 z" /></g><g
           transform="translate(174.8506,42.099)"
           id="g124"><path
             id="path126"
             style="fill:#00aeef;fill-opacity:1;fill-rule:nonzero;stroke:none"
             d="m 0,0 c 0,-0.39 0.038,-0.753 0.115,-1.09 0.077,-0.336 0.197,-0.63 0.359,-0.881 0.163,-0.251 0.366,-0.45 0.612,-0.594 0.244,-0.144 0.536,-0.217 0.872,-0.217 0.408,0 0.749,0.077 1.023,0.231 0.275,0.153 0.492,0.369 0.652,0.647 V 2.127 C 3.467,2.411 3.25,2.628 2.981,2.778 2.713,2.929 2.377,3.004 1.976,3.004 1.639,3.004 1.348,2.932 1.103,2.787 0.858,2.642 0.653,2.443 0.487,2.189 0.322,1.935 0.199,1.636 0.12,1.294 0.04,0.951 0,0.582 0,0.186 Z m -2.56,0.186 c 0,0.727 0.089,1.391 0.27,1.994 0.18,0.603 0.437,1.119 0.771,1.55 0.333,0.432 0.739,0.765 1.218,1.001 0.478,0.237 1.019,0.355 1.621,0.355 0.561,0 1.041,-0.095 1.44,-0.283 C 3.159,4.613 3.497,4.347 3.775,4.005 L 3.881,4.909 H 6.202 V -4.35 C 6.202,-5.006 6.09,-5.587 5.865,-6.095 5.641,-6.603 5.326,-7.033 4.922,-7.384 4.517,-7.736 4.033,-8.002 3.469,-8.182 2.904,-8.362 2.28,-8.452 1.595,-8.452 c -0.295,0 -0.609,0.029 -0.939,0.088 -0.331,0.059 -0.657,0.151 -0.979,0.275 -0.322,0.124 -0.628,0.281 -0.917,0.469 -0.29,0.19 -0.535,0.414 -0.736,0.674 l 1.134,1.559 c 0.302,-0.336 0.646,-0.599 1.032,-0.788 0.387,-0.189 0.817,-0.284 1.29,-0.284 0.679,0 1.207,0.182 1.585,0.545 0.379,0.363 0.568,0.879 0.568,1.546 v 0.514 C 3.349,-4.173 3.015,-4.42 2.632,-4.594 2.247,-4.767 1.805,-4.855 1.303,-4.855 c -0.597,0 -1.133,0.123 -1.609,0.367 -0.475,0.246 -0.88,0.584 -1.213,1.015 -0.334,0.431 -0.591,0.944 -0.771,1.537 -0.181,0.594 -0.27,1.239 -0.27,1.936 z" /></g><g
           transform="translate(188.4063,44.6069)"
           id="g128"><path
             id="path130"
             style="fill:#00aeef;fill-opacity:1;fill-rule:nonzero;stroke:none"
             d="m 0,0 c -0.13,0.018 -0.282,0.033 -0.456,0.048 -0.175,0.015 -0.33,0.023 -0.465,0.023 -0.502,0 -0.909,-0.085 -1.219,-0.253 -0.309,-0.168 -0.539,-0.412 -0.686,-0.731 v -6.273 h -2.561 v 9.587 h 2.419 l 0.071,-1.143 c 0.242,0.414 0.54,0.737 0.895,0.97 0.354,0.234 0.768,0.351 1.24,0.351 0.136,0 0.279,-0.013 0.43,-0.037 0.15,-0.023 0.273,-0.05 0.367,-0.079 z" /></g><g
           transform="translate(192.8101,39.2024)"
           id="g132"><path
             id="path134"
             style="fill:#00aeef;fill-opacity:1;fill-rule:nonzero;stroke:none"
             d="m 0,0 c 0.218,0 0.421,0.027 0.607,0.08 0.186,0.053 0.352,0.122 0.5,0.208 0.148,0.085 0.276,0.184 0.385,0.296 0.11,0.113 0.197,0.228 0.262,0.346 V 2.578 H 0.7 C 0.363,2.578 0.071,2.541 -0.178,2.467 -0.425,2.393 -0.629,2.29 -0.789,2.157 -0.948,2.024 -1.066,1.868 -1.143,1.687 -1.22,1.508 -1.258,1.311 -1.258,1.098 -1.258,0.779 -1.146,0.516 -0.922,0.31 -0.697,0.103 -0.39,0 0,0 M 2.117,-1.782 C 1.999,-1.551 1.914,-1.264 1.861,-0.922 1.6,-1.211 1.274,-1.457 0.881,-1.657 0.488,-1.858 0.009,-1.958 -0.559,-1.958 c -0.46,0 -0.89,0.07 -1.289,0.212 -0.398,0.142 -0.744,0.339 -1.036,0.594 -0.293,0.254 -0.521,0.556 -0.687,0.908 -0.165,0.351 -0.248,0.737 -0.248,1.156 0,0.502 0.093,0.948 0.279,1.338 0.186,0.39 0.465,0.72 0.837,0.992 0.373,0.272 0.835,0.479 1.387,0.62 0.552,0.143 1.195,0.213 1.927,0.213 H 1.754 V 4.624 C 1.754,5.068 1.64,5.422 1.413,5.688 1.186,5.953 0.826,6.087 0.337,6.087 -0.095,6.087 -0.433,5.983 -0.678,5.776 -0.923,5.569 -1.046,5.286 -1.046,4.925 h -2.56 c 0,0.415 0.095,0.807 0.288,1.179 0.192,0.372 0.465,0.697 0.819,0.975 0.355,0.278 0.783,0.498 1.285,0.66 0.502,0.162 1.063,0.244 1.683,0.244 0.555,0 1.07,-0.072 1.542,-0.213 C 2.483,7.628 2.891,7.417 3.234,7.137 3.576,6.856 3.844,6.505 4.036,6.082 4.228,5.66 4.323,5.168 4.323,4.606 V 0.549 c 0,-0.272 0.01,-0.516 0.027,-0.731 0.018,-0.216 0.041,-0.411 0.071,-0.585 0.029,-0.174 0.068,-0.33 0.115,-0.47 0.047,-0.138 0.103,-0.27 0.169,-0.393 v -0.152 z" /></g><g
           transform="translate(201.5017,47.0077)"
           id="g136"><path
             id="path138"
             style="fill:#00aeef;fill-opacity:1;fill-rule:nonzero;stroke:none"
             d="m 0,0 0.08,-1.072 c 0.319,0.39 0.707,0.695 1.165,0.917 0.457,0.222 0.988,0.333 1.59,0.333 0.573,0 1.08,-0.116 1.52,-0.346 0.44,-0.231 0.781,-0.603 1.023,-1.117 0.313,0.455 0.708,0.813 1.183,1.072 0.475,0.26 1.041,0.391 1.697,0.391 0.466,0 0.89,-0.066 1.271,-0.196 0.381,-0.129 0.706,-0.339 0.975,-0.629 0.269,-0.289 0.475,-0.665 0.62,-1.13 0.145,-0.463 0.217,-1.031 0.217,-1.705 V -9.587 H 8.772 v 6.105 C 8.772,-3.163 8.738,-2.9 8.67,-2.693 8.602,-2.486 8.506,-2.325 8.382,-2.21 8.258,-2.096 8.107,-2.016 7.93,-1.971 7.753,-1.927 7.552,-1.905 7.327,-1.905 6.932,-1.905 6.601,-2.004 6.335,-2.202 6.069,-2.4 5.868,-2.667 5.733,-3.004 c 0,-0.029 0.001,-0.061 0.004,-0.097 0.003,-0.035 0.005,-0.068 0.005,-0.098 V -9.587 H 3.181 v 6.088 c 0,0.318 -0.033,0.581 -0.097,0.788 -0.066,0.206 -0.16,0.369 -0.284,0.487 -0.124,0.119 -0.276,0.201 -0.457,0.248 -0.18,0.047 -0.382,0.071 -0.606,0.071 -0.379,0 -0.698,-0.08 -0.957,-0.239 C 0.52,-2.304 0.313,-2.526 0.16,-2.808 V -9.587 H -2.401 V 0 Z" /></g><g
           transform="translate(217.2105,47.0077)"
           id="g140"><path
             id="path142"
             style="fill:#00aeef;fill-opacity:1;fill-rule:nonzero;stroke:none"
             d="m 0,0 0.08,-1.072 c 0.319,0.39 0.707,0.695 1.165,0.917 0.457,0.222 0.988,0.333 1.59,0.333 0.573,0 1.08,-0.116 1.52,-0.346 0.44,-0.231 0.781,-0.603 1.023,-1.117 0.313,0.455 0.708,0.813 1.183,1.072 0.475,0.26 1.041,0.391 1.697,0.391 0.466,0 0.89,-0.066 1.271,-0.196 0.381,-0.129 0.706,-0.339 0.975,-0.629 0.269,-0.289 0.475,-0.665 0.62,-1.13 0.145,-0.463 0.217,-1.031 0.217,-1.705 V -9.587 H 8.772 v 6.105 C 8.772,-3.163 8.738,-2.9 8.67,-2.693 8.602,-2.486 8.506,-2.325 8.382,-2.21 8.258,-2.096 8.107,-2.016 7.93,-1.971 7.753,-1.927 7.552,-1.905 7.327,-1.905 6.932,-1.905 6.601,-2.004 6.335,-2.202 6.069,-2.4 5.868,-2.667 5.733,-3.004 c 0,-0.029 0.001,-0.061 0.004,-0.097 0.003,-0.035 0.005,-0.068 0.005,-0.098 V -9.587 H 3.181 v 6.088 c 0,0.318 -0.033,0.581 -0.097,0.788 -0.066,0.206 -0.16,0.369 -0.284,0.487 -0.124,0.119 -0.276,0.201 -0.457,0.248 -0.18,0.047 -0.382,0.071 -0.606,0.071 -0.379,0 -0.698,-0.08 -0.957,-0.239 C 0.52,-2.304 0.313,-2.526 0.16,-2.808 V -9.587 H -2.401 V 0 Z" /></g><g
           transform="translate(234.6384,45.1114)"
           id="g144"><path
             id="path146"
             style="fill:#00aeef;fill-opacity:1;fill-rule:nonzero;stroke:none"
             d="m 0,0 c -0.278,0 -0.522,-0.048 -0.731,-0.146 -0.21,-0.097 -0.39,-0.233 -0.541,-0.408 -0.15,-0.173 -0.273,-0.382 -0.367,-0.624 -0.095,-0.242 -0.163,-0.511 -0.204,-0.807 h 3.562 v 0.204 C 1.713,-1.526 1.676,-1.291 1.608,-1.072 1.54,-0.853 1.436,-0.665 1.298,-0.505 1.159,-0.346 0.982,-0.221 0.766,-0.133 0.551,-0.044 0.295,0 0,0 m 0.292,-7.867 c -0.744,0 -1.41,0.121 -1.998,0.363 -0.587,0.242 -1.087,0.572 -1.497,0.992 -0.411,0.42 -0.724,0.911 -0.939,1.476 -0.216,0.563 -0.324,1.168 -0.324,1.812 v 0.345 c 0,0.726 0.105,1.392 0.315,1.998 0.21,0.605 0.508,1.126 0.895,1.563 0.386,0.438 0.856,0.779 1.409,1.024 0.552,0.245 1.17,0.368 1.856,0.368 C 0.7,2.074 1.308,1.96 1.834,1.732 2.36,1.505 2.801,1.186 3.159,0.775 3.516,0.365 3.784,-0.13 3.964,-0.709 4.145,-1.288 4.235,-1.931 4.235,-2.64 V -3.73 H -1.87 c 0.041,-0.313 0.126,-0.597 0.253,-0.85 0.127,-0.254 0.289,-0.471 0.487,-0.652 0.198,-0.18 0.43,-0.32 0.696,-0.421 0.266,-0.1 0.564,-0.15 0.894,-0.15 0.467,0 0.898,0.087 1.294,0.261 0.396,0.175 0.736,0.445 1.019,0.811 L 4.031,-6.14 C 3.878,-6.358 3.686,-6.57 3.455,-6.778 3.225,-6.985 2.953,-7.169 2.64,-7.331 2.327,-7.494 1.974,-7.624 1.581,-7.721 1.189,-7.819 0.759,-7.867 0.292,-7.867" /></g><g
           transform="translate(196.3506,155.669)"
           id="g148"><path
             id="path150"
             style="fill:#00aeef;fill-opacity:1;fill-rule:nonzero;stroke:none"
             d="m 0,0 c -7.989,2.413 -13.806,9.83 -13.806,18.606 0,1.584 0.19,3.124 0.547,4.599 L -0.64,21.584 c 0,0 4.844,-0.215 4.665,-8.79 C 3.851,4.47 0,0 0,0" /></g><g
           transform="translate(207.6289,155.669)"
           id="g152"><path
             id="path154"
             style="fill:#00aeef;fill-opacity:1;fill-rule:nonzero;stroke:none"
             d="m 0,0 c 7.989,2.413 13.806,9.83 13.806,18.606 0,1.584 -0.19,3.124 -0.547,4.599 L 0.64,21.584 c 0,0 -4.844,-0.215 -4.665,-8.79 C -3.851,4.47 0,0 0,0" /></g><g
           transform="translate(201.9898,188.187)"
           id="g156"><path
             id="path158"
             style="fill:#00aeef;fill-opacity:1;fill-rule:nonzero;stroke:none"
             d="M 0,0 C 1.625,0 2.943,-1.318 2.943,-2.943 2.943,-4.206 2.074,-5.152 1.02,-5.712 0.892,-5.78 0.771,-5.839 0.797,-6.039 0.825,-6.248 1.426,-6.36 1.686,-6.42 L 18.649,-8.389 C 16.269,-0.347 8.826,5.521 0.012,5.521 h -0.024 c -8.814,0 -16.257,-5.868 -18.637,-13.91 l 16.963,1.969 c 0.259,0.06 0.861,0.172 0.889,0.381 0.026,0.2 -0.095,0.259 -0.223,0.327 -1.054,0.56 -1.923,1.506 -1.923,2.769 C -2.943,-1.318 -1.625,0 0,0" /></g><g
           transform="translate(209.7396,141.9128)"
           id="g160"><path
             id="path162"
             style="fill:#00aeef;fill-opacity:1;fill-rule:nonzero;stroke:none"
             d="m 0,0 1.148,0.718 c 0,0 -5.453,7.39 -17.652,7.39 -6.243,0 -9.472,-2.511 -13.849,-2.511 0,0 -1.794,-0.215 -3.516,0.861 0,0 2.081,-3.014 9.615,-3.014 5.525,0 9.472,3.229 13.347,3.229 C -5.597,6.673 -1.65,1.937 0,0" /></g><g
           transform="translate(192.8048,141.9128)"
           id="g164"><path
             id="path166"
             style="fill:#00aeef;fill-opacity:1;fill-rule:nonzero;stroke:none"
             d="m 0,0 -1.148,0.718 c 0,0 5.453,7.39 17.652,7.39 6.243,0 9.472,-2.511 13.849,-2.511 0,0 1.794,-0.215 3.516,0.861 0,0 -2.081,-3.014 -9.615,-3.014 -5.525,0 -9.472,3.229 -13.347,3.229 C 5.597,6.673 1.65,1.937 0,0" /></g><g
           transform="translate(186.9926,150.667)"
           id="g168"><path
             id="path170"
             style="fill:#00aeef;fill-opacity:1;fill-rule:nonzero;stroke:none"
             d="m 0,0 c -0.215,-0.574 -2.547,0.107 -4.126,-0.359 -1.764,-0.521 -11.086,-1.65 -15.177,8.037 0,0 3.875,-4.162 6.889,-4.449 3.014,-0.287 6.315,-1.005 9.113,-2.583 l 0.646,-0.144 c 0,0 -0.09,0.287 -0.359,0.431 -0.369,0.197 -3.269,1.136 -4.664,5.74 -0.718,2.368 -0.574,4.091 -0.861,5.31 0,0 3.157,-3.516 4.449,-5.74 C -2.799,4.018 -2.655,1.507 0,0" /></g><g
           transform="translate(177.4848,155.5466)"
           id="g172"><path
             id="path174"
             style="fill:#00aeef;fill-opacity:1;fill-rule:nonzero;stroke:none"
             d="m 0,0 c -0.234,-0.234 -0.825,0.143 -1.04,0.251 -0.216,0.108 -1.766,0.815 -4.413,1.758 -2.62,0.933 -7.499,5.059 -7.033,12.127 0,0 0.682,-2.655 2.691,-4.413 2.009,-1.758 2.727,-1.973 3.947,-3.409 1.22,-1.435 3.982,-4.7 4.09,-4.664 0.108,0.036 0.143,0.216 -0.072,0.395 -0.215,0.179 -0.933,1.973 -1.399,2.583 -0.467,0.61 -1.866,4.808 0.179,9.974 0,0 2.189,-3.767 2.045,-7.57 -0.143,-3.803 -0.322,-2.906 0.61,-6.063 0,0 0.503,-0.862 0.395,-0.969" /></g><g
           transform="translate(171.3855,164.7672)"
           id="g176"><path
             id="path178"
             style="fill:#00aeef;fill-opacity:1;fill-rule:nonzero;stroke:none"
             d="m 0,0 c -0.129,-0.129 -0.682,0.682 -1.112,1.435 -0.431,0.754 -3.445,3.983 -3.839,4.628 -0.395,0.646 -3.767,4.736 -1.22,10.8 0,0 0.251,0.072 0.251,-1.363 0,-1.436 1.328,-4.629 2.404,-5.992 1.076,-1.364 2.045,-3.552 2.26,-5.884 0,0 0.144,-0.431 0.323,-0.467 0.18,-0.036 0.18,0.431 0.18,0.431 0,0 -0.144,2.153 -0.144,3.624 0,1.471 0.646,3.982 2.045,5.417 0,0 0.646,0.718 1.041,1.579 0,0 0.251,0.574 0.61,0.861 0,0 0.287,-4.126 -1.113,-7.965 C 0.287,3.265 -0.179,2.619 0.036,0.538 0.036,0.538 0.072,0.072 0,0" /></g><g
           transform="translate(169.0175,176.1048)"
           id="g180"><path
             id="path182"
             style="fill:#00aeef;fill-opacity:1;fill-rule:nonzero;stroke:none"
             d="m 0,0 c -0.144,0 -0.251,0.502 -0.323,0.897 -0.072,0.395 -0.502,2.691 -0.789,3.193 -0.287,0.502 -1.364,2.799 -1.399,5.489 -0.036,2.691 1.183,6.351 3.91,9.257 0,0 -0.107,-0.861 -0.825,-2.763 C -0.144,14.172 0.287,12.378 0.359,12.055 0.43,11.732 0.682,9.51 0.682,8.467 0.682,7.642 0.466,4.808 0.287,4.234 c 0,0 -0.072,-0.395 0.072,-0.395 0.143,0 0.287,0.323 0.287,0.323 0,0 0.143,2.224 1.794,4.233 1.65,2.01 4.628,3.229 5.094,4.126 0,0 -0.215,-3.157 -3.695,-6.852 C 0.74,2.378 1.65,4.054 0.646,1.363 c 0,0 -0.431,-1.004 -0.431,-1.22 C 0.215,-0.072 0,0 0,0" /></g><g
           transform="translate(170.919,186.7248)"
           id="g184"><path
             id="path186"
             style="fill:#00aeef;fill-opacity:1;fill-rule:nonzero;stroke:none"
             d="m 0,0 c 0,0 -0.072,0.43 0.466,1.399 0.539,0.969 -0.035,2.691 0.682,5.203 0.718,2.511 2.045,6.817 7.104,9.4 0,0 -0.502,-0.467 -0.753,-0.826 C 7.247,14.818 5.884,12.234 5.489,10.441 5.095,8.647 3.373,5.633 2.727,4.951 2.081,4.27 2.368,4.198 2.368,4.198 c 0,0 0.323,0.072 0.646,0.574 0.323,0.502 1.973,2.368 3.803,2.798 1.83,0.431 4.736,1.292 4.915,1.471 0,0 -3.157,-3.229 -6.063,-4.879 C 2.763,2.511 2.44,3.014 0.718,0.789 0.718,0.789 0.144,0 0,0" /></g><g
           transform="translate(177.8794,196.3043)"
           id="g188"><path
             id="path190"
             style="fill:#00aeef;fill-opacity:1;fill-rule:nonzero;stroke:none"
             d="m 0,0 c 0,0 0,0.287 0.538,0.789 0.538,0.503 1.077,2.01 2.009,3.409 0.933,1.399 3.05,5.059 8.539,5.92 0,0 -1.65,-1.22 -1.901,-1.615 C 8.934,8.108 7.319,5.992 6.602,5.274 5.884,4.557 3.839,3.05 3.157,2.727 3.157,2.727 2.799,2.44 2.87,2.332 2.942,2.225 3.301,2.44 3.301,2.44 c 0,0 1.901,1.471 4.198,1.542 2.296,0.072 4.7,-0.035 5.058,-0.071 0,0 -2.152,-1.471 -7.283,-2.404 C 0.144,0.574 1.112,0.538 0.323,0.036 0.323,0.036 0.144,-0.108 0,0" /></g><g
           transform="translate(187.0284,202.26)"
           id="g192"><path
             id="path194"
             style="fill:#00aeef;fill-opacity:1;fill-rule:nonzero;stroke:none"
             d="m 0,0 c 0,0 0.108,0.287 0.933,0.538 0.825,0.251 0.753,1.041 3.265,2.368 2.511,1.328 5.13,1.938 7.785,0.825 0,0 -1.112,-0.143 -1.291,-0.215 C 10.512,3.444 8.611,2.942 8.073,2.655 7.534,2.368 4.772,1.148 3.66,0.933 2.547,0.718 3.086,0.646 3.086,0.646 c 0,0 0.251,-0.108 0.466,-0.108 0.215,0 2.691,0.251 4.305,-0.323 1.615,-0.574 1.579,-0.789 2.225,-1.004 0.646,-0.216 1.399,-0.359 1.507,-0.61 0,0 -1.615,-0.144 -2.584,-0.144 -0.968,0 -3.516,0.251 -4.735,0.825 C 3.05,-0.143 1.65,0.108 1.184,0 0.718,-0.108 0.144,-0.108 0,0" /></g><g
           transform="translate(197.2179,203.5158)"
           id="g196"><path
             id="path198"
             style="fill:#00aeef;fill-opacity:1;fill-rule:nonzero;stroke:none"
             d="m 0,0 c 0,0 0.108,0.144 0.825,0.287 0.718,0.144 0.897,0.574 2.583,0.933 1.687,0.359 4.306,0.682 6.71,-0.969 0,0 -1.471,0.036 -1.794,0.036 -0.323,0 -3.122,-0.502 -3.767,-0.502 -0.646,0 -1.938,0.287 -2.117,0.072 -0.18,-0.216 1.184,-0.503 1.399,-0.575 0.215,-0.071 1.184,-0.143 2.404,-1.327 1.22,-1.184 2.081,-1.83 2.224,-1.902 0,0 -3.588,0.826 -4.485,1.328 -0.896,0.502 -2.439,2.045 -2.69,2.153 C 1.04,-0.359 0,0 0,0" /></g><g
           transform="translate(205.5057,202.0448)"
           id="g200"><path
             id="path202"
             style="fill:#00aeef;fill-opacity:1;fill-rule:nonzero;stroke:none"
             d="m 0,0 c 0,0 2.261,0.072 3.911,-0.969 1.65,-1.04 2.978,-2.404 3.121,-3.229 0,0 -0.933,0.79 -1.542,0.969 C 4.88,-3.05 3.158,-2.081 2.799,-1.866 2.44,-1.65 0.359,-0.323 0,0" /></g><g
           transform="translate(216.1257,150.2723)"
           id="g204"><path
             id="path206"
             style="fill:#00aeef;fill-opacity:1;fill-rule:nonzero;stroke:none"
             d="m 0,0 c 0,0 0.323,0.323 1.399,1.256 1.077,0.933 1.364,2.296 2.548,4.413 1.184,2.117 2.188,3.588 4.592,5.74 0,0 -0.43,-1.614 -0.466,-2.116 C 8.037,8.79 7.642,5.992 6.279,4.377 4.916,2.763 4.844,2.404 3.265,1.435 c 0,0 -0.61,-0.43 -0.574,-0.574 0.036,-0.143 1.076,0.036 1.076,0.036 0,0 1.149,0.431 1.507,0.646 0.359,0.215 1.974,1.04 2.619,1.291 0.646,0.252 1.184,0.503 2.619,0.933 1.436,0.431 6.638,1.758 8.683,5.059 0,0 -0.61,-1.937 -1.363,-2.834 -0.754,-0.897 -5.023,-6.53 -10.943,-6.422 0,0 -2.332,0.179 -3.552,0.394 C 2.117,0.179 1.686,0.179 1.507,0.143 1.328,0.108 0.179,-0.107 0,0" /></g><g
           transform="translate(229.3648,170.4001)"
           id="g208"><path
             id="path210"
             style="fill:#00aeef;fill-opacity:1;fill-rule:nonzero;stroke:none"
             d="m 0,0 c 0,0 -2.224,-3.48 -2.727,-8.503 -0.502,-5.023 0.359,-3.516 -0.466,-5.741 0,0 -0.287,-0.574 -0.179,-0.61 0.107,-0.036 0.538,0.216 2.116,1.184 1.579,0.969 3.122,0.682 6.494,3.911 3.373,3.229 4.055,9.651 4.126,10.189 0,0 -0.502,-0.502 -0.753,-1.363 C 8.36,-1.794 7.822,-2.476 7.714,-2.583 7.606,-2.691 3.947,-6.709 3.516,-7.068 c -0.43,-0.359 -2.583,-2.978 -3.049,-3.731 -0.467,-0.754 -1.83,-2.117 -2.082,-2.01 0,0 0.036,0.323 0.144,0.575 0.108,0.251 1.112,1.614 1.543,3.193 0.43,1.578 0.538,2.547 0.574,3.552 C 0.682,-4.485 0.036,-0.789 0,0" /></g><g
           transform="translate(232.3787,165.5565)"
           id="g212"><path
             id="path214"
             style="fill:#00aeef;fill-opacity:1;fill-rule:nonzero;stroke:none"
             d="m 0,0 c 0,0 -0.224,0.521 -0.036,0.897 0.108,0.215 0.215,1.937 -0.43,3.337 -0.646,1.399 -2.045,5.274 -1.938,7.857 0.108,2.583 0.395,2.942 0.395,2.942 0,0 0.718,-2.117 0.933,-2.476 C -0.861,12.199 1.291,8.396 1.112,6.315 0.933,4.234 0.825,3.588 0.933,3.552 1.041,3.516 1.291,3.803 1.327,4.054 c 0.036,0.251 0.395,1.687 1.077,3.373 0.681,1.686 3.444,5.417 4.054,7.893 0,0 0.897,-4.305 -1.507,-8.324 C 2.547,2.978 2.296,3.875 1.291,2.045 0.287,0.215 0.144,0 0,0" /></g><g
           transform="translate(234.5671,176.9299)"
           id="g216"><path
             id="path218"
             style="fill:#00aeef;fill-opacity:1;fill-rule:nonzero;stroke:none"
             d="m 0,0 c -0.179,0.036 -0.071,1.686 -0.502,2.225 -0.431,0.538 -4.126,4.915 -4.915,9.292 0,0 2.332,-2.368 2.726,-2.619 0.395,-0.251 1.973,-1.83 2.44,-3.193 0.466,-1.364 0.359,-2.512 0.538,-2.548 0.18,-0.036 0.18,1.507 0.18,1.507 0,0 0.035,3.014 0.287,4.449 0.251,1.435 0.896,3.839 0.61,5.059 0,0 1.399,-2.224 1.327,-5.382 C 2.619,5.633 1.292,3.121 1.112,2.763 0.933,2.404 0.431,0.861 0.431,0.538 0.431,0.215 0,0 0,0" /></g><g
           transform="translate(230.1903,199.3898)"
           id="g220"><path
             id="path222"
             style="fill:#00aeef;fill-opacity:1;fill-rule:nonzero;stroke:none"
             d="m 0,0 c 0,0 4.844,-2.87 4.09,-12.486 0,0 0,-0.43 -0.287,0.036 -0.287,0.467 -1.327,1.794 -1.794,2.081 -0.466,0.287 -4.772,2.906 -6.602,6.925 0,0 0.288,0.072 0.718,-0.323 0.431,-0.395 1.758,-1.077 1.973,-1.184 0.216,-0.108 1.723,-0.502 2.835,-1.722 1.112,-1.22 1.507,-2.117 1.829,-2.835 0,0 0.323,-0.251 0.108,0.467 C 2.655,-8.324 2.619,-7.857 2.045,-6.96 1.471,-6.063 0.968,-4.449 0.897,-3.337 0.825,-2.224 0.502,-0.574 0,0" /></g><g
           transform="translate(229.3648,196.0173)"
           id="g224"><path
             id="path226"
             style="fill:#00aeef;fill-opacity:1;fill-rule:nonzero;stroke:none"
             d="M 0,0 C 0,0 0.108,0.646 -0.359,1.543 -0.825,2.44 -0.461,3.437 -1.937,5.812 -2.762,7.14 -5.633,8.18 -5.633,8.18 c 0,0 0.825,-1.148 1.364,-1.794 0.538,-0.645 0.717,-1.112 0.897,-1.435 0.179,-0.323 1.175,-1.279 1.542,-1.83 0.072,-0.107 0.215,-0.394 0.215,-0.574 0,-0.179 -0.394,0.108 -0.502,0.216 -0.107,0.107 -1.865,1.435 -2.977,1.65 -1.113,0.215 -3.23,0.431 -3.804,0.718 0,0 2.512,-2.261 5.239,-2.942 C -0.933,1.507 0,0 0,0" /></g><g
           transform="translate(223.6962,201.9372)"
           id="g228"><path
             id="path230"
             style="fill:#00aeef;fill-opacity:1;fill-rule:nonzero;stroke:none"
             d="m 0,0 c 0,0 -2.511,3.408 -6.996,3.337 0,0 0.251,-0.251 0.753,-0.359 C -5.741,2.87 -4.844,1.973 -4.377,1.686 -3.911,1.399 -2.942,0.682 0,0" /></g><g
           transform="translate(85.9917,206.6115)"
           id="g232"><path
             id="path234"
             style="fill:#00aeef;fill-opacity:1;fill-rule:nonzero;stroke:none"
             d="m 0,0 v -42.152 c 0,-3.684 -0.614,-6.937 -1.842,-9.759 -1.228,-2.822 -2.925,-5.183 -5.088,-7.084 -2.165,-1.9 -4.745,-3.333 -7.742,-4.298 -2.998,-0.964 -6.265,-1.447 -9.803,-1.447 -3.568,0 -6.849,0.483 -9.847,1.447 -2.997,0.965 -5.577,2.398 -7.741,4.298 -2.165,1.901 -3.853,4.262 -5.066,7.084 -1.214,2.822 -1.821,6.075 -1.821,9.759 V 0 h 13.159 v -42.152 c 0,-4.181 1.001,-7.23 3.004,-9.144 2.003,-1.917 4.774,-2.873 8.312,-2.873 3.568,0 6.338,0.956 8.312,2.873 1.974,1.914 2.96,4.963 2.96,9.144 l 0,42.152 z" /></g><g
           transform="translate(148.7141,142.7485)"
           id="g236"><path
             id="path238"
             style="fill:#00aeef;fill-opacity:1;fill-rule:nonzero;stroke:none"
             d="M 0,0 H -13.158 L -38.774,42.02 V 0 h -13.158 v 63.863 h 13.158 l 25.66,-42.107 V 63.863 H 0 Z" /></g><g
           transform="translate(45.9222,117.1834)"
           id="g240"><path
             id="path242"
             style="fill:#00aeef;fill-opacity:1;fill-rule:nonzero;stroke:none"
             d="M 0,0 C -0.552,0 -1.037,-0.097 -1.454,-0.29 -1.871,-0.485 -2.23,-0.754 -2.528,-1.101 -2.828,-1.448 -3.072,-1.862 -3.26,-2.344 -3.448,-2.825 -3.584,-3.36 -3.666,-3.947 h 7.085 v 0.405 c -0.012,0.505 -0.085,0.975 -0.22,1.41 -0.136,0.435 -0.341,0.811 -0.618,1.128 -0.275,0.317 -0.628,0.563 -1.057,0.74 C 1.095,-0.088 0.587,0 0,0 m 0.581,-15.648 c -1.48,0 -2.805,0.242 -3.973,0.723 -1.17,0.482 -2.161,1.14 -2.978,1.974 -0.817,0.833 -1.439,1.811 -1.868,2.934 -0.429,1.121 -0.643,2.322 -0.643,3.603 v 0.688 c 0,1.444 0.208,2.769 0.625,3.973 0.418,1.204 1.011,2.241 1.78,3.11 0.769,0.87 1.703,1.548 2.802,2.035 1.099,0.488 2.329,0.732 3.692,0.732 1.374,0 2.584,-0.227 3.629,-0.679 C 4.693,2.993 5.571,2.358 6.282,1.542 6.992,0.726 7.527,-0.258 7.885,-1.41 8.244,-2.561 8.423,-3.842 8.423,-5.25 V -7.418 H -3.718 c 0.082,-0.623 0.25,-1.187 0.502,-1.692 0.253,-0.505 0.575,-0.936 0.969,-1.295 0.394,-0.359 0.855,-0.637 1.383,-0.837 0.529,-0.2 1.122,-0.299 1.78,-0.299 0.929,0 1.785,0.173 2.573,0.519 0.787,0.346 1.462,0.884 2.026,1.613 l 2.502,-2.802 C 7.712,-12.646 7.33,-13.069 6.872,-13.48 6.414,-13.891 5.874,-14.258 5.251,-14.582 4.628,-14.904 3.927,-15.163 3.145,-15.356 2.364,-15.551 1.509,-15.648 0.581,-15.648" /></g><g
           transform="translate(61.9225,120.9546)"
           id="g244"><path
             id="path246"
             style="fill:#00aeef;fill-opacity:1;fill-rule:nonzero;stroke:none"
             d="m 0,0 0.158,-2.203 c 0.658,0.823 1.451,1.454 2.379,1.894 0.928,0.441 1.962,0.662 3.101,0.662 0.905,0 1.728,-0.127 2.467,-0.379 0.741,-0.253 1.375,-0.668 1.903,-1.243 0.529,-0.576 0.937,-1.328 1.226,-2.255 0.287,-0.928 0.431,-2.068 0.431,-3.419 V -19.066 H 6.572 v 12.159 c 0,0.61 -0.067,1.115 -0.202,1.515 -0.136,0.4 -0.332,0.716 -0.59,0.952 -0.259,0.234 -0.577,0.402 -0.952,0.502 -0.376,0.099 -0.811,0.149 -1.304,0.149 -0.752,0 -1.395,-0.164 -1.93,-0.493 C 1.06,-4.611 0.628,-5.057 0.299,-5.622 v -13.444 h -5.092 l 0,19.066 z" /></g><g
           transform="translate(84.5829,108.109)"
           id="g248"><path
             id="path250"
             style="fill:#00aeef;fill-opacity:1;fill-rule:nonzero;stroke:none"
             d="M 0,0 3.542,12.846 H 8.863 L 2.432,-6.221 h -4.864 l -6.431,19.067 h 5.321 z" /></g><path
           id="path252"
           style="fill:#00aeef;fill-opacity:1;fill-rule:nonzero;stroke:none"
           d="m 101.059,101.888 h -5.111 v 19.066 h 5.111 z m -5.41,24 c 0,0.763 0.255,1.393 0.766,1.886 0.511,0.493 1.208,0.74 2.089,0.74 0.434,0 0.828,-0.065 1.18,-0.194 0.353,-0.129 0.652,-0.312 0.899,-0.546 0.246,-0.235 0.438,-0.514 0.573,-0.837 0.135,-0.324 0.202,-0.672 0.202,-1.049 0,-0.387 -0.067,-0.743 -0.202,-1.065 -0.135,-0.324 -0.327,-0.602 -0.573,-0.838 -0.247,-0.235 -0.546,-0.417 -0.899,-0.546 -0.352,-0.129 -0.746,-0.193 -1.18,-0.193 -0.435,0 -0.828,0.064 -1.181,0.193 -0.353,0.129 -0.652,0.311 -0.899,0.546 -0.246,0.236 -0.438,0.514 -0.572,0.838 -0.135,0.322 -0.203,0.678 -0.203,1.065" /><g
           transform="translate(115.9661,116.179)"
           id="g254"><path
             id="path256"
             style="fill:#00aeef;fill-opacity:1;fill-rule:nonzero;stroke:none"
             d="m 0,0 c -0.258,0.035 -0.561,0.067 -0.908,0.097 -0.346,0.029 -0.654,0.044 -0.925,0.044 -0.998,0 -1.805,-0.167 -2.423,-0.502 -0.616,-0.335 -1.072,-0.819 -1.365,-1.454 v -12.476 h -5.093 V 4.776 h 4.811 l 0.141,-2.274 c 0.481,0.823 1.075,1.466 1.78,1.93 0.704,0.464 1.527,0.696 2.467,0.696 0.269,0 0.555,-0.024 0.855,-0.07 0.299,-0.048 0.543,-0.101 0.73,-0.159 z" /></g><g
           transform="translate(122.0811,111.2276)"
           id="g258"><path
             id="path260"
             style="fill:#00aeef;fill-opacity:1;fill-rule:nonzero;stroke:none"
             d="m 0,0 c 0,-0.776 0.07,-1.504 0.211,-2.185 0.141,-0.682 0.367,-1.272 0.678,-1.771 0.312,-0.499 0.717,-0.896 1.216,-1.189 0.5,-0.294 1.113,-0.44 1.842,-0.44 0.704,0 1.306,0.146 1.806,0.44 0.499,0.293 0.907,0.69 1.225,1.189 0.316,0.499 0.546,1.089 0.687,1.771 0.14,0.681 0.212,1.409 0.212,2.185 V 0.37 C 7.877,1.122 7.805,1.836 7.665,2.511 7.524,3.186 7.294,3.78 6.978,4.291 6.66,4.802 6.249,5.207 5.744,5.506 5.239,5.806 4.628,5.956 3.912,5.956 3.207,5.956 2.605,5.806 2.105,5.506 1.606,5.207 1.201,4.802 0.889,4.291 0.578,3.78 0.352,3.186 0.211,2.511 0.07,1.836 0,1.122 0,0.37 Z m -5.093,0.37 c 0,1.386 0.199,2.672 0.599,3.859 0.399,1.186 0.981,2.211 1.745,3.075 0.763,0.864 1.706,1.542 2.828,2.035 1.122,0.494 2.399,0.741 3.833,0.741 1.444,0 2.731,-0.247 3.858,-0.741 C 8.898,8.846 9.847,8.168 10.616,7.304 11.386,6.44 11.97,5.415 12.37,4.229 12.768,3.042 12.969,1.756 12.969,0.37 V 0 c 0,-1.398 -0.201,-2.687 -0.599,-3.868 -0.4,-1.18 -0.984,-2.202 -1.754,-3.066 C 9.847,-7.797 8.904,-8.473 7.788,-8.96 6.672,-9.448 5.392,-9.692 3.947,-9.692 c -1.445,0 -2.729,0.244 -3.85,0.732 -1.123,0.487 -2.069,1.163 -2.837,2.026 -0.77,0.864 -1.355,1.886 -1.754,3.066 -0.4,1.181 -0.599,2.47 -0.599,3.868 z" /></g><g
           transform="translate(142.8735,120.9546)"
           id="g262"><path
             id="path264"
             style="fill:#00aeef;fill-opacity:1;fill-rule:nonzero;stroke:none"
             d="m 0,0 0.158,-2.203 c 0.658,0.823 1.451,1.454 2.379,1.894 0.928,0.441 1.962,0.662 3.101,0.662 0.905,0 1.728,-0.127 2.467,-0.379 0.741,-0.253 1.375,-0.668 1.903,-1.243 0.529,-0.576 0.937,-1.328 1.226,-2.255 0.287,-0.928 0.431,-2.068 0.431,-3.419 V -19.066 H 6.572 v 12.159 c 0,0.61 -0.067,1.115 -0.202,1.515 -0.136,0.4 -0.332,0.716 -0.59,0.952 -0.259,0.234 -0.577,0.402 -0.952,0.502 -0.376,0.099 -0.811,0.149 -1.304,0.149 -0.752,0 -1.395,-0.164 -1.93,-0.493 C 1.06,-4.611 0.628,-5.057 0.299,-5.622 v -13.444 h -5.092 l 0,19.066 z" /></g><g
           transform="translate(163.1726,120.9546)"
           id="g266"><path
             id="path268"
             style="fill:#00aeef;fill-opacity:1;fill-rule:nonzero;stroke:none"
             d="m 0,0 0.159,-2.132 c 0.634,0.775 1.407,1.383 2.318,1.823 0.909,0.441 1.964,0.662 3.162,0.662 1.139,0 2.147,-0.23 3.022,-0.688 0.875,-0.458 1.554,-1.198 2.035,-2.22 0.624,0.904 1.407,1.615 2.353,2.132 0.946,0.517 2.07,0.776 3.374,0.776 0.928,0 1.772,-0.13 2.529,-0.388 0.758,-0.259 1.404,-0.676 1.938,-1.252 0.535,-0.575 0.946,-1.324 1.234,-2.246 0.287,-0.922 0.432,-2.052 0.432,-3.392 v -12.141 h -5.111 v 12.141 c 0,0.634 -0.067,1.157 -0.202,1.568 -0.136,0.411 -0.326,0.731 -0.572,0.961 -0.248,0.228 -0.548,0.387 -0.899,0.475 -0.353,0.088 -0.753,0.132 -1.199,0.132 -0.787,0 -1.445,-0.196 -1.974,-0.59 -0.528,-0.394 -0.928,-0.925 -1.197,-1.594 0,-0.06 0.002,-0.124 0.008,-0.195 0.006,-0.07 0.009,-0.135 0.009,-0.193 V -19.066 H 6.326 V -6.96 c 0,0.634 -0.064,1.157 -0.193,1.568 -0.129,0.411 -0.318,0.734 -0.564,0.969 -0.247,0.235 -0.549,0.4 -0.908,0.494 -0.358,0.093 -0.761,0.14 -1.206,0.14 -0.753,0 -1.387,-0.158 -1.904,-0.476 -0.517,-0.316 -0.928,-0.757 -1.233,-1.32 v -13.481 h -5.093 l 0,19.066 z" /></g><g
           transform="translate(197.8335,117.1834)"
           id="g270"><path
             id="path272"
             style="fill:#00aeef;fill-opacity:1;fill-rule:nonzero;stroke:none"
             d="M 0,0 C -0.552,0 -1.037,-0.097 -1.454,-0.29 -1.871,-0.485 -2.23,-0.754 -2.528,-1.101 -2.828,-1.448 -3.072,-1.862 -3.26,-2.344 -3.448,-2.825 -3.584,-3.36 -3.666,-3.947 h 7.085 v 0.405 c -0.012,0.505 -0.085,0.975 -0.22,1.41 -0.136,0.435 -0.341,0.811 -0.618,1.128 -0.275,0.317 -0.628,0.563 -1.057,0.74 C 1.095,-0.088 0.587,0 0,0 m 0.581,-15.648 c -1.48,0 -2.805,0.242 -3.973,0.723 -1.17,0.482 -2.161,1.14 -2.978,1.974 -0.817,0.833 -1.439,1.811 -1.868,2.934 -0.429,1.121 -0.643,2.322 -0.643,3.603 v 0.688 c 0,1.444 0.208,2.769 0.625,3.973 0.418,1.204 1.011,2.241 1.78,3.11 0.769,0.87 1.703,1.548 2.802,2.035 1.099,0.488 2.329,0.732 3.692,0.732 1.374,0 2.584,-0.227 3.629,-0.679 C 4.693,2.993 5.571,2.358 6.282,1.542 6.992,0.726 7.527,-0.258 7.885,-1.41 8.244,-2.561 8.423,-3.842 8.423,-5.25 V -7.418 H -3.718 c 0.082,-0.623 0.25,-1.187 0.502,-1.692 0.253,-0.505 0.575,-0.936 0.969,-1.295 0.394,-0.359 0.855,-0.637 1.383,-0.837 0.529,-0.2 1.122,-0.299 1.78,-0.299 0.929,0 1.785,0.173 2.573,0.519 0.787,0.346 1.462,0.884 2.026,1.613 l 2.502,-2.802 C 7.712,-12.646 7.33,-13.069 6.872,-13.48 6.414,-13.891 5.874,-14.258 5.251,-14.582 4.628,-14.904 3.927,-15.163 3.145,-15.356 2.364,-15.551 1.509,-15.648 0.581,-15.648" /></g><g
           transform="translate(213.8338,120.9546)"
           id="g274"><path
             id="path276"
             style="fill:#00aeef;fill-opacity:1;fill-rule:nonzero;stroke:none"
             d="m 0,0 0.158,-2.203 c 0.658,0.823 1.451,1.454 2.379,1.894 0.928,0.441 1.962,0.662 3.101,0.662 0.905,0 1.728,-0.127 2.467,-0.379 0.741,-0.253 1.375,-0.668 1.903,-1.243 0.529,-0.576 0.937,-1.328 1.226,-2.255 0.287,-0.928 0.431,-2.068 0.431,-3.419 V -19.066 H 6.572 v 12.159 c 0,0.61 -0.067,1.115 -0.202,1.515 -0.136,0.4 -0.332,0.716 -0.59,0.952 -0.259,0.234 -0.577,0.402 -0.952,0.502 -0.376,0.099 -0.811,0.149 -1.304,0.149 -0.752,0 -1.395,-0.164 -1.93,-0.493 C 1.06,-4.611 0.628,-5.057 0.299,-5.622 v -13.444 h -5.092 l 0,19.066 z" /></g><g
           transform="translate(235.4548,125.6422)"
           id="g278"><path
             id="path280"
             style="fill:#00aeef;fill-opacity:1;fill-rule:nonzero;stroke:none"
             d="M 0,0 V -4.688 H 3.26 V -8.424 H 0 v -9.515 c 0,-0.399 0.041,-0.728 0.123,-0.986 0.082,-0.259 0.206,-0.462 0.37,-0.608 0.165,-0.148 0.368,-0.247 0.608,-0.3 0.241,-0.053 0.526,-0.079 0.855,-0.079 0.306,0 0.584,0.012 0.837,0.035 0.252,0.023 0.473,0.053 0.661,0.088 v -3.859 c -0.423,-0.129 -0.884,-0.238 -1.384,-0.326 -0.499,-0.088 -1.066,-0.132 -1.7,-0.132 -0.834,0 -1.585,0.103 -2.256,0.308 -0.669,0.205 -1.241,0.532 -1.717,0.978 -0.476,0.447 -0.843,1.028 -1.101,1.744 -0.259,0.717 -0.388,1.581 -0.388,2.591 v 10.061 h -2.785 v 3.736 h 2.785 V 0 Z" /></g></g></g></g></svg>