<?xml version="1.0" encoding="UTF-8" standalone="no"?>
<svg
   xmlns:dc="http://purl.org/dc/elements/1.1/"
   xmlns:cc="http://creativecommons.org/ns#"
   xmlns:rdf="http://www.w3.org/1999/02/22-rdf-syntax-ns#"
   xmlns:svg="http://www.w3.org/2000/svg"
   xmlns="http://www.w3.org/2000/svg"
   viewBox="0 0 283.65067 142.23199"
   height="142.23199"
   width="283.65067"
   xml:space="preserve"
   id="svg2"
   version="1.1"><metadata
     id="metadata8"><rdf:RDF><cc:Work
         rdf:about=""><dc:format>image/svg+xml</dc:format><dc:type
           rdf:resource="http://purl.org/dc/dcmitype/StillImage" /></cc:Work></rdf:RDF></metadata><defs
     id="defs6"><clipPath
       id="clipPath18"
       clipPathUnits="userSpaceOnUse"><path
         id="path16"
         d="M 0,106.674 H 212.738 V 0 H 0 Z" /></clipPath></defs><g
     transform="matrix(1.3333333,0,0,-1.3333333,0,142.232)"
     id="g10"><g
       id="g12"><g
         clip-path="url(#clipPath18)"
         id="g14"><g
           transform="translate(23.2085,16.4014)"
           id="g20"><path
             id="path22"
             style="fill:#006eb4;fill-opacity:1;fill-rule:nonzero;stroke:none"
             d="m 0,0 c -0.545,-0.293 -1.845,-0.524 -3.167,-0.524 -4.446,0 -6.732,3.251 -6.732,7.53 0,4.279 2.286,7.53 6.649,7.53 1.489,0 2.705,-0.399 3.25,-0.609 l -0.146,-2.411 c -0.546,0.272 -1.405,0.797 -2.769,0.797 -2.223,0 -4.132,-1.511 -4.132,-5.307 0,-3.797 1.909,-5.307 4.132,-5.307 1.301,0 2.161,0.315 2.769,0.756 z" /></g><g
           transform="translate(32.9009,17.9336)"
           id="g24"><path
             id="path26"
             style="fill:#006eb4;fill-opacity:1;fill-rule:nonzero;stroke:none"
             d="m 0,0 c 1.699,0 3.063,1.447 3.063,5.474 0,4.027 -1.364,5.474 -3.063,5.474 -1.699,0 -3.062,-1.447 -3.062,-5.474 C -3.062,1.447 -1.699,0 0,0 m 0,13.003 c 3.041,0 5.832,-2.264 5.832,-7.529 0,-5.265 -2.791,-7.531 -5.832,-7.531 -3.042,0 -5.831,2.266 -5.831,7.531 0,5.265 2.789,7.529 5.831,7.529" /></g><g
           transform="translate(54.9253,28.2939)"
           id="g28"><path
             id="path30"
             style="fill:#006eb4;fill-opacity:1;fill-rule:nonzero;stroke:none"
             d="m 0,0 h -0.042 l -3.67,-12.207 H -5.621 L -9.124,0 h -0.042 v -12.207 h -2.432 V 2.434 h 4.006 l 3.019,-10.928 h 0.042 l 3.084,10.928 h 3.88 V -12.207 H 0 Z" /></g><g
           transform="translate(74.1182,28.2939)"
           id="g32"><path
             id="path34"
             style="fill:#006eb4;fill-opacity:1;fill-rule:nonzero;stroke:none"
             d="m 0,0 h -0.042 l -3.67,-12.207 H -5.621 L -9.124,0 h -0.041 v -12.207 h -2.433 V 2.434 h 4.006 l 3.019,-10.928 h 0.043 l 3.083,10.928 h 3.88 V -12.207 H 0 Z" /></g><g
           transform="translate(86.7524,17.9336)"
           id="g36"><path
             id="path38"
             style="fill:#006eb4;fill-opacity:1;fill-rule:nonzero;stroke:none"
             d="m 0,0 c 1.699,0 3.063,1.447 3.063,5.474 0,4.027 -1.364,5.474 -3.063,5.474 -1.699,0 -3.062,-1.447 -3.062,-5.474 C -3.062,1.447 -1.699,0 0,0 m 0,13.003 c 3.042,0 5.832,-2.264 5.832,-7.529 0,-5.265 -2.79,-7.531 -5.832,-7.531 -3.041,0 -5.83,2.266 -5.83,7.531 0,5.265 2.789,7.529 5.83,7.529" /></g><g
           transform="translate(97.1787,30.728)"
           id="g40"><path
             id="path42"
             style="fill:#006eb4;fill-opacity:1;fill-rule:nonzero;stroke:none"
             d="M 0,0 H 3.188 L 8.054,-11.495 H 8.096 V 0 h 2.433 V -14.641 H 7.319 L 2.475,-3.231 H 2.432 v -11.41 H 0 Z" /></g><g
           transform="translate(125.6846,17.9336)"
           id="g44"><path
             id="path46"
             style="fill:#006eb4;fill-opacity:1;fill-rule:nonzero;stroke:none"
             d="m 0,0 c 1.699,0 3.063,1.447 3.063,5.474 0,4.027 -1.364,5.474 -3.063,5.474 -1.699,0 -3.062,-1.447 -3.062,-5.474 C -3.062,1.447 -1.699,0 0,0 m 0,13.003 c 3.042,0 5.832,-2.264 5.832,-7.529 0,-5.265 -2.79,-7.531 -5.832,-7.531 -3.042,0 -5.831,2.266 -5.831,7.531 0,5.265 2.789,7.529 5.831,7.529" /></g><g
           transform="translate(144.7695,16.4014)"
           id="g48"><path
             id="path50"
             style="fill:#006eb4;fill-opacity:1;fill-rule:nonzero;stroke:none"
             d="m 0,0 c -0.545,-0.293 -1.845,-0.524 -3.167,-0.524 -4.446,0 -6.732,3.251 -6.732,7.53 0,4.279 2.286,7.53 6.649,7.53 1.489,0 2.705,-0.399 3.25,-0.609 l -0.146,-2.411 c -0.546,0.272 -1.406,0.797 -2.77,0.797 -2.223,0 -4.131,-1.511 -4.131,-5.307 0,-3.797 1.908,-5.307 4.131,-5.307 1.302,0 2.161,0.315 2.77,0.756 z" /></g><g
           transform="translate(149.2178,30.728)"
           id="g52"><path
             id="path54"
             style="fill:#006eb4;fill-opacity:1;fill-rule:nonzero;stroke:none"
             d="M 0,0 H 7.698 V -2.14 H 2.686 v -3.902 h 4.74 v -2.139 h -4.74 v -4.32 h 5.221 v -2.14 H 0 Z" /></g><g
           transform="translate(168.5791,21.6665)"
           id="g56"><path
             id="path58"
             style="fill:#006eb4;fill-opacity:1;fill-rule:nonzero;stroke:none"
             d="M 0,0 -1.847,6.837 H -1.888 L -3.902,0 Z M 0.566,-2.056 H -4.469 L -5.517,-5.58 h -2.685 l 4.909,14.642 h 2.936 L 4.362,-5.58 H 1.594 Z" /></g><g
           transform="translate(176.6968,30.728)"
           id="g60"><path
             id="path62"
             style="fill:#006eb4;fill-opacity:1;fill-rule:nonzero;stroke:none"
             d="M 0,0 H 3.188 L 8.054,-11.495 H 8.096 V 0 h 2.433 V -14.641 H 7.319 L 2.475,-3.231 H 2.432 v -11.41 H 0 Z" /></g><g
           transform="translate(192.2197,18.9185)"
           id="g64"><path
             id="path66"
             style="fill:#006eb4;fill-opacity:1;fill-rule:nonzero;stroke:none"
             d="m 0,0 c 0.524,-0.336 1.678,-0.901 3.104,-0.901 1.174,0 2.223,0.65 2.223,2.118 0,1.049 -0.608,1.511 -1.909,2.224 L 2.055,4.195 c -1.447,0.797 -2.391,1.951 -2.391,3.838 0,2.622 2.161,3.986 4.614,3.986 1.552,0 2.643,-0.399 3.063,-0.524 L 7.215,9.25 C 6.565,9.502 5.705,9.879 4.467,9.879 3.125,9.879 2.432,9.167 2.432,8.16 2.432,7.069 3.167,6.649 3.985,6.188 L 5.558,5.306 c 1.72,-0.964 2.538,-1.887 2.538,-3.943 0,-2.977 -2.119,-4.405 -4.908,-4.405 -1.469,0 -2.601,0.21 -3.335,0.651 z" /></g><g
           transform="translate(200.6738,57.9902)"
           id="g68"><path
             id="path70"
             style="fill:#005283;fill-opacity:1;fill-rule:nonzero;stroke:none"
             d="m 0,0 c -3.565,1.752 -7.286,3.188 -11.122,4.324 -4.099,1.224 -8.342,2.059 -12.645,2.453 -4.304,0.384 -8.682,0.332 -13.024,-0.325 -2.174,-0.323 -4.312,-0.808 -6.406,-1.385 -2.095,-0.577 -4.153,-1.232 -6.171,-1.93 -4.041,-1.388 -7.956,-2.838 -11.906,-3.891 -2.006,-0.539 -4.016,-1.012 -6.027,-1.429 -2.012,-0.41 -4.027,-0.741 -6.039,-0.961 -2.01,-0.214 -4.017,-0.332 -6,-0.298 -0.991,0.018 -1.974,0.075 -2.947,0.176 l -0.358,0.039 -0.37,0.044 c -0.24,0.032 -0.472,0.064 -0.707,0.101 -0.468,0.075 -0.933,0.164 -1.392,0.266 -1.837,0.417 -3.6,1.058 -5.277,1.945 -1.678,0.881 -3.272,1.994 -4.83,3.251 -1.563,1.253 -3.11,2.644 -4.71,4.055 -1.514,1.336 -2.975,2.773 -4.42,4.261 -2.898,2.971 -5.733,6.139 -8.812,9.192 -1.547,1.52 -3.155,3.006 -4.861,4.412 -0.852,0.702 -1.729,1.385 -2.633,2.036 -0.454,0.33 -0.902,0.643 -1.382,0.964 -0.459,0.304 -0.929,0.602 -1.403,0.893 -3.787,2.319 -7.884,4.156 -12.188,5.311 -2.146,0.578 -4.34,1.003 -6.556,1.23 -1.106,0.113 -2.218,0.182 -3.332,0.203 -0.557,0.01 -1.108,0.01 -1.67,-0.003 -0.562,-0.011 -1.098,-0.038 -1.645,-0.07 -4.346,-0.264 -8.695,-0.993 -12.85,-2.339 -2.077,-0.661 -4.095,-1.494 -6.046,-2.436 -1.947,-0.95 -3.819,-2.032 -5.614,-3.209 -0.897,-0.591 -1.775,-1.204 -2.639,-1.835 -0.86,-0.632 -1.704,-1.286 -2.536,-1.952 -0.829,-0.666 -1.642,-1.353 -2.447,-2.045 l -1.201,-1.047 -0.624,-0.564 c -0.013,-0.01 -0.021,-0.024 -0.021,-0.041 0,-0.03 0.029,-0.054 0.058,-0.054 0.016,0 0.041,0.016 0.041,0.016 3.318,2.209 6.678,4.341 10.174,6.14 3.717,1.918 7.603,3.41 11.605,4.34 4.003,0.938 8.103,1.335 12.213,1.32 0.511,0 1.035,-0.006 1.53,-0.02 0.495,-0.016 1.002,-0.041 1.502,-0.077 1,-0.072 1.999,-0.186 2.99,-0.339 1.983,-0.309 3.943,-0.762 5.856,-1.37 3.824,-1.224 7.477,-2.986 10.834,-5.203 0.419,-0.277 0.833,-0.56 1.246,-0.853 0.393,-0.277 0.806,-0.579 1.201,-0.881 0.798,-0.605 1.578,-1.242 2.344,-1.903 1.529,-1.323 2.998,-2.743 4.437,-4.225 2.894,-2.947 5.654,-6.133 8.632,-9.256 1.494,-1.556 3.043,-3.096 4.696,-4.569 1.57,-1.391 3.155,-2.85 4.897,-4.243 1.74,-1.389 3.635,-2.71 5.709,-3.787 2.073,-1.078 4.317,-1.907 6.618,-2.382 0.575,-0.122 1.151,-0.222 1.731,-0.305 0.286,-0.041 0.582,-0.078 0.866,-0.11 l 0.416,-0.045 0.432,-0.041 c 1.134,-0.1 2.266,-0.147 3.392,-0.15 2.248,-0.009 4.474,0.158 6.662,0.455 4.378,0.589 8.62,1.629 12.742,2.894 2.091,0.634 4.145,1.359 6.142,2.133 2.003,0.772 3.965,1.575 5.917,2.342 1.953,0.764 3.888,1.517 5.844,2.164 1.954,0.649 3.925,1.209 5.915,1.642 3.99,0.851 8.122,1.205 12.268,1.153 4.149,-0.045 8.309,-0.5 12.43,-1.289 2.061,-0.396 4.114,-0.862 6.151,-1.408 1.021,-0.269 2.035,-0.557 3.047,-0.867 0.505,-0.155 1.008,-0.317 1.512,-0.481 0.202,-0.065 0.573,-0.19 0.7,-0.233 0.028,-0.009 0.014,-0.007 0.045,-0.014 0.03,-0.008 0.057,0.024 0.057,0.053 C 0.041,-0.012 0,0 0,0" /></g><g
           transform="translate(184.3462,42.5581)"
           id="g72"><path
             id="path74"
             style="fill:#006eb4;fill-opacity:1;fill-rule:nonzero;stroke:none"
             d="m 0,0 c -3.157,2.263 -6.554,4.201 -10.062,5.915 -1.871,0.917 -3.786,1.747 -5.727,2.521 -1.945,0.766 -3.924,1.455 -5.929,2.073 -2.01,0.606 -4.046,1.137 -6.109,1.578 -2.063,0.437 -4.149,0.782 -6.253,1.032 -2.103,0.252 -4.226,0.385 -6.356,0.421 -1.064,0.016 -2.13,0.007 -3.197,-0.032 -1.068,-0.043 -2.134,-0.116 -3.199,-0.216 -2.129,-0.204 -4.255,-0.518 -6.356,-0.963 -0.526,-0.113 -1.05,-0.233 -1.573,-0.36 l -0.776,-0.196 -0.778,-0.211 -2.974,-0.796 c -3.961,-1.03 -7.924,-2.071 -11.843,-2.787 -1.957,-0.366 -3.891,-0.643 -5.788,-0.737 -0.951,-0.047 -1.895,-0.049 -2.85,-0.008 -0.955,0.042 -1.924,0.122 -2.916,0.221 -0.495,0.051 -0.994,0.108 -1.5,0.166 l -0.757,0.09 -0.191,0.024 -0.049,0.005 h -0.002 l -0.081,0.012 c -0.107,0.016 -0.213,0.032 -0.319,0.05 -0.852,0.143 -1.701,0.371 -2.537,0.669 -0.837,0.3 -1.664,0.672 -2.477,1.1 -0.814,0.428 -1.616,0.908 -2.402,1.436 -1.573,1.056 -3.083,2.284 -4.55,3.606 -1.466,1.325 -2.9,2.732 -4.342,4.18 l -2.184,2.201 c -0.736,0.74 -1.502,1.488 -2.274,2.214 -1.548,1.456 -3.178,2.855 -4.889,4.171 -1.713,1.311 -3.509,2.542 -5.394,3.62 -0.945,0.542 -1.896,1.045 -2.883,1.526 -0.953,0.462 -1.924,0.909 -2.909,1.33 -3.935,1.689 -8.194,2.934 -12.542,3.319 -2.168,0.194 -4.321,0.227 -6.479,0.094 -2.153,-0.137 -4.288,-0.447 -6.385,-0.911 -2.096,-0.462 -4.146,-1.097 -6.134,-1.867 -0.994,-0.386 -1.972,-0.805 -2.933,-1.256 -0.961,-0.454 -1.901,-0.943 -2.826,-1.459 -1.848,-1.028 -3.622,-2.177 -5.311,-3.427 -0.846,-0.624 -1.672,-1.27 -2.479,-1.939 -0.803,-0.672 -1.589,-1.365 -2.353,-2.076 -0.764,-0.711 -1.508,-1.444 -2.228,-2.197 -0.719,-0.753 -1.425,-1.519 -2.098,-2.312 -0.674,-0.791 -1.327,-1.599 -1.954,-2.425 -0.483,-0.632 -0.941,-1.281 -1.378,-1.943 -0.003,-0.003 -0.017,-0.024 -0.017,-0.037 0,-0.024 0.02,-0.047 0.051,-0.047 0.01,0 0.021,0.005 0.029,0.013 l 0.004,0.005 c 1.196,1.379 2.471,2.684 3.8,3.923 0.753,0.697 1.513,1.385 2.296,2.044 0.781,0.662 1.576,1.303 2.384,1.926 0.81,0.621 1.635,1.22 2.474,1.796 0.836,0.577 1.686,1.134 2.551,1.662 1.731,1.056 3.51,2.017 5.337,2.861 0.913,0.42 1.839,0.811 2.775,1.169 0.933,0.364 1.877,0.694 2.831,0.99 1.905,0.592 3.847,1.041 5.801,1.359 1.956,0.313 3.93,0.474 5.898,0.487 1.968,0.019 3.947,-0.106 5.876,-0.389 1.926,-0.29 3.822,-0.73 5.678,-1.331 1.857,-0.597 3.668,-1.355 5.463,-2.195 0.897,-0.424 1.785,-0.872 2.67,-1.341 0.851,-0.454 1.708,-0.948 2.533,-1.464 1.656,-1.038 3.253,-2.17 4.78,-3.411 1.531,-1.235 2.992,-2.574 4.425,-3.969 0.72,-0.699 1.417,-1.404 2.126,-2.136 l 2.14,-2.226 c 1.444,-1.499 2.928,-3.01 4.52,-4.453 1.59,-1.445 3.276,-2.841 5.125,-4.095 0.922,-0.627 1.886,-1.219 2.898,-1.749 1.015,-0.528 2.077,-1.001 3.182,-1.39 1.107,-0.388 2.261,-0.693 3.443,-0.885 0.149,-0.025 0.298,-0.048 0.445,-0.069 l 0.112,-0.014 0.142,-0.018 0.192,-0.022 0.778,-0.087 c 0.522,-0.058 1.045,-0.114 1.576,-0.165 2.116,-0.218 4.373,-0.303 6.591,-0.151 2.222,0.147 4.375,0.496 6.467,0.922 2.09,0.437 4.13,0.953 6.15,1.498 2.02,0.546 4.021,1.121 6.006,1.727 l 2.975,0.914 0.705,0.221 0.717,0.209 c 0.476,0.134 0.953,0.262 1.432,0.384 1.917,0.488 3.862,0.877 5.828,1.156 0.983,0.14 1.973,0.254 2.964,0.34 0.991,0.092 1.987,0.158 2.984,0.2 1.997,0.085 3.999,0.056 6.007,-0.043 2.006,-0.102 4.011,-0.301 6.012,-0.58 2.001,-0.271 3.996,-0.63 5.978,-1.065 1.986,-0.425 3.955,-0.932 5.914,-1.506 1.96,-0.562 3.899,-1.21 5.825,-1.903 1.924,-0.702 3.833,-1.459 5.715,-2.286 1.648,-0.712 3.272,-1.484 4.868,-2.32 0,0 0.048,-0.02 0.076,0.006 C 0.05,-0.036 0,0 0,0" /></g><g
           transform="translate(143.6211,38.8833)"
           id="g76"><path
             id="path78"
             style="fill:#0097d9;fill-opacity:1;fill-rule:nonzero;stroke:none"
             d="m 0,0 v 0 c -1.083,0.749 -2.172,1.491 -3.305,2.183 -1.304,0.794 -2.639,1.553 -4.008,2.253 -2.734,1.407 -5.609,2.604 -8.641,3.446 -1.515,0.417 -3.071,0.735 -4.659,0.936 -0.808,0.1 -1.571,0.161 -2.36,0.212 -0.786,0.052 -1.572,0.08 -2.361,0.092 -3.153,0.046 -6.319,-0.289 -9.326,-0.706 -3.01,-0.402 -5.883,-0.759 -8.705,-0.706 l -1.105,0.026 -1.113,0.032 c -0.74,0.023 -1.476,0.055 -2.207,0.098 -1.46,0.087 -2.901,0.221 -4.316,0.426 -1.417,0.202 -2.811,0.465 -4.185,0.815 -1.374,0.349 -2.727,0.778 -4.065,1.278 -2.686,0.984 -5.316,2.245 -7.904,3.647 -2.596,1.392 -5.157,2.916 -7.691,4.506 l -1.906,1.197 c -0.675,0.426 -1.359,0.837 -2.053,1.231 -1.387,0.79 -2.812,1.516 -4.271,2.173 -1.463,0.647 -2.961,1.224 -4.49,1.72 -1.529,0.494 -3.088,0.912 -4.674,1.215 -3.171,0.613 -6.442,0.838 -9.678,0.54 -1.616,-0.148 -3.224,-0.403 -4.794,-0.801 -0.785,-0.196 -1.561,-0.423 -2.327,-0.676 -0.763,-0.254 -1.525,-0.54 -2.25,-0.843 -1.447,-0.606 -2.875,-1.282 -4.265,-2.044 -1.391,-0.762 -2.728,-1.63 -3.994,-2.58 -1.27,-0.951 -2.45,-2.008 -3.553,-3.119 -1.096,-1.12 -2.112,-2.3 -3.053,-3.525 -0.472,-0.611 -0.928,-1.233 -1.369,-1.861 -0.438,-0.632 -0.863,-1.269 -1.279,-1.912 -0.723,-1.136 -1.412,-2.29 -2.069,-3.463 -0.001,-0.003 -0.007,-0.011 -0.009,-0.028 -0.005,-0.035 0.028,-0.053 0.06,-0.053 0.015,0 0.031,0.008 0.042,0.021 1.876,2.162 3.772,4.291 5.798,6.247 2.153,2.08 4.462,3.937 6.967,5.407 2.504,1.479 5.196,2.584 7.995,3.467 0.697,0.226 1.372,0.428 2.064,0.601 0.689,0.173 1.384,0.321 2.082,0.442 1.397,0.236 2.803,0.391 4.214,0.427 5.652,0.157 11.285,-1.323 16.442,-3.816 1.295,-0.615 2.563,-1.294 3.797,-2.031 0.616,-0.369 1.227,-0.751 1.825,-1.146 l 0.96,-0.63 c 0.321,-0.211 0.644,-0.418 0.968,-0.624 2.596,-1.648 5.239,-3.254 7.985,-4.738 2.753,-1.467 5.613,-2.827 8.635,-3.909 3.022,-1.068 6.214,-1.822 9.401,-2.182 1.592,-0.18 3.18,-0.274 4.75,-0.316 0.783,-0.021 1.564,-0.031 2.341,-0.03 0.39,10e-4 0.777,10e-4 1.163,0.009 l 0.578,0.01 0.592,0.018 c 1.632,0.058 3.222,0.22 4.791,0.451 1.566,0.23 3.086,0.542 4.572,0.838 0.744,0.148 1.48,0.297 2.211,0.434 0.73,0.143 1.455,0.278 2.18,0.398 1.448,0.243 2.895,0.415 4.351,0.537 0.726,0.058 1.458,0.099 2.189,0.122 0.728,0.022 1.479,0.03 2.184,0.016 1.437,-0.029 2.886,-0.179 4.332,-0.412 1.451,-0.226 2.894,-0.549 4.333,-0.929 1.437,-0.377 2.864,-0.83 4.287,-1.318 1.417,-0.496 2.829,-1.031 4.229,-1.606 1.21,-0.487 2.402,-1.038 3.606,-1.57 0,0 0.056,-0.024 0.087,0.017 C 0.039,-0.07 0.045,-0.034 0,0" /></g></g></g></g></svg>