<svg id="Layer_1" data-name="Layer 1" xmlns="http://www.w3.org/2000/svg" viewBox="0 0 153.9 42.52"><defs><style>.cls-1{fill:#1d1d1b;}</style></defs><title>FAO</title><path class="cls-1" d="M38.65,57.94A21.26,21.26,0,1,1,59.91,36.68,21.29,21.29,0,0,1,38.65,57.94ZM38.57,28.3s1.73,1.82,1.73,3.28a1.79,1.79,0,0,1-1.65,2h-.16a1.79,1.79,0,0,1-1.65-2C36.84,30.12,38.54,28.3,38.57,28.3Zm-16,9.56H24.5V34.28h3.26v-1.5H24.5v-2h3.37v-1.5H22.56Zm17.77-9.3h2L40,20H37.38l-2.46,8.57h1.89l.55-1.92h2.48Zm-.85-3.37H37.69l.83-3.73h.14Zm9,8.39c0,2.52,1.16,4.43,3.63,4.43s3.65-1.91,3.65-4.43-1.18-4.43-3.65-4.43S48.46,31.06,48.46,33.58Zm2.06,0c0-1.65.41-3,1.57-3s1.59,1.33,1.59,3-.42,3-1.59,3S50.52,35.22,50.52,33.58Zm-12.78,22A27.53,27.53,0,0,0,38,51.85v-.26c0-2.2-.08-2.94-1.55-3.43-2.26-.74-3.19-3.27-2.69-6.41L26.16,22.49A18.91,18.91,0,0,0,37.74,55.57Zm.9-12.28c-3-.7-4.13-3.44-4.13-5.88L27.88,21.14c-.43.3-.85.62-1.26.95,1.46,3.46,8,19,8,19,1.16,2.79,3.27,1.86,3.78,4.17a5.29,5.29,0,0,1,.13.8h.22a5.29,5.29,0,0,1,.13-.8c.51-2.31,2.61-1.38,3.77-4.17l8-19c-.41-.33-.82-.65-1.26-.95L42.79,37.41c0,2.44-1.12,5.18-4.14,5.88Zm0-4.91a4.14,4.14,0,0,1-3.08-3.18,7.62,7.62,0,0,1,0-2L29.71,20c-.47.25-.92.53-1.37.82,1.74,3.9,7.05,15.82,7.05,15.84.84,1.77,2.31,1.8,2.82,2.86a3.22,3.22,0,0,1,.34,1.23h.2a3.32,3.32,0,0,1,.33-1.23c.51-1.06,2-1.09,2.83-2.86,0,0,5.31-11.94,7.05-15.84-.44-.29-.9-.57-1.37-.82L41.78,33.17a6.74,6.74,0,0,1-.05,2,4.12,4.12,0,0,1-3.07,3.18Zm.08-2.23.09-.72c.36-1.66,1.57-1.45,2.41-3.09l0,0c0-.06,4.13-8.88,5.84-12.56a18.87,18.87,0,0,0-16.87,0l5.86,12.56v0c.84,1.64,2,1.43,2.41,3.09l.09.72Zm18.84.53a18.92,18.92,0,0,0-6.42-14.19L43.56,41.75c.51,3.14-.42,5.67-2.69,6.41-1.46.49-1.54,1.23-1.54,3.43v.26a29.66,29.66,0,0,0,.22,3.72A18.93,18.93,0,0,0,57.56,36.68ZM25.71,42.27s.28.59.51,1,.54.93.54.93l-.5.29s-.38-.63-.73-1.36l-.79.41.67,1.29-.51.29-.67-1.31-1.4.72-.31-.61,3.16-1.65Zm2,3.23.44.53-2.76,2.31-.45-.53,2.74-2.28Zm2.56,2.42.54.4-.7,3.8-.63-.36s.16-.77.18-.85-.4-.24-.75-.49-.71-.55-.75-.57l-.76.45-.53-.46,3.36-1.9Zm-1.6,1.62c.07.06.3.25.54.42a6.38,6.38,0,0,0,.57.36c0-.15.29-1.41.34-1.64Zm3.88-.21A12.2,12.2,0,0,0,34,49.9a13.64,13.64,0,0,0,1.51.45l-.16.55a11.57,11.57,0,0,1-1.18-.3l-1,2.83-.65-.23,1-2.83a11.29,11.29,0,0,1-1.15-.51Zm11.37.72a1.06,1.06,0,0,1,.5.66,1.26,1.26,0,0,1,.06.38c0,.5-.35.89-1,1.09l-.41.13c0,.12.41,1.34.41,1.34l-.63.16-1.07-3.47,1-.3A1.6,1.6,0,0,1,43.92,50.05Zm-1.34.65c0,.11.3,1,.33,1.06l.42-.13a.73.73,0,0,0,.42-.32.46.46,0,0,0,.06-.22.68.68,0,0,0,0-.19.49.49,0,0,0-.23-.28.89.89,0,0,0-.62,0Zm3.48-2.16,3.12,2.29-.55.39-.69-.53s-.36.25-.71.46-.68.37-.71.39.13.85.13.85l-.59.28-.53-3.83ZM46.42,51l.58-.32c.21-.13.38-.24.47-.31l-1.3-1C46.21,49.59,46.4,50.8,46.42,51Zm3.21-5.57,2.72,2.43-.49.57-2.94-.85c.29.28,1.87,2,1.87,2l-.48.43-2.56-2.61.6-.54s2.46.74,2.85.84c-.29-.27-2-1.74-2-1.74Zm1.24-1.81L54,45.4l-.32.56-3.17-1.84Zm1.37-3,.54.28-.05.06a1.54,1.54,0,0,0-.34.57.65.65,0,0,0,0,.48.33.33,0,0,0,.22.17c.24.09.44-.12.68-.37a1.31,1.31,0,0,1,1.41-.53c.68.23.91.83.63,1.66a2.84,2.84,0,0,1-.38.66l0,0-.56-.26.06-.07a2.07,2.07,0,0,0,.39-.62.57.57,0,0,0-.29-.76c-.3-.11-.52.13-.79.4s-.68.71-1.29.51a1,1,0,0,1-.57-.49,1.29,1.29,0,0,1,0-1,2.26,2.26,0,0,1,.38-.7Z" transform="translate(-17.39 -15.42)"/><path class="cls-1" d="M67.78,19.89H72v1.22h-2.7v2.28H71.9v1.23H69.32v3.64H67.78Z" transform="translate(-17.39 -15.42)"/><path class="cls-1" d="M75.37,22c1.26,0,2.71.66,2.71,3.18s-1.45,3.19-2.71,3.19-2.72-.6-2.72-3.19S74.11,22,75.37,22Zm0,5.31c1,0,1.18-1.1,1.18-2.13S76.33,23,75.37,23s-1.19,1.1-1.19,2.13S74.41,27.3,75.37,27.3Z" transform="translate(-17.39 -15.42)"/><path class="cls-1" d="M81.81,22c1.26,0,2.71.66,2.71,3.18s-1.45,3.19-2.71,3.19-2.72-.6-2.72-3.19S80.55,22,81.81,22Zm0,5.31c1,0,1.17-1.1,1.17-2.13S82.77,23,81.81,23s-1.19,1.1-1.19,2.13S80.85,27.3,81.81,27.3Z" transform="translate(-17.39 -15.42)"/><path class="cls-1" d="M90.76,19.27v7.94a9,9,0,0,0,0,1.05H89.42a9.17,9.17,0,0,1,0-1h0a1.67,1.67,0,0,1-1.65,1.06c-1.53,0-2.17-1.47-2.17-3.18,0-2,.81-3.19,2.14-3.19a1.64,1.64,0,0,1,1.59,1h0v-3.7Zm-2.66,8c.88,0,1.18-.95,1.18-2.11s-.34-2.08-1.15-2.08-1.12.8-1.12,2C87,26.55,87.24,27.27,88.1,27.27Z" transform="translate(-17.39 -15.42)"/><path class="cls-1" d="M95.55,22.44a4.31,4.31,0,0,1,2-.45c1.92,0,2.36.93,2.36,2.48v2.7a7,7,0,0,0,.09,1.09H98.6a3.16,3.16,0,0,1-.08-.84h0a2,2,0,0,1-1.73.94,1.77,1.77,0,0,1-1.85-1.81c0-1.68,1.37-2.1,3.25-2.1h.3v-.23A1.07,1.07,0,0,0,97.32,23a2.86,2.86,0,0,0-1.69.6Zm2.92,2.8h-.13c-1.27,0-2,.26-2,1.16a.9.9,0,0,0,1,1c.89,0,1.21-.66,1.21-1.76Z" transform="translate(-17.39 -15.42)"/><path class="cls-1" d="M101.24,23.1a7.47,7.47,0,0,0,0-1h1.39c0,.31,0,.63,0,.94h0a1.79,1.79,0,0,1,1.64-1c1.4,0,1.82,1,1.82,2.29v4h-1.49v-3.7c0-.95-.24-1.35-.85-1.35-.78,0-1,.66-1,1.45v3.6h-1.49Z" transform="translate(-17.39 -15.42)"/><path class="cls-1" d="M112.53,19.27v7.94a9,9,0,0,0,0,1.05h-1.39a9.17,9.17,0,0,1,0-1h0a1.67,1.67,0,0,1-1.65,1.06c-1.53,0-2.17-1.47-2.17-3.18,0-2,.81-3.19,2.14-3.19A1.64,1.64,0,0,1,111,23h0v-3.7Zm-2.66,8c.88,0,1.18-.95,1.18-2.11s-.34-2.08-1.15-2.08-1.12.8-1.12,2C108.78,26.55,109,27.27,109.87,27.27Z" transform="translate(-17.39 -15.42)"/><path class="cls-1" d="M120.77,26.25h-2.88l-.6,2h-1.53l2.8-8.37h1.68l2.7,8.37h-1.58Zm-.32-1.18-1.06-3.91h0l-1.15,3.91Z" transform="translate(-17.39 -15.42)"/><path class="cls-1" d="M123.87,29.22a4,4,0,0,0,1.83.53c1.4,0,1.63-1,1.63-1.94v-.59h0a1.69,1.69,0,0,1-1.63,1c-.86,0-2.16-.57-2.16-3.07,0-1.7.61-3.2,2.23-3.2A1.76,1.76,0,0,1,127.37,23h0c0-.32,0-.63,0-.95h1.34c0,.32,0,.64,0,1v4.55c0,1.93-.59,3.31-2.86,3.31a6.29,6.29,0,0,1-2.12-.38Zm2.15-2c.93,0,1.31-.67,1.31-2.07s-.5-2-1.2-2-1.08.73-1.08,2C125.05,26.56,125.52,27.17,126,27.17Z" transform="translate(-17.39 -15.42)"/><path class="cls-1" d="M130.17,23.1a9.57,9.57,0,0,0,0-1h1.34c0,.37,0,.75,0,1.12h0A1.72,1.72,0,0,1,133.1,22a2.06,2.06,0,0,1,.26,0v1.4a1.47,1.47,0,0,0-.42-.06c-.62,0-1.29.37-1.29,1.52v3.38h-1.48Z" transform="translate(-17.39 -15.42)"/><path class="cls-1" d="M134.46,19.46H136v1.46h-1.53Zm0,2.63H136v6.17h-1.49Z" transform="translate(-17.39 -15.42)"/><path class="cls-1" d="M141.65,28.11a4.27,4.27,0,0,1-1.46.25c-2,0-2.9-1.43-2.9-3.18s.91-3.19,3-3.19a4.05,4.05,0,0,1,1.3.25l-.09,1.18a2.24,2.24,0,0,0-1-.3c-1.13,0-1.62.75-1.62,2.07,0,1.15.55,2,1.69,2a2.46,2.46,0,0,0,1.06-.3Z" transform="translate(-17.39 -15.42)"/><path class="cls-1" d="M147.44,27.24a9.63,9.63,0,0,0,.05,1H146.1c0-.31,0-.63,0-1h0a1.8,1.8,0,0,1-1.65,1.05c-1.4,0-1.82-1.05-1.82-2.29v-4h1.49v3.7c0,.95.26,1.34.89,1.34.79,0,1-.72,1-1.51V22.09h1.48Z" transform="translate(-17.39 -15.42)"/><path class="cls-1" d="M148.93,19.27h1.48v9h-1.48Z" transform="translate(-17.39 -15.42)"/><path class="cls-1" d="M152.45,20.81l1.49-.45v1.73h1.23v1.09h-1.23v3.2c0,.66.24.85.67.85a1.14,1.14,0,0,0,.56-.13v1a2.21,2.21,0,0,1-1,.21c-1.1,0-1.73-.51-1.73-1.8V23.18h-1V22.09h1Z" transform="translate(-17.39 -15.42)"/><path class="cls-1" d="M161,27.24a7.54,7.54,0,0,0,.05,1h-1.39c0-.31,0-.63,0-1h0a1.81,1.81,0,0,1-1.65,1.05c-1.4,0-1.82-1.05-1.82-2.29v-4h1.49v3.7c0,.95.26,1.34.88,1.34.8,0,1-.72,1-1.51V22.09H161Z" transform="translate(-17.39 -15.42)"/><path class="cls-1" d="M162.39,23.1a7.47,7.47,0,0,0,0-1h1.34c0,.37,0,.75,0,1.12h0A1.71,1.71,0,0,1,165.33,22a1.9,1.9,0,0,1,.25,0v1.4a1.37,1.37,0,0,0-.42-.06c-.61,0-1.28.37-1.28,1.52v3.38h-1.49Z" transform="translate(-17.39 -15.42)"/><path class="cls-1" d="M171,28a4.6,4.6,0,0,1-1.84.4c-2,0-2.86-1.43-2.86-3.1,0-1.84,1-3.27,2.54-3.27,1.34,0,2.48.78,2.48,3.3v.29h-3.58c0,1.05.42,1.69,1.57,1.69a2.47,2.47,0,0,0,1.62-.48Zm-1.12-3.32c0-1.09-.36-1.64-1-1.64s-1.1.82-1.1,1.64Z" transform="translate(-17.39 -15.42)"/><path class="cls-1" d="M70.78,33.32c1.74,0,3.33,1.3,3.33,4.31s-1.59,4.3-3.33,4.3-3.33-1.29-3.33-4.3S69,33.32,70.78,33.32Zm0,7.44c1,0,1.75-.83,1.75-3.13s-.78-3.13-1.75-3.13S69,35.32,69,37.63,69.81,40.76,70.78,40.76Z" transform="translate(-17.39 -15.42)"/><path class="cls-1" d="M75.38,36.66a7.54,7.54,0,0,0,0-1h1.35c0,.37,0,.75,0,1.12h0a1.72,1.72,0,0,1,1.57-1.22.93.93,0,0,1,.25,0V37a1.37,1.37,0,0,0-.42-.06c-.61,0-1.28.37-1.28,1.52v3.38H75.38Z" transform="translate(-17.39 -15.42)"/><path class="cls-1" d="M79.62,42.77a4,4,0,0,0,1.83.53c1.4,0,1.63-1,1.63-1.94v-.59h0a1.69,1.69,0,0,1-1.64,1c-.86,0-2.15-.57-2.15-3.07,0-1.7.61-3.2,2.23-3.2a1.76,1.76,0,0,1,1.63,1.06h.05c0-.33,0-.64,0-1h1.35c0,.32,0,.64,0,1v4.55c0,1.94-.59,3.31-2.86,3.31a6.29,6.29,0,0,1-2.12-.38Zm2.15-2.05c.94,0,1.31-.67,1.31-2.07s-.49-2-1.2-2-1.08.73-1.08,2C80.8,40.11,81.27,40.72,81.77,40.72Z" transform="translate(-17.39 -15.42)"/><path class="cls-1" d="M86.17,36a4.21,4.21,0,0,1,2-.46c1.91,0,2.36.94,2.36,2.48v2.7a8.78,8.78,0,0,0,.08,1.09H89.23a3.16,3.16,0,0,1-.08-.84h0a2,2,0,0,1-1.73.94,1.77,1.77,0,0,1-1.84-1.81c0-1.68,1.36-2.1,3.25-2.1h.3v-.23A1.06,1.06,0,0,0,88,36.6a2.94,2.94,0,0,0-1.7.59Zm2.93,2.79H89c-1.27,0-2,.26-2,1.16a.89.89,0,0,0,1,.95c.88,0,1.21-.66,1.21-1.76Z" transform="translate(-17.39 -15.42)"/><path class="cls-1" d="M91.86,36.66a10,10,0,0,0,0-1h1.39c0,.31.05.63.05.94h0a1.8,1.8,0,0,1,1.64-1c1.41,0,1.83,1,1.83,2.29v4H95.26v-3.7c0-1-.24-1.35-.85-1.35-.78,0-1.06.66-1.06,1.45v3.6H91.86Z" transform="translate(-17.39 -15.42)"/><path class="cls-1" d="M98.21,33h1.53v1.46H98.21Zm0,2.63h1.49v6.17H98.23Z" transform="translate(-17.39 -15.42)"/><path class="cls-1" d="M100.87,40.53l2.64-3.77H101V35.64h4v1.27l-2.59,3.78h2.68v1.12h-4.21Z" transform="translate(-17.39 -15.42)"/><path class="cls-1" d="M106.38,36a4.21,4.21,0,0,1,2-.46c1.92,0,2.36.94,2.36,2.48v2.7a8.78,8.78,0,0,0,.08,1.09h-1.34a3.16,3.16,0,0,1-.08-.84h0a2,2,0,0,1-1.72.94,1.77,1.77,0,0,1-1.85-1.81c0-1.68,1.37-2.1,3.25-2.1h.3v-.23a1.06,1.06,0,0,0-1.15-1.17,2.88,2.88,0,0,0-1.69.59Zm2.93,2.79h-.13c-1.27,0-2,.26-2,1.16a.89.89,0,0,0,.95.95c.88,0,1.21-.66,1.21-1.76Z" transform="translate(-17.39 -15.42)"/><path class="cls-1" d="M112.63,34.36l1.49-.45v1.73h1.23v1.09h-1.23v3.2c0,.66.23.85.67.85a1.18,1.18,0,0,0,.56-.13V41.7a2.26,2.26,0,0,1-1,.21c-1.1,0-1.72-.51-1.72-1.8V36.73h-1V35.64h1Z" transform="translate(-17.39 -15.42)"/><path class="cls-1" d="M116.42,33H118v1.46h-1.53Zm0,2.63h1.49v6.17h-1.49Z" transform="translate(-17.39 -15.42)"/><path class="cls-1" d="M122,35.54c1.26,0,2.71.66,2.71,3.18s-1.45,3.19-2.71,3.19-2.73-.6-2.73-3.19S120.71,35.54,122,35.54Zm0,5.31c1,0,1.17-1.1,1.17-2.13s-.21-2.12-1.17-2.12-1.19,1.09-1.19,2.12S121,40.85,122,40.85Z" transform="translate(-17.39 -15.42)"/><path class="cls-1" d="M125.85,36.66a7.54,7.54,0,0,0,0-1h1.39c0,.31,0,.63,0,.94h0a1.79,1.79,0,0,1,1.64-1c1.4,0,1.82,1,1.82,2.29v4h-1.49v-3.7c0-1-.24-1.35-.85-1.35-.78,0-1,.66-1,1.45v3.6h-1.49Z" transform="translate(-17.39 -15.42)"/><path class="cls-1" d="M137.74,35.54c1.26,0,2.71.66,2.71,3.18s-1.45,3.19-2.71,3.19-2.72-.6-2.72-3.19S136.48,35.54,137.74,35.54Zm0,5.31c1,0,1.18-1.1,1.18-2.13s-.22-2.12-1.18-2.12-1.18,1.09-1.18,2.12S136.78,40.85,137.74,40.85Z" transform="translate(-17.39 -15.42)"/><path class="cls-1" d="M142.11,36.73h-1V35.64h1V34.38a1.57,1.57,0,0,1,1.77-1.71,5.2,5.2,0,0,1,1.07.15l-.06,1.08a2.14,2.14,0,0,0-.59-.1.69.69,0,0,0-.71.77v1.07h1.13v1.09h-1.13v5.08h-1.48Z" transform="translate(-17.39 -15.42)"/><path class="cls-1" d="M149.29,34.36l1.48-.45v1.73H152v1.09h-1.24v3.2c0,.66.24.85.67.85a1.19,1.19,0,0,0,.57-.13V41.7a2.26,2.26,0,0,1-1,.21c-1.1,0-1.72-.51-1.72-1.8V36.73h-1V35.64h1Z" transform="translate(-17.39 -15.42)"/><path class="cls-1" d="M153,32.82h1.49v3.61h0a1.65,1.65,0,0,1,1.53-.89c1.4,0,1.83,1,1.83,2.29v4h-1.49v-3.7c0-1-.24-1.35-.85-1.35-.78,0-1.06.66-1.06,1.45v3.6H153Z" transform="translate(-17.39 -15.42)"/><path class="cls-1" d="M163.71,41.51a4.62,4.62,0,0,1-1.85.4c-2,0-2.85-1.43-2.85-3.1,0-1.84,1-3.27,2.54-3.27,1.33,0,2.47.78,2.47,3.3v.29h-3.57c0,1,.42,1.69,1.57,1.69a2.49,2.49,0,0,0,1.62-.48Zm-1.13-3.32c0-1.09-.36-1.64-1-1.64s-1.1.83-1.1,1.64Z" transform="translate(-17.39 -15.42)"/><path class="cls-1" d="M69.25,47v5.42c0,1.39.41,1.85,1.31,1.85s1.31-.46,1.31-1.85V47h1.54v5.42c0,2.21-1.27,3.07-2.85,3.07s-2.85-.86-2.85-3.07V47Z" transform="translate(-17.39 -15.42)"/><path class="cls-1" d="M74.89,50.21a7.54,7.54,0,0,0,0-1h1.39c0,.31,0,.63,0,.94h0a1.79,1.79,0,0,1,1.64-1c1.4,0,1.82,1,1.82,2.29v4H78.28v-3.7c0-.95-.24-1.35-.85-1.35-.78,0-1.05.66-1.05,1.46v3.59H74.89Z" transform="translate(-17.39 -15.42)"/><path class="cls-1" d="M81.23,46.56h1.54V48H81.23Zm0,2.63h1.48v6.17H81.26Z" transform="translate(-17.39 -15.42)"/><path class="cls-1" d="M84.78,47.92l1.49-.46v1.73H87.5v1.09H86.27v3.2c0,.66.24.85.67.85a1.14,1.14,0,0,0,.56-.13v1.06a2.42,2.42,0,0,1-1,.2c-1.11,0-1.73-.5-1.73-1.8V50.28h-1V49.19h1Z" transform="translate(-17.39 -15.42)"/><path class="cls-1" d="M93,55.06a4.43,4.43,0,0,1-1.84.4c-2,0-2.86-1.43-2.86-3.1,0-1.84,1-3.27,2.54-3.27,1.33,0,2.47.78,2.47,3.3v.29H89.72c0,1,.42,1.69,1.57,1.69a2.49,2.49,0,0,0,1.62-.48Zm-1.13-3.32c0-1.09-.36-1.64-1-1.64s-1.1.83-1.1,1.64Z" transform="translate(-17.39 -15.42)"/><path class="cls-1" d="M99.51,46.37v7.94a8.9,8.9,0,0,0,0,1H98.17a9.17,9.17,0,0,1,0-1h0a1.67,1.67,0,0,1-1.65,1.06c-1.53,0-2.17-1.46-2.17-3.18,0-2,.81-3.19,2.14-3.19a1.64,1.64,0,0,1,1.59,1h0v-3.7Zm-2.66,8c.88,0,1.18-.95,1.18-2.11s-.34-2.08-1.15-2.08-1.12.81-1.12,2C95.76,53.65,96,54.37,96.85,54.37Z" transform="translate(-17.39 -15.42)"/><path class="cls-1" d="M104.2,47H106l2.79,6.57h0V47h1.39v8.37h-1.83l-2.77-6.52h0v6.52H104.2Z" transform="translate(-17.39 -15.42)"/><path class="cls-1" d="M112.06,49.55a4.21,4.21,0,0,1,2-.46c1.92,0,2.36.94,2.36,2.48v2.7a6.85,6.85,0,0,0,.09,1.09h-1.35a3.16,3.16,0,0,1-.08-.84h0a2,2,0,0,1-1.72.94,1.77,1.77,0,0,1-1.85-1.81c0-1.68,1.37-2.1,3.25-2.1h.3v-.23a1.06,1.06,0,0,0-1.15-1.17,2.86,2.86,0,0,0-1.69.6ZM115,52.34h-.13c-1.27,0-2,.26-2,1.16a.89.89,0,0,0,1,1c.89,0,1.21-.66,1.21-1.76Z" transform="translate(-17.39 -15.42)"/><path class="cls-1" d="M118.31,47.92l1.49-.46v1.73H121v1.09H119.8v3.2c0,.66.24.85.67.85a1.18,1.18,0,0,0,.56-.13v1.06a2.42,2.42,0,0,1-1,.2c-1.11,0-1.73-.5-1.73-1.8V50.28h-1V49.19h1Z" transform="translate(-17.39 -15.42)"/><path class="cls-1" d="M122.1,46.56h1.53V48H122.1Zm0,2.63h1.49v6.17h-1.49Z" transform="translate(-17.39 -15.42)"/><path class="cls-1" d="M127.65,49.09c1.26,0,2.71.66,2.71,3.18s-1.45,3.19-2.71,3.19-2.72-.6-2.72-3.19S126.39,49.09,127.65,49.09Zm0,5.31c1,0,1.17-1.1,1.17-2.13s-.21-2.12-1.17-2.12-1.19,1.09-1.19,2.12S126.69,54.4,127.65,54.4Z" transform="translate(-17.39 -15.42)"/><path class="cls-1" d="M131.53,50.21a7.54,7.54,0,0,0-.05-1h1.4c0,.31,0,.63,0,.94h0a1.79,1.79,0,0,1,1.64-1c1.4,0,1.82,1,1.82,2.29v4h-1.48v-3.7c0-.95-.24-1.35-.86-1.35s-1,.66-1,1.46v3.59h-1.49Z" transform="translate(-17.39 -15.42)"/><path class="cls-1" d="M137.59,53.92a3.88,3.88,0,0,0,1.54.41c.54,0,1-.13,1-.61,0-.24-.12-.47-.66-.78l-.61-.36c-.62-.37-1.31-.77-1.31-1.74a2,2,0,0,1,2.14-1.75,5,5,0,0,1,1.55.25l-.09,1.15a3.49,3.49,0,0,0-1.31-.27c-.6,0-.85.23-.85.6s.27.51.7.79l.73.47c.77.49,1.15.84,1.15,1.56,0,1.14-1,1.82-2.3,1.82a5.06,5.06,0,0,1-1.72-.3Z" transform="translate(-17.39 -15.42)"/></svg>