<?xml version="1.0" encoding="UTF-8"?>
<svg width="21px" height="21px" viewBox="0 0 21 21" version="1.1" xmlns="http://www.w3.org/2000/svg" xmlns:xlink="http://www.w3.org/1999/xlink">
    <!-- Generator: Sketch 52.5 (67469) - http://www.bohemiancoding.com/sketch -->
    <title>error</title>
    <desc>Created with Sketch.</desc>
    <g id="Page-1" stroke="none" stroke-width="1" fill="none" fill-rule="evenodd">
        <g id="Data-List" transform="translate(-1195.000000, -566.000000)" fill="#000000">
            <g id="error" transform="translate(1195.000000, 566.000000)">
                <path d="M10.5,0 C4.71046154,0 0,4.71005769 0,10.5 C0,16.2899423 4.71046154,21 10.5,21 C16.2895385,21 21,16.2899423 21,10.5 C21,4.71005769 16.2895385,0 10.5,0 Z M10.5,20.1923077 C5.15590385,20.1923077 0.807692308,15.8440962 0.807692308,10.5 C0.807692308,5.15590385 5.15590385,0.807692308 10.5,0.807692308 C15.8440962,0.807692308 20.1923077,5.15590385 20.1923077,10.5 C20.1923077,15.8440962 15.8440962,20.1923077 10.5,20.1923077 Z" id="Shape" fill-rule="nonzero"></path>
                <path d="M14.8827029,6.11729853 C14.7263068,5.96090049 14.4735132,5.96090049 14.3171171,6.11729853 L11,9.43445707 L7.68288293,6.11729853 C7.52648684,5.96090049 7.27369316,5.96090049 7.11729707,6.11729853 C6.96090098,6.27369658 6.96090098,6.52649342 7.11729707,6.68289146 L10.4344141,10.00005 L7.11729707,13.3172085 C6.96090098,13.4736066 6.96090098,13.7264034 7.11729707,13.8828015 C7.19529512,13.9608005 7.29769256,14 7.40009,14 C7.50248744,14 7.60488488,13.9608005 7.68288293,13.8828015 L11,10.5656429 L14.3171171,13.8828015 C14.3951151,13.9608005 14.4975126,14 14.59991,14 C14.7023074,14 14.8047049,13.9608005 14.8827029,13.8828015 C15.039099,13.7264034 15.039099,13.4736066 14.8827029,13.3172085 L11.5655859,10.00005 L14.8827029,6.68289146 C15.039099,6.52649342 15.039099,6.27369658 14.8827029,6.11729853 Z" id="Path"></path>
            </g>
        </g>
    </g>
</svg>