<?xml version="1.0" encoding="UTF-8"?>
<svg width="125px" height="126px" viewBox="0 0 125 126" version="1.1" xmlns="http://www.w3.org/2000/svg" xmlns:xlink="http://www.w3.org/1999/xlink">
    <!-- Generator: Sketch 48.1 (47250) - http://www.bohemiancoding.com/sketch -->
    <title>Group 2</title>
    <desc>Created with Sketch.</desc>
    <defs></defs>
    <g id="Homepage" stroke="none" stroke-width="1" fill="none" fill-rule="evenodd" transform="translate(-380.000000, -1788.000000)">
        <g id="Group-2" transform="translate(380.000000, 1788.000000)" fill="#FFFFFF" fill-rule="nonzero">
            <path d="M22.9302743,125.347565 C22.9302743,125.347565 21.2620721,100.936558 22.9302743,100.936558 C24.5984766,100.936558 33.9799257,95.0478163 36.0608016,93.5731057 C38.1466797,92.098395 42.9386969,89.5732055 41.2729957,88.10102 C39.6047935,86.6288345 35.2304521,91.6792135 33.5597488,90.6262095 C31.8940476,89.5732055 35.2304521,83.2627569 42.9386969,82.2097529 C42.9386969,82.2097529 52.5277334,74.6341844 50.0266805,72.1089949 C47.5256277,69.5838054 45.2346633,73.5786552 44.6094001,74.4220685 C43.9841369,75.2654818 43.5639601,78.000262 42.9386969,76.1063699 C42.3134337,74.2124777 44.1892233,71.6872882 44.8144865,69.7933961 C45.4397497,67.899504 47.7307141,65.2379542 45.6498381,64.8844277 C43.5639601,64.5334264 43.5639601,64.9526078 42.9386969,66.8464999 C42.3134337,68.7403921 40.6477325,71.684763 40.0224693,73.1594737 C39.3972061,74.6341844 33.3546625,82.6289344 32.9344856,81.7880462 C32.5193108,80.9471581 35.0203636,76.3159606 34.3951004,75.0533658 C33.7698372,73.7907711 31.0086749,72.8210983 28.975319,85.9975372 L28.1424684,90.8358002 L23.3479501,95.0604423 C23.3479501,95.0604423 20.0140467,99.0401409 23.5555375,81.997637 C23.5555375,81.997637 43.7740485,56.5361512 46.2751013,56.7457419 C46.2751013,56.7457419 58.1551022,48.7484668 55.6540494,44.9606825 C55.6540494,44.9606825 54.8186977,42.0163115 50.4418553,48.538876 C50.4418553,48.538876 46.070015,52.3266603 48.3609794,46.6449839 C48.3609794,46.6449839 52.7378218,38.438118 50.8620322,37.385114 C50.8620322,37.385114 47.3155393,35.0720404 44.8144865,48.538876 C44.8144865,48.538876 43.1487853,54.6422591 41.2729957,55.2735564 C41.2729957,55.2735564 37.9365912,61.5865302 41.2729957,49.8014708 C41.2729957,49.8014708 43.3538716,44.3293851 41.2729957,44.1197944 C41.2729957,44.1197944 40.0224693,39.4784961 35.227951,59.2709314 C35.227951,59.2709314 36.0132816,56.1220201 33.7498288,64.4677714 C31.3113023,66.407117 23.9732134,73.2857332 23.9732134,74.0003618 C23.9732134,74.8412499 20.8443963,69.1595735 23.765626,61.3744143 C23.765626,61.3744143 27.93238,50.4327682 29.8081696,46.2232773 C29.8081696,46.2232773 34.8102752,43.0667904 42.9386969,34.0190364 C42.9386969,34.0190364 52.9429081,22.233977 53.1529966,20.3400848 C53.1529966,20.3400848 56.489401,14.8679992 53.5681713,15.9210032 C53.5681713,15.9210032 48.5660657,22.4435677 47.3155393,23.0748651 C47.3155393,23.0748651 43.5639601,27.284356 45.6498381,21.6026796 C45.6498381,21.6026796 48.9812405,13.6054044 48.1508909,12.7645163 C48.1508909,12.7645163 45.8599266,10.0297361 43.9841369,16.5523006 C43.9841369,16.5523006 41.1054251,23.9561562 41.2729957,29.8095455 C41.2729957,29.8095455 35.0203636,39.491122 33.5597488,39.0694154 C33.5597488,39.0694154 30.6435212,39.1906245 35.227951,12.1938235 C35.227951,12.1938235 42.0708315,6.0298359 38.9620229,4.13594377 C38.9620229,4.13594377 37.7315049,2.24205164 35.4355384,5.60812925 C35.4355384,5.60812925 34.3951004,8.97420686 33.5597488,0.97945689 C33.5597488,0.97945689 30.4334328,-4.07092212 30.6435212,8.76461613 C30.6435212,8.76461613 30.8536097,25.8096453 29.1829064,27.2818308 C29.1829064,27.2818308 28.5576432,31.4887965 26.6818536,23.0723399 C26.6818536,23.0723399 28.1424684,13.3932885 25.849003,13.6028792 C25.849003,13.6028792 23.765626,14.0245859 23.765626,16.3376595 C23.765626,16.3376595 23.765626,19.0724397 23.1403628,18.6532582 C23.1403628,18.6532582 16.0523791,9.18379759 15.4271159,9.81509497 C15.4271159,9.81509497 11.6755366,11.2872805 15.4271159,16.1280687 C15.4271159,16.1280687 21.6797479,21.8097451 26.0565903,29.8070203 C26.0565903,29.8070203 28.7677316,33.8043953 28.3500558,37.5921795 C28.3500558,37.5921795 21.4696595,55.8998034 20.6393099,57.1623982 C20.6393099,57.1623982 21.6797479,63.4778971 16.2624675,55.0589153 C16.2624675,55.0589153 13.3462399,53.7963206 13.7614147,49.5868297 C13.7614147,49.5868297 11.4654482,47.4833468 18.7635203,38.6451835 C18.7635203,38.6451835 22.0999248,36.5417007 17.9281687,36.5417007 C17.9281687,36.5417007 14.3866779,40.9607823 15.4271159,34.0165112 C15.4271159,34.0165112 15.9973559,28.9661322 13.4187705,32.5443257 C13.4187705,32.5443257 11.2603619,40.1198942 11.0502734,42.8546745 C11.0502734,42.8546745 10.4250102,50.6398337 9.17448383,44.1172692 C9.17448383,44.1172692 3.96228976,36.9634073 4.38246663,31.4913217 C4.38246663,31.4913217 2.92185179,27.9131282 1.25615061,27.4939467 C1.25615061,27.4939467 -0.619638999,28.9661322 0.213211589,33.8069205 C0.213211589,33.8069205 6.25825625,48.3267601 7.92395742,49.7989456 C7.92395742,49.7989456 11.1978356,56.0336385 16.8877307,62.6723617 C16.8877307,62.6723617 20.2241352,65.1621985 19.1786951,79.6820382 C19.1786951,79.6820382 20.2191331,87.6767882 16.2624675,83.0481158 C16.2624675,83.0481158 9.59215965,75.8917288 8.96689645,69.7908709 C8.96689645,69.7908709 10.2174229,62.9173051 7.71637004,62.6723617 C7.71637004,62.6723617 6.25825625,60.3921156 6.25825625,64.8819025 C6.25825625,64.8819025 3.96228976,71.4776975 8.13404586,78.2098527 C8.13404586,78.2098527 16.8877307,92.0958698 17.0953181,93.7801712 C17.0953181,93.7801712 16.6776423,113.140799 17.7205813,114.403394 C17.7205813,114.403394 18.1182487,123.872855 17.9106613,125.34504 C17.7030739,126.817226 22.9302743,125.347565 22.9302743,125.347565 Z" id="Shape"></path>
            <path d="M77,65.5567687 C77,65.5567687 81.2440847,64.3958001 85.4259029,61.6565212 C85.4259029,61.6565212 90.3449564,59.3295253 92.7061021,59.3295253 C92.7061021,59.3295253 97.4283935,58.0294428 105.316314,58.9197716 C105.316314,58.9197716 110.907846,59.6026944 112.05604,59.4661098 C112.05604,59.4661098 116.09589,58.0952057 116.975093,57 C116.975093,57 116.843088,57.9586212 116.235367,58.5074887 C116.235367,58.5074887 115.361146,59.4661098 114.820672,60.5613155 C114.820672,60.5613155 114.417186,64.1909233 113.405978,64.8055538 C113.405978,64.8055538 113.742217,65.4227135 114.753425,65.5592981 C114.753425,65.5592981 116.033624,66.6570331 117.988792,63.5054712 C117.988792,63.5054712 119.941469,59.5318728 122.235367,59.6709866 C122.235367,59.6709866 124.596513,59.7418083 125,60.6296078 C125,60.6296078 124.459527,60.4222016 123.988792,60.6953707 C123.988792,60.6953707 123.316314,60.609373 123.383562,61.3707054 C123.383562,61.3707054 123.787049,62.8883115 120.955168,66.9934358 C120.955168,66.9934358 120.344956,68.5009245 119.806974,68.9789704 C119.806974,68.9789704 119.067248,69.2521395 120.145704,72.1280029 C120.145704,72.1280029 121.089664,73.2915009 121.428394,76.6454102 C121.428394,76.6454102 121.901619,78.7675294 122.912827,79.3846892 L123.520548,79.9993196 C123.520548,79.9993196 120.890411,80.0676119 119.475716,78.8358216 C119.475716,78.8358216 117.383562,78.4918309 114.28269,72.401172 C114.28269,72.401172 112.330012,73.2915009 112.193026,73.0158025 C112.193026,73.0158025 111.854296,73.9086607 111.652553,73.9769529 C111.652553,73.9769529 111.991283,74.7281679 112.599004,74.9330448 C112.599004,74.9330448 112.798257,75.2770355 111.924035,75.5476752 C111.924035,75.5476752 109.161893,77.6040314 103.361146,75.4793829 C103.361146,75.4793829 103.366127,76.0307798 102.688667,76.164835 C102.688667,76.164835 101.209215,76.5088257 101.002491,76.6428809 C100.798257,76.7819948 98.7085928,77.328333 97.8991283,76.7819948 C97.8991283,76.7819948 97.6948941,76.0257211 95.3387298,76.0965427 C95.3387298,76.0965427 89.8119552,75.752552 88.3947696,75.0696293 C88.3947696,75.0696293 85.366127,74.4549989 82.867995,72.1937658 C82.867995,72.1937658 78.2179328,68.2226967 78.2179328,67.4714817 C78.2179328,66.715208 79.9066002,67.6763585 80.0361146,67.8458245 C80.1706102,68.0152905 78.3474471,66.9175555 77.6774595,66.2346328 C77,65.5567687 77,65.5567687 77,65.5567687 Z" id="Shape"></path>
            <path d="M61,89.3480884 C61,89.3480884 62.7666582,88.8903134 64.5103395,87.8213601 C64.5103395,87.8213601 66.5603778,86.9082451 67.5432729,86.9082451 C67.5432729,86.9082451 69.511616,86.3993356 72.7972938,86.7499718 C72.7972938,86.7499718 75.1256063,87.0153839 75.6055655,86.9642495 C75.6055655,86.9642495 77.2879755,86.4285553 77.6556038,86 C77.6556038,86 77.6019913,86.3749859 77.3492469,86.5892636 C77.3492469,86.5892636 76.9816186,86.9642495 76.7595098,87.3928048 C76.7595098,87.3928048 76.5910135,88.8123942 76.1697728,89.0534566 C76.1697728,89.0534566 76.3101864,89.2969539 76.7314271,89.3505233 C76.7314271,89.3505233 77.2649987,89.7790787 78.0793975,88.5469821 C78.0793975,88.5469821 78.8937963,86.9910342 79.8486086,87.0446036 C79.8486086,87.0446036 80.8315037,87.0738233 81,87.4220244 C81,87.4220244 80.7753383,87.3416703 80.5787593,87.4463742 C80.5787593,87.4463742 80.3004851,87.4147195 80.3260148,87.7117863 C80.3260148,87.7117863 80.4919581,88.3059198 79.315037,89.9130022 C79.315037,89.9130022 79.0597396,90.4998308 78.8350779,90.6873237 C78.8350779,90.6873237 78.528721,90.7944626 78.9780444,91.9194202 C78.9780444,91.9194202 79.3686495,92.3771952 79.511616,93.6896459 C79.511616,93.6896459 79.708195,94.5199718 80.1294358,94.7585992 L80.3821802,94.9996616 C80.3821802,94.9996616 79.2869543,95.0288812 78.6972173,94.5443215 C78.6972173,94.5443215 77.8266531,94.410398 76.5348481,92.0265591 C76.5348481,92.0265591 75.7204493,92.3771952 75.6642839,92.2676214 C75.6642839,92.2676214 75.5213173,92.6182576 75.4370692,92.6450423 C75.4370692,92.6450423 75.5800357,92.9372391 75.8302272,93.0175932 C75.8302272,93.0175932 75.9144754,93.1515168 75.5494001,93.2586556 C75.5494001,93.2586556 74.4005617,94.0621968 71.985448,93.2318709 C71.985448,93.2318709 71.985448,93.4485835 71.7046209,93.499718 C71.7046209,93.499718 71.0893541,93.6336415 71.0051059,93.6872109 C70.9183048,93.7383454 70.0477406,93.952623 69.710748,93.7383454 C69.710748,93.7383454 69.6264999,93.4437136 68.6436048,93.4704983 C68.6436048,93.4704983 66.3408221,93.3365747 65.751085,93.0687277 C65.751085,93.0687277 64.4873628,92.8276653 63.4483023,91.94377 C63.4483023,91.94377 61.5105948,90.387822 61.5105948,90.0956252 C61.5105948,89.8009934 62.2126628,90.1759793 62.2688282,90.2441586 C62.3224406,90.3074679 61.5667603,89.8813475 61.2833801,89.6135005 C61,89.3480884 61,89.3480884 61,89.3480884 Z" id="Shape"></path>
            <path d="M56,40.1169569 C56,40.1169569 56.618799,39.967555 57.229765,39.6070934 C57.229765,39.6070934 57.9451697,39.3035467 58.2898172,39.3035467 C58.2898172,39.3035467 58.9791123,39.1351731 60.1305483,39.2513746 C60.1305483,39.2513746 60.9477807,39.34149 61.1122715,39.3225183 C61.1122715,39.3225183 61.7023499,39.144659 61.8302872,39 C61.8302872,39 61.8093995,39.1256873 61.7206266,39.196831 C61.7206266,39.196831 61.5926893,39.3225183 61.5143603,39.4648058 C61.5143603,39.4648058 61.4569191,39.9367261 61.308094,40.0173557 C61.308094,40.0173557 61.3603133,40.0956138 61.5039164,40.1145855 C61.5039164,40.1145855 61.691906,40.2592444 61.9765013,39.8466107 C61.9765013,39.8466107 62.2610966,39.3296327 62.5953003,39.3462329 C62.5953003,39.3462329 62.9399478,39.3557188 63,39.4742917 C63,39.4742917 62.921671,39.4458342 62.8511749,39.4814061 C62.8511749,39.4814061 62.7519582,39.4695488 62.7624021,39.56915 C62.7624021,39.56915 62.8198433,39.7683525 62.4073107,40.3043021 C62.4073107,40.3043021 62.3185379,40.5011332 62.2428198,40.5627911 C62.2428198,40.5627911 62.1331593,40.598363 62.2924282,40.9730534 C62.2924282,40.9730534 62.4308094,41.1248267 62.4778068,41.5635465 C62.4778068,41.5635465 62.5456919,41.8386357 62.694517,41.9192653 L62.7832898,41.9998949 C62.7832898,41.9998949 62.3994778,42.0093807 62.1906005,41.8481216 C62.1906005,41.8481216 61.8877285,41.8030638 61.4334204,41.0086253 C61.4334204,41.0086253 61.151436,41.1248267 61.1305483,41.0868834 C61.1305483,41.0868834 61.0809399,41.2054563 61.0522193,41.2125707 C61.0522193,41.2125707 61.1018277,41.312172 61.1906005,41.338258 C61.1906005,41.338258 61.2193211,41.3856872 61.0913838,41.4188876 C61.0913838,41.4188876 60.689295,41.6868624 59.843342,41.4094017 C59.843342,41.4094017 59.843342,41.4805455 59.7441253,41.4995172 C59.7441253,41.4995172 59.5300261,41.5445749 59.4986945,41.5611751 C59.4673629,41.5777753 59.1644909,41.648919 59.0443864,41.5777753 C59.0443864,41.5777753 59.0156658,41.4805455 58.6710183,41.4900313 C58.6710183,41.4900313 57.8642298,41.4449736 57.6579634,41.3548582 C57.6579634,41.3548582 57.2140992,41.2742286 56.848564,40.9801678 C56.848564,40.9801678 56.1697128,40.4608184 56.1697128,40.3635886 C56.1697128,40.2663588 56.4177546,40.3896746 56.4386423,40.4133892 C56.4569191,40.4371038 56.1906005,40.2924448 56.0913838,40.2023294 C56,40.1169569 56,40.1169569 56,40.1169569 Z" id="Shape"></path>
            <path d="M53,104.116957 C53,104.116957 53.618799,103.967555 54.229765,103.607093 C54.229765,103.607093 54.9451697,103.303547 55.2898172,103.303547 C55.2898172,103.303547 55.9791123,103.135173 57.1305483,103.251375 C57.1305483,103.251375 57.9477807,103.34149 58.1122715,103.322518 C58.1122715,103.322518 58.7023499,103.144659 58.8302872,103 C58.8302872,103 58.8093995,103.125687 58.7206266,103.196831 C58.7206266,103.196831 58.5926893,103.322518 58.5143603,103.464806 C58.5143603,103.464806 58.4569191,103.936726 58.308094,104.017356 C58.308094,104.017356 58.3603133,104.095614 58.5039164,104.114585 C58.5039164,104.114585 58.691906,104.259244 58.9765013,103.846611 C58.9765013,103.846611 59.2610966,103.329633 59.5953003,103.346233 C59.5953003,103.346233 59.9399478,103.355719 60,103.474292 C60,103.474292 59.921671,103.445834 59.8511749,103.481406 C59.8511749,103.481406 59.7519582,103.469549 59.7624021,103.56915 C59.7624021,103.56915 59.8198433,103.768353 59.4073107,104.304302 C59.4073107,104.304302 59.3185379,104.501133 59.2428198,104.562791 C59.2428198,104.562791 59.1331593,104.598363 59.2924282,104.973053 C59.2924282,104.973053 59.4308094,105.124827 59.4778068,105.563547 C59.4778068,105.563547 59.5456919,105.838636 59.694517,105.919265 L59.7832898,105.999895 C59.7832898,105.999895 59.3994778,106.009381 59.1906005,105.848122 C59.1906005,105.848122 58.8877285,105.803064 58.4334204,105.008625 C58.4334204,105.008625 58.151436,105.124827 58.1305483,105.086883 C58.1305483,105.086883 58.0809399,105.205456 58.0522193,105.212571 C58.0522193,105.212571 58.1018277,105.312172 58.1906005,105.338258 C58.1906005,105.338258 58.2193211,105.385687 58.0913838,105.418888 C58.0913838,105.418888 57.689295,105.686862 56.843342,105.409402 C56.843342,105.409402 56.843342,105.480546 56.7441253,105.499517 C56.7441253,105.499517 56.5300261,105.544575 56.4986945,105.561175 C56.4673629,105.577775 56.1644909,105.648919 56.0443864,105.577775 C56.0443864,105.577775 56.0156658,105.480546 55.6710183,105.490031 C55.6710183,105.490031 54.8642298,105.444974 54.6579634,105.354858 C54.6579634,105.354858 54.2140992,105.274229 53.848564,104.980168 C53.848564,104.980168 53.1697128,104.460818 53.1697128,104.363589 C53.1697128,104.266359 53.4177546,104.389675 53.4386423,104.413389 C53.4569191,104.437104 53.1906005,104.292445 53.0913838,104.202329 C53,104.116957 53,104.116957 53,104.116957 Z" id="Shape"></path>
            <path d="M61,63.1169569 C61,63.1169569 61.618799,62.967555 62.229765,62.6070934 C62.229765,62.6070934 62.9451697,62.3035467 63.2898172,62.3035467 C63.2898172,62.3035467 63.9791123,62.1351731 65.1305483,62.2513746 C65.1305483,62.2513746 65.9477807,62.34149 66.1122715,62.3225183 C66.1122715,62.3225183 66.7023499,62.144659 66.8302872,62 C66.8302872,62 66.8093995,62.1256873 66.7206266,62.196831 C66.7206266,62.196831 66.5926893,62.3225183 66.5143603,62.4648058 C66.5143603,62.4648058 66.4569191,62.9367261 66.308094,63.0173557 C66.308094,63.0173557 66.3603133,63.0956138 66.5039164,63.1145855 C66.5039164,63.1145855 66.691906,63.2592444 66.9765013,62.8466107 C66.9765013,62.8466107 67.2610966,62.3296327 67.5953003,62.3462329 C67.5953003,62.3462329 67.9399478,62.3557188 68,62.4742917 C68,62.4742917 67.921671,62.4458342 67.8511749,62.4814061 C67.8511749,62.4814061 67.7519582,62.4695488 67.7624021,62.56915 C67.7624021,62.56915 67.8198433,62.7683525 67.4073107,63.3043021 C67.4073107,63.3043021 67.3185379,63.5011332 67.2428198,63.5627911 C67.2428198,63.5627911 67.1331593,63.598363 67.2924282,63.9730534 C67.2924282,63.9730534 67.4308094,64.1248267 67.4778068,64.5635465 C67.4778068,64.5635465 67.5456919,64.8386357 67.694517,64.9192653 L67.7832898,64.9998949 C67.7832898,64.9998949 67.3994778,65.0093807 67.1906005,64.8481216 C67.1906005,64.8481216 66.8877285,64.8030638 66.4334204,64.0086253 C66.4334204,64.0086253 66.151436,64.1248267 66.1305483,64.0868834 C66.1305483,64.0868834 66.0809399,64.2054563 66.0522193,64.2125707 C66.0522193,64.2125707 66.1018277,64.312172 66.1906005,64.338258 C66.1906005,64.338258 66.2193211,64.3856872 66.0913838,64.4188876 C66.0913838,64.4188876 65.689295,64.6868624 64.843342,64.4094017 C64.843342,64.4094017 64.843342,64.4805455 64.7441253,64.4995172 C64.7441253,64.4995172 64.5300261,64.5445749 64.4986945,64.5611751 C64.4673629,64.5777753 64.1644909,64.648919 64.0443864,64.5777753 C64.0443864,64.5777753 64.0156658,64.4805455 63.6710183,64.4900313 C63.6710183,64.4900313 62.8642298,64.4449736 62.6579634,64.3548582 C62.6579634,64.3548582 62.2140992,64.2742286 61.848564,63.9801678 C61.848564,63.9801678 61.1697128,63.4608184 61.1697128,63.3635886 C61.1697128,63.2663588 61.4177546,63.3896746 61.4386423,63.4133892 C61.4569191,63.4371038 61.1906005,63.2924448 61.0913838,63.2023294 C61,63.1169569 61,63.1169569 61,63.1169569 Z" id="Shape"></path>
            <path d="M89,41.2081371 C89,41.2081371 91.7410055,40.5005357 94.442178,38.8327882 C94.442178,38.8327882 97.6163668,37.4152029 99.1424671,37.4152029 C99.1424671,37.4152029 102.192178,36.6218316 107.285818,37.1650407 C107.285818,37.1650407 110.898169,37.5795951 111.637568,37.4985902 C111.637568,37.4985902 114.249117,36.6647165 114.814247,36 C114.814247,36 114.729602,36.5837116 114.338741,36.9172611 C114.338741,36.9172611 113.771121,37.5009727 113.425072,38.1656892 C113.425072,38.1656892 113.163668,40.3742634 112.511404,40.7483153 C112.511404,40.7483153 112.727996,41.1247498 113.38026,41.2081371 C113.38026,41.2081371 114.206794,41.8752361 115.471491,39.9573265 C115.471491,39.9573265 116.731208,37.5390927 118.214986,37.6248625 C118.214986,37.6248625 119.738596,37.6677475 120,38.2085742 C120,38.2085742 119.648972,38.0823019 119.345246,38.2514591 C119.345246,38.2514591 118.912062,38.1990442 118.954385,38.6612485 C118.954385,38.6612485 119.215789,39.5832746 117.388452,42.0848958 C117.388452,42.0848958 116.995101,42.9997744 116.646563,43.2928215 C116.646563,43.2928215 116.171057,43.4595962 116.865644,45.2107311 C116.865644,45.2107311 117.473097,45.9183325 117.692178,47.960132 C117.692178,47.960132 117.998394,49.251445 118.650659,49.6254969 L119.041519,49.9995489 C119.041519,49.9995489 117.34364,50.0424338 116.429971,49.2919474 C116.429971,49.2919474 115.07814,49.0822878 113.076534,45.3751234 C113.076534,45.3751234 111.814327,45.91595 111.727192,45.7491753 C111.727192,45.7491753 111.510601,46.2923845 111.378654,46.3328869 C111.378654,46.3328869 111.597735,46.7903262 111.988596,46.9165985 C111.988596,46.9165985 112.118053,47.1238757 111.550434,47.293033 C111.550434,47.293033 109.767909,48.5414611 106.023611,47.250148 C106.023611,47.250148 106.023611,47.5836975 105.587938,47.6670849 C105.587938,47.6670849 104.631947,47.8767446 104.49751,47.960132 C104.365564,48.0435193 103.016222,48.3746863 102.493415,48.0435193 C102.493415,48.0435193 102.361468,47.58608 100.840347,47.6265825 C100.840347,47.6265825 97.270318,47.4169228 96.3566495,47.0023684 C96.3566495,47.0023684 94.3998554,46.625934 92.7866206,45.253616 C92.7866206,45.253616 89.7817218,42.8353822 89.7817218,42.3779429 C89.7817218,41.9205036 90.8721491,42.5042152 90.9592836,42.6066625 C91.0439287,42.7091099 89.8688564,42.0420109 89.435673,41.6274565 C89,41.2081371 89,41.2081371 89,41.2081371 Z" id="Shape"></path>
            <path d="M66,32.227552 C66,32.227552 67.1515938,31.9237949 68.2815048,31.210319 C68.2815048,31.210319 69.613788,30.6028048 70.2522239,30.6028048 C70.2522239,30.6028048 71.5290956,30.2637271 73.6660489,30.496843 C73.6660489,30.496843 75.1814307,30.6758007 75.4922165,30.6404801 C75.4922165,30.6404801 76.5859896,30.2849194 76.8244996,30 C76.8244996,30 76.7883617,30.2495989 76.6245367,30.3932359 C76.6245367,30.3932359 76.3884359,30.6428348 76.2414752,30.9301089 C76.2414752,30.9301089 76.1330615,31.8743461 75.8584136,32.0368208 C75.8584136,32.0368208 75.9499629,32.1969408 76.2222016,32.2322614 C76.2222016,32.2322614 76.5715345,32.5171809 77.0991475,31.6953884 C77.0991475,31.6953884 77.6291698,30.6616724 78.2507413,30.696993 C78.2507413,30.696993 78.8891772,30.7158307 79,30.9465919 C79,30.9465919 78.8530393,30.8924336 78.7277613,30.9654295 C78.7277613,30.9654295 78.5446627,30.9418825 78.5639362,31.1420325 C78.5639362,31.1420325 78.6723499,31.5376231 77.9062268,32.6090144 C77.9062268,32.6090144 77.7424018,33.0022503 77.5954411,33.1270498 C77.5954411,33.1270498 77.3954781,33.197691 77.6869904,33.9488422 C77.6869904,33.9488422 77.9423647,34.2525993 78.0363232,35.1261953 C78.0363232,35.1261953 78.1640104,35.6795512 78.4386583,35.8396713 L78.6000741,35.9997913 C78.6000741,35.9997913 77.8893625,36.0186289 77.506301,35.6983889 C77.506301,35.6983889 76.9401408,35.6089101 76.0993328,34.0218381 C76.0993328,34.0218381 75.5693106,34.2525993 75.5355819,34.1819581 C75.5355819,34.1819581 75.4440326,34.415074 75.3886212,34.431557 C75.3886212,34.431557 75.4777613,34.6269976 75.6415864,34.6811558 C75.6415864,34.6811558 75.6945886,34.7706347 75.4584878,34.8412758 C75.4584878,34.8412758 74.7116383,35.3757941 73.1408451,34.8224382 C73.1408451,34.8224382 73.1408451,34.9660753 72.9601557,35.0013959 C72.9601557,35.0013959 72.5578206,35.0908747 72.5048184,35.1261953 C72.449407,35.1615159 71.8832468,35.305153 71.6616012,35.1615159 C71.6616012,35.1615159 71.608599,34.9660753 70.9677539,34.9825582 C70.9677539,34.9825582 69.4716457,34.8930794 69.0885841,34.7141217 C69.0885841,34.7141217 68.2670497,34.5540017 67.5924759,33.9653252 C67.5924759,33.9653252 66.3348777,32.9292545 66.3348777,32.7338138 C66.3348777,32.5383732 66.790215,32.7879721 66.8263529,32.8327115 C66.8624907,32.8774509 66.3710156,32.5901768 66.1855078,32.4135738 C66,32.227552 66,32.227552 66,32.227552 Z" id="Shape"></path>
        </g>
    </g>
</svg>