<?xml version="1.0" encoding="UTF-8"?>
<svg width="119px" height="151px" viewBox="0 0 119 151" version="1.1" xmlns="http://www.w3.org/2000/svg" xmlns:xlink="http://www.w3.org/1999/xlink">
    <!-- Generator: Sketch 48.1 (47250) - http://www.bohemiancoding.com/sketch -->
    <title>Group</title>
    <desc>Created with Sketch.</desc>
    <defs></defs>
    <g id="Homepage" stroke="none" stroke-width="1" fill="none" fill-rule="evenodd" transform="translate(-378.000000, -2063.000000)">
        <g id="Group" transform="translate(378.000000, 2063.000000)" fill="#FFFFFF">
            <path d="M59.4892975,44 C49.7471628,35.8181818 55.0610545,27.6363636 59.4892975,24 C59.4892975,24 71.8883781,34 59.4892975,44 Z" id="Shape"></path>
            <path d="M65.0353652,51 C77.3591821,50.1375056 79.1197274,47.5500226 80,38.0625846 C80,38.0625846 64.1550926,36.3375959 65.0353652,51 Z" id="Shape"></path>
            <path d="M67,63.6441344 C80.125,67.2216089 82.75,63.6441344 88,53.8060796 C88,53.8060796 71.375,45.756762 67,63.6441344 Z" id="Shape"></path>
            <path d="M63,74.8863961 C74.8181818,80.3334413 77.5454545,78.5177596 83,70.3471917 C83,70.3471917 70.2727273,60.3609421 63,74.8863961 Z" id="Shape"></path>
            <path d="M84.0353652,48 C96.3591821,47.0781893 97.2394547,43.3909465 99,34.1728395 C99,34.1728395 83.1550926,31.4074074 84.0353652,48 Z" id="Shape"></path>
            <path d="M86,66.7419653 C95.0909091,74.4602217 98.7272727,72.7450536 106,67.5995494 C106,67.5995494 96.9090909,55.5933727 86,66.7419653 Z" id="Shape"></path>
            <path d="M71.203416,36 C80.2370733,27.8181818 79.3337076,24.1818182 73.9135132,16 C73.9135132,16 60.3630273,24.1818182 71.203416,36 Z" id="Shape"></path>
            <path d="M52.9646348,51 C40.6408179,50.1375056 39.7605453,47.5500226 38,38.0625846 C38,38.0625846 53.8449074,36.3375959 52.9646348,51 Z" id="Shape"></path>
            <path d="M52,63.6441344 C37.92,67.2216089 35.28,63.6441344 30,53.8060796 C30,53.8060796 46.72,45.756762 52,63.6441344 Z" id="Shape"></path>
            <path d="M56,74.8863961 C45.0909091,80.3334413 42.3636364,78.5177596 36,70.3471917 C36,70.3471917 48.7272727,60.3609421 56,74.8863961 Z" id="Shape"></path>
            <path d="M34.9646348,48 C22.6408179,47.0781893 20.8802726,43.3909465 20,34.1728395 C20,34.1728395 35.8449074,31.4074074 34.9646348,48 Z" id="Shape"></path>
            <path d="M34,66.7419653 C23.9565217,74.4602217 21.2173913,72.7450536 13,67.5995494 C13,67.5995494 23.0434783,55.5933727 34,66.7419653 Z" id="Shape"></path>
            <path d="M47.9579216,36 C38.9006718,27.8181818 39.8063968,24.1818182 44.3350217,16 C44.3350217,16 58.8266213,24.1818182 47.9579216,36 Z" id="Shape"></path>
            <path d="M58.1578947,151 L58.1578947,125.168067 C45.6315789,130.512605 36.6842105,137.638655 33.1052632,151 L30.4210526,150.109244 C34.8947368,135.857143 44.7368421,128.731092 58.1578947,122.495798 L58.1578947,115.369748 C40.2631579,123.386555 25.9473684,129.621849 22.3684211,151 L19.6842105,151 C24.1578947,126.94958 38.4736842,120.714286 58.1578947,112.697479 L58.1578947,104.680672 C34.8947368,117.151261 15.2105263,118.932773 12.5263158,151 L9.84210526,151 C12.5263158,116.260504 34,115.369748 58.1578947,102.008403 L58.1578947,93.1008403 C34,112.697479 3.57894737,105.571429 2.68421053,151 L0,151 C0.894736842,102.008403 34.8947368,110.915966 58.1578947,89.5378151 C58.1578947,71.7226891 59.0526316,65.487395 51.8947368,64.5966387 C51.8947368,63.7058824 51.8947368,62.8151261 52.7894737,61.9243697 C54.5789474,62.8151261 56.3684211,63.7058824 58.1578947,64.5966387 C58.1578947,58.3613445 59.0526316,55.6890756 53.6842105,53.0168067 L54.5789474,50.3445378 C55.4736842,51.2352941 57.2631579,52.1260504 58.1578947,53.0168067 L58.1578947,45 L60.8421053,45 L60.8421053,53.0168067 C61.7368421,52.1260504 62.6315789,51.2352941 64.4210526,50.3445378 L65.3157895,53.0168067 C59.0526316,55.6890756 60.8421053,58.3613445 60.8421053,64.5966387 C61.7368421,62.8151261 64.4210526,62.8151261 66.2105263,61.9243697 C66.2105263,62.8151261 66.2105263,63.7058824 67.1052632,64.5966387 C59.0526316,65.487395 60.8421053,70.8319328 60.8421053,89.5378151 C84.1052632,110.915966 118.105263,102.008403 119,151 L116.315789,151 C115.421053,105.571429 85,112.697479 60.8421053,93.1008403 L60.8421053,102.008403 C85,115.369748 106.473684,116.260504 109.157895,151 L106.473684,151 C103.789474,118.932773 83.2105263,117.151261 60.8421053,104.680672 L60.8421053,112.697479 C80.5263158,120.714286 94.8421053,126.94958 99.3157895,151 L96.6315789,151 C92.1578947,129.621849 78.7368421,123.386555 60.8421053,115.369748 L60.8421053,122.495798 C74.2631579,128.731092 84.1052632,135.857143 88.5789474,150.109244 L85.8947368,151 C81.4210526,137.638655 73.3684211,130.512605 60.8421053,125.168067 L60.8421053,151 L58.1578947,151 Z" id="Shape" fill-rule="nonzero"></path>
            <path d="M59.4892975,20 C49.7471628,11.8181818 55.0610545,3.63636364 59.4892975,0 C59.4892975,0 71.8883781,10 59.4892975,20 Z" id="Shape"></path>
        </g>
    </g>
</svg>