<?xml version="1.0" encoding="UTF-8"?>
<svg width="122px" height="122px" viewBox="0 0 122 122" version="1.1" xmlns="http://www.w3.org/2000/svg" xmlns:xlink="http://www.w3.org/1999/xlink">
    <!-- Generator: Sketch 48.1 (47250) - http://www.bohemiancoding.com/sketch -->
    <title>003-open-book</title>
    <desc>Created with Sketch.</desc>
    <defs></defs>
    <g id="Homepage" stroke="none" stroke-width="1" fill="none" fill-rule="evenodd" transform="translate(-380.000000, -1219.000000)">
        <g id="003-open-book" transform="translate(380.000000, 1219.000000)" fill="#FFFFFF" fill-rule="nonzero">
            <path d="M69.2172813,57.9081259 C69.5711658,58.6001852 70.2751851,59 71.0031091,59 C71.3070748,59 71.6190088,58.9299269 71.9091472,58.782047 C72.0270306,58.7220514 83.7984947,52.7424058 89.6040754,50.9085541 C90.6561202,50.5745939 91.2399124,49.4506127 90.9059486,48.3988138 C90.5738596,47.3467805 89.4580688,46.7608854 88.3961809,47.0929707 C82.2805411,49.0268933 70.5892283,54.9664637 70.0933213,55.2183986 C69.1092411,55.7182843 68.7173902,56.9224159 69.2172813,57.9081259 Z" id="Shape"></path>
            <path d="M71.0030699,34 C71.3070362,34 71.6189708,33.9299269 71.9091098,33.782047 C72.0269934,33.7220514 83.7984806,27.7424058 89.6040727,25.9085541 C90.6561195,25.5745939 91.2399129,24.4506127 90.9059484,23.3988138 C90.5738588,22.3467805 89.4580658,21.7608854 88.3961758,22.0929707 C82.280524,24.0268933 70.5891883,29.9664637 70.0932803,30.2183986 C69.1094326,30.7182843 68.7173465,31.9221816 69.2172387,32.9081259 C69.5711239,33.5999508 70.2751445,34 71.0030699,34 Z" id="Shape"></path>
            <path d="M119.966512,30.5006667 C118.842065,30.5006667 117.933262,31.4116069 117.933262,32.5339005 L117.933262,111.833116 C117.933262,115.196184 115.196369,117.933056 111.833274,117.933056 L63.0333691,117.933056 L63.0333691,113.25445 C65.9980586,112.21746 73.7205005,109.799882 81.3333333,109.799882 C99.0456972,109.799882 111.07292,113.722191 111.192775,113.762699 C111.80468,113.965951 112.488069,113.864444 113.022771,113.482006 C113.553423,113.099807 113.866524,112.485762 113.866524,111.832878 L113.866524,22.3674933 C113.866524,21.4139011 113.205771,20.5882648 112.274331,20.3828684 C112.274331,20.3828684 110.680233,20.027118 107.955492,19.5267323 C106.85535,19.3234804 105.792141,20.0554732 105.588649,21.157513 C105.385396,22.2636037 106.11525,23.3229916 107.219443,23.5262435 C108.258585,23.7173432 109.128787,23.8860446 109.799786,24.0204339 L109.799786,109.130795 C105.19215,107.92296 94.9606114,105.733177 81.3330951,105.733177 C72.4738155,105.733177 63.7713247,108.6428 61.0789901,109.629036 C58.6856979,108.571793 51.451255,105.733177 42.6996783,105.733177 C28.6940104,105.733177 17.1569313,108.043052 12.1997379,109.216337 L12.1997379,23.9410871 C16.2602807,22.9426985 28.2529526,20.3340212 42.6996783,20.3340212 C50.1133084,20.3340212 56.4713545,22.6417523 58.9663926,23.6849373 L58.9663926,103.699943 C58.9663926,104.431935 59.3607473,105.109124 59.9971953,105.468925 C60.6336433,105.830871 61.4185402,105.820625 62.0468866,105.442476 C62.2482339,105.322622 82.3943977,93.2892996 100.275464,87.3297062 C101.107064,87.0511582 101.666309,86.2765135 101.666309,85.4001237 L101.666309,2.03420218 C101.666309,1.36725956 101.338911,0.742968857 100.789913,0.362914022 C100.244964,-0.0173790912 99.5456103,-0.104827445 98.9172638,0.129162428 C82.6486433,6.23100833 66.1870153,16.4748562 66.022125,16.5766013 C65.0704315,17.1722985 64.7797289,18.4268369 65.3754309,19.3785228 C65.9692266,20.3302087 67.223775,20.620909 68.1773747,20.0252117 C68.3277298,19.9296619 82.6486433,11.0196992 97.5995711,5.00720793 L97.5995711,83.944478 C83.7199537,88.767481 69.2284312,96.6425985 63.0328925,100.168173 L63.0328925,22.3674933 C63.0328925,21.5968993 62.5977918,20.8932617 61.9084455,20.5477573 C61.5586493,20.3750051 53.2262085,16.2675536 42.6996783,16.2675536 C24.3265619,16.2675536 10.2010387,20.2427604 9.60724295,20.4133681 C8.734897,20.6614164 8.13299974,21.4606038 8.13299974,22.3674933 L8.13299974,111.833354 C8.13299974,112.469797 8.43394837,113.07169 8.94029504,113.456034 C9.29819278,113.72648 9.72924272,113.866827 10.166488,113.866827 C10.3535384,113.866827 10.5405888,113.840378 10.7235884,113.78748 C10.8639358,113.748878 24.9244084,109.800121 42.6996783,109.800121 C50.1335622,109.800121 56.4856514,112.114047 58.9663926,113.152943 L58.9663926,117.933294 L10.166488,117.933294 C6.80339296,117.933294 4.06649987,115.196423 4.06649987,111.833354 L4.06649987,32.5341388 C4.06649987,31.4118452 3.15555243,30.500905 2.03324994,30.500905 C0.91094744,30.500905 0,31.4118452 0,32.5341388 L0,111.833354 C0,117.439104 4.56069422,122 10.1667262,122 L111.833274,122 C117.439068,122 122,117.439342 122,111.833354 L122,32.5341388 C121.999762,31.4116069 121.090959,30.5006667 119.966512,30.5006667 Z" id="Shape"></path>
            <path d="M69.2172813,45.9081259 C69.5711658,46.6001852 70.2751851,47 71.0031091,47 C71.3070748,47 71.6190088,46.9299269 71.9091472,46.782047 C72.0270306,46.7220514 83.7984947,40.7424058 89.6040754,38.9085541 C90.6561202,38.5745939 91.2399124,37.4506127 90.9059486,36.3988138 C90.5738596,35.3467805 89.4580688,34.7608854 88.3961809,35.0929707 C82.2805411,37.0268933 70.5892283,42.9664637 70.0933213,43.2183986 C69.1092411,43.7182843 68.7173902,44.9224159 69.2172813,45.9081259 Z" id="Shape"></path>
            <path d="M69.2172813,69.9081259 C69.5711658,70.6001852 70.2751851,71 71.0031091,71 C71.3070748,71 71.6190088,70.9299269 71.9091472,70.782047 C72.0270306,70.7220514 83.7984947,64.7424058 89.6040754,62.9085541 C90.6561202,62.5745939 91.2399124,61.4506127 90.9059486,60.3988138 C90.5738596,59.3467805 89.4580688,58.7608854 88.3961809,59.0929707 C82.2805411,61.0268933 70.5892283,66.9664637 70.0933213,67.2183986 C69.1092411,67.7182843 68.7173902,68.9224159 69.2172813,69.9081259 Z" id="Shape"></path>
            <path d="M49.4032611,38.1083566 C36.6424883,35.2057186 22.1414671,38.9036771 21.53192,39.0618961 C20.4305215,39.3482866 19.775446,40.4459603 20.070896,41.5156992 C20.3188802,42.4110215 21.1536473,43 22.0651829,43 C22.2429372,43 22.4226289,42.9779338 22.6025628,42.9319236 C22.7410852,42.8938947 36.702547,39.3342018 48.4612117,42.0084316 C49.5667272,42.2589059 50.6848357,41.591757 50.9451706,40.5140367 C51.2052634,39.4384292 50.515073,38.3607089 49.4032611,38.1083566 Z" id="Shape"></path>
            <path d="M49.4032611,50.1076064 C36.6424883,47.2066362 22.1414671,50.9030488 21.53192,51.0612921 C20.4305215,51.3477265 19.775446,52.4458033 20.070896,53.5154715 C20.3188802,54.4109312 21.1536473,55 22.0651829,55 C22.2429372,55 22.4226289,54.9779305 22.6025628,54.9319131 C22.7410852,54.8938784 36.702547,51.3336396 48.4612117,54.0082796 C49.5667272,54.2587923 50.6848357,53.591541 50.9451706,52.5136554 C51.2052634,51.4378829 50.515073,50.3599973 49.4032611,50.1076064 Z" id="Shape"></path>
            <path d="M69.2172813,81.908124 C69.5711658,82.6001845 70.2751851,83 71.0031091,83 C71.3070748,83 71.6190088,82.9299268 71.9091472,82.7820466 C72.0270306,82.7220509 83.7984947,76.7423951 89.6040754,74.9085403 C90.6561202,74.5745795 91.2399124,73.4505964 90.9059486,72.3987956 C90.5738596,71.3469949 89.4580688,70.7608645 88.3961809,71.0929504 C82.2805411,73.0268763 70.5892283,78.9664568 70.0933213,79.2183921 C69.1092411,79.7182787 68.7173902,80.9224124 69.2172813,81.908124 Z" id="Shape"></path>
            <path d="M49.4032611,62.1075084 C36.6424883,59.2077326 22.1414671,62.9005112 21.53192,63.0608015 C20.4305215,63.347118 19.775446,64.4447427 20.070896,65.5139705 C20.3188802,66.4090616 21.1536473,67 22.0651829,67 C22.2429372,67 22.4226289,66.9760621 22.6025628,66.929829 C22.7410852,66.8918099 36.702547,63.3330368 48.4612117,66.0065757 C49.5667272,66.2569853 50.6848357,65.5900087 50.9451706,64.5125669 C51.2052634,63.4372373 50.515073,62.3597955 49.4032611,62.1075084 Z" id="Shape"></path>
            <path d="M49.4032611,86.1079665 C36.6424883,83.2063502 22.1414671,86.903007 21.53192,87.0611703 C20.4305215,87.34746 19.775446,88.444982 20.070896,89.5141096 C20.3188802,90.4091169 21.1536473,91 22.0651829,91 C22.2429372,91 22.4226289,90.9760643 22.6025628,90.9298356 C22.7410852,90.89182 36.702547,87.3333802 48.4612117,90.0066687 C49.5667272,90.2549428 50.6848357,89.5901407 50.9451706,88.5127998 C51.2052634,87.4375708 50.515073,86.3602299 49.4032611,86.1079665 Z" id="Shape"></path>
            <path d="M49.4032611,74.1082584 C36.6424883,71.2068153 22.1414671,74.9011397 21.53192,75.0614054 C20.4305215,75.347678 19.775446,76.4451345 20.070896,77.5141983 C20.3188802,78.4091521 21.1536473,79 22.0651829,79 C22.2429372,79 22.4226289,78.9760657 22.6025628,78.9298398 C22.7410852,78.8918265 36.702547,75.333599 48.4612117,78.006728 C49.5667272,78.2570992 50.6848357,77.5902248 50.9451706,76.5129482 C51.2052634,75.4377834 50.515073,74.3605068 49.4032611,74.1082584 Z" id="Shape"></path>
        </g>
    </g>
</svg>