<?xml version="1.0" encoding="UTF-8"?>
<svg width="122px" height="122px" viewBox="0 0 122 122" version="1.1" xmlns="http://www.w3.org/2000/svg" xmlns:xlink="http://www.w3.org/1999/xlink">
    <!-- Generator: Sketch 48.1 (47250) - http://www.bohemiancoding.com/sketch -->
    <title>Group</title>
    <desc>Created with Sketch.</desc>
    <defs></defs>
    <g id="Homepage" stroke="none" stroke-width="1" fill="none" fill-rule="evenodd" transform="translate(-379.000000, -1505.000000)">
        <g id="Group" transform="translate(379.000000, 1505.000000)" fill="#FFFFFF" fill-rule="nonzero">
            <path d="M99.6333333,77.2666667 C98.9460667,77.2666667 98.271,77.3093667 97.6,77.3703667 L97.6,2.03333333 C97.6,0.9089 96.6911,0 95.5666667,0 L18.3,0 C18.2573,0 18.2227333,0.0203333333 18.1820667,0.0244 C17.9929667,0.0366 17.812,0.0711666667 17.6330667,0.1342 C17.5700333,0.156566667 17.507,0.172833333 17.446,0.2013 C17.2386,0.2989 17.0434,0.4209 16.8746333,0.587633333 C16.8705667,0.5917 16.8644667,0.595766667 16.8604,0.599833333 L0.599833333,16.8604 C0.595766667,16.8644667 0.5917,16.8705667 0.587633333,16.8746333 C0.4209,17.0434 0.2989,17.2386 0.203333333,17.446 C0.174866667,17.507 0.1586,17.5720667 0.1342,17.6371333 C0.0732,17.812 0.0366,17.9909333 0.0244,18.178 C0.0223666667,18.2207 0,18.2573 0,18.3 L0,101.666667 C0,102.7911 0.9089,103.7 2.03333333,103.7 L77.6550333,103.7 C79.5745,114.0944 88.6899333,122 99.6333333,122 C111.9655,122 122,111.9655 122,99.6333333 C122,87.3011667 111.9655,77.2666667 99.6333333,77.2666667 Z M16.2666667,6.9418 L16.2666667,16.2666667 L6.9418,16.2666667 L16.2666667,6.9418 Z M4.06666667,99.6333333 L4.06666667,20.3333333 L18.3,20.3333333 C19.4244333,20.3333333 20.3333333,19.4244333 20.3333333,18.3 L20.3333333,4.06666667 L93.5333333,4.06666667 L93.5333333,78.1105 C93.4215,78.141 93.3178,78.1857333 93.2059667,78.2182667 C92.9965333,78.2813 92.7911667,78.3545 92.5837667,78.4236333 C92.1303333,78.5741 91.6809667,78.7367667 91.2417667,78.9157 C91.0404667,78.9970333 90.8412,79.0824333 90.6419333,79.1698667 C90.1946,79.3671 89.7574333,79.5806 89.3263667,79.8042667 C89.1535333,79.8937333 88.9807,79.9811667 88.8099,80.0747 C88.3259667,80.3451333 87.8542333,80.6338667 87.3926667,80.9368333 C87.291,81.0039333 87.1832333,81.0649333 87.0815667,81.1320333 C86.5285,81.5102333 85.9917,81.9108 85.4752333,82.3337333 C85.3349333,82.4476 85.2068333,82.5736667 85.0706,82.6916 C84.7147667,82.9986333 84.3650333,83.3097333 84.0295333,83.6391333 C83.8180667,83.8445 83.6188,84.0600333 83.4154667,84.2735333 C83.1735,84.5277 82.9356,84.7859333 82.7078667,85.0523 C82.4882667,85.3064667 82.2747667,85.5667333 82.0673667,85.8310667 C81.8803,86.0689667 81.7013667,86.3129667 81.5224333,86.559 C81.3089333,86.8538333 81.0954333,87.1507 80.8961667,87.4557 C80.7538333,87.6753 80.6237,87.9030333 80.4874667,88.1267 C79.7900333,89.2816333 79.1963,90.5036667 78.7144,91.7826333 C78.6086667,92.0612 78.5009,92.3397667 78.4053333,92.6224 C78.2975667,92.9477333 78.2040333,93.2791667 78.1105,93.6106 C78.0169667,93.9461 77.9275,94.2816 77.8502333,94.6232 C77.7811,94.9282 77.714,95.2311667 77.6570667,95.5402333 C77.5798,95.953 77.5188,96.3718667 77.4659333,96.7907333 C77.4334,97.0428667 77.3947667,97.2929667 77.3703667,97.5491667 C77.3073333,98.2384667 77.2666667,98.9318333 77.2666667,99.6333333 L4.06666667,99.6333333 Z M99.6333333,117.933333 C90.1600333,117.933333 82.3479667,110.700767 81.4268667,101.465367 C81.4268667,101.463333 81.4268667,101.463333 81.4268667,101.4613 C81.3658667,100.861467 81.3333333,100.251467 81.3333333,99.6333333 C81.3333333,99.0477333 81.3679,98.4682333 81.4207667,97.8968667 C81.4431333,97.6711667 81.4797333,97.4475 81.5102333,97.2238333 C81.5549667,96.8883333 81.6017333,96.5528333 81.6627333,96.2234333 C81.7156,95.9469 81.7806667,95.6724 81.8457333,95.3999333 C81.9087667,95.1356 81.9738333,94.8733 82.0490667,94.6150667 C82.1344667,94.3161667 82.228,94.0193 82.3296667,93.7265 C82.4049,93.5069 82.4862333,93.2873 82.5696,93.0717667 C82.6895667,92.7647333 82.8115667,92.4577 82.9457667,92.1567667 C83.0311667,91.9697 83.1226667,91.7867 83.2121333,91.6037 C83.3646333,91.2926 83.5191667,90.9815 83.6879333,90.6785333 C83.7733333,90.5260333 83.8709333,90.3796333 83.9604,90.2291667 C84.5541333,89.243 85.2393667,88.3178333 86.0039,87.4618 C86.193,87.2503333 86.3780333,87.0348 86.5773,86.8314667 C86.7481,86.6586333 86.9290667,86.4959667 87.1059667,86.3292333 C87.3398,86.1096333 87.5716,85.8920667 87.8156,85.6846667 C87.9864,85.5382667 88.1653333,85.4020333 88.3422333,85.2617333 C88.6106333,85.0502667 88.8831,84.8428667 89.1637,84.6476667 C89.3365333,84.5277 89.5114,84.4097667 89.6883,84.2959 C89.9892333,84.1007 90.2983,83.9136333 90.6114333,83.7347 C90.7863,83.6350667 90.9591333,83.5374667 91.1380667,83.4439333 C91.4695,83.2690667 91.8090667,83.1084333 92.1527,82.9539 C92.3275667,82.8766333 92.4983667,82.7932667 92.6752667,82.7200667 C93.0412667,82.5696 93.4154,82.4374333 93.7936,82.3093333 C93.9603333,82.2524 94.123,82.1893667 94.2917667,82.1365 C94.7391,82.0002667 95.1966,81.8864 95.6581667,81.7847333 C95.7639,81.7623667 95.8635333,81.7278 95.9692667,81.7074667 C95.9692667,81.7074667 95.9692667,81.7074667 95.9713,81.7074667 C97.1567333,81.4614333 98.3808,81.3333333 99.6333333,81.3333333 C109.724767,81.3333333 117.933333,89.5419 117.933333,99.6333333 C117.933333,109.724767 109.724767,117.933333 99.6333333,117.933333 Z" id="Shape"></path>
            <path d="M32.5789474,68 L42.8421053,68 L88,68 L88,64 L79.7894737,64 L79.7894737,53.888 C84.7896842,53.318 88,50.272 88,40 C88,30.934 84.9887895,14 77.7368421,14 C73.8306842,14 71.1643158,18.924 69.5263158,24.876 C67.8883158,18.924 65.2219474,14 61.3157895,14 C54.0638421,14 51.0526316,30.934 51.0526316,40 C51.0526316,50.272 54.2629474,53.32 59.2631579,53.888 L59.2631579,64 L44.8947368,64 L44.8947368,42 C44.8947368,41.974 44.8803684,41.952 44.8783158,41.924 C44.8680526,41.69 44.8290526,41.458 44.7366842,41.24 C44.7223158,41.206 44.6976842,41.18 44.6812632,41.148 C44.6176316,41.018 44.5519474,40.888 44.4595789,40.772 L30.0911579,22.772 C29.3132105,21.8 27.6300526,21.8 26.8521053,22.772 L12.4836842,40.772 C12.3913158,40.888 12.3256316,41.02 12.262,41.15 C12.2455789,41.182 12.223,41.208 12.2086316,41.242 C12.1162632,41.46 12.0772632,41.692 12.067,41.926 C12.067,41.952 12.0526316,41.974 12.0526316,42 L12.0526316,64 L10,64 L10,68 L14.1052632,68 L24.3684211,68 L32.5789474,68 Z M26.4210526,64 L26.4210526,56 L30.5263158,56 L30.5263158,64 L26.4210526,64 Z M77.7368421,18 C79.8182105,18 83.8947368,27.96 83.8947368,40 C83.8947368,50 81.0395263,50 77.7368421,50 C74.4341579,50 71.5789474,50 71.5789474,40 C71.5789474,27.96 75.6554737,18 77.7368421,18 Z M55.1578947,40 C55.1578947,27.96 59.2344211,18 61.3157895,18 C63.3971579,18 67.4736842,27.96 67.4736842,40 C67.4736842,50 64.6184737,50 61.3157895,50 C58.0131053,50 55.1578947,50 55.1578947,40 Z M63.3684211,53.888 C65.9773158,53.592 68.0935789,52.608 69.5263158,50.288 C70.9590526,52.61 73.0753158,53.592 75.6842105,53.888 L75.6842105,64 L63.3684211,64 L63.3684211,53.888 Z M28.4736842,27.258 L38.6444737,40 L18.3028947,40 L28.4736842,27.258 Z M16.1578947,44 L40.7894737,44 L40.7894737,64 L34.6315789,64 L34.6315789,54 C34.6315789,52.894 33.7140526,52 32.5789474,52 L24.3684211,52 C23.2333158,52 22.3157895,52.894 22.3157895,54 L22.3157895,64 L16.1578947,64 L16.1578947,44 Z" id="Shape"></path>
            <rect id="Rectangle-path" x="17" y="73" width="12" height="4"></rect>
            <rect id="Rectangle-path" x="32" y="73" width="12" height="4"></rect>
            <rect id="Rectangle-path" x="49" y="73" width="20" height="4"></rect>
            <rect id="Rectangle-path" x="57" y="90" width="12" height="4"></rect>
            <rect id="Rectangle-path" x="41" y="90" width="12" height="4"></rect>
            <rect id="Rectangle-path" x="17" y="90" width="20" height="4"></rect>
            <rect id="Rectangle-path" x="17" y="81" width="24" height="4"></rect>
            <rect id="Rectangle-path" x="44" y="81" width="24" height="4"></rect>
            <path d="M95.4698616,103.009533 L90.8493079,98.2692087 L88,101.192374 L94.0452076,107.39428 C94.4381461,107.797404 94.9540039,108 95.4698616,108 C95.9857193,108 96.501577,107.797404 96.8945155,107.39428 L111,92.9231653 L108.150692,90 L95.4698616,103.009533 Z" id="Shape"></path>
        </g>
    </g>
</svg>