<?xml version="1.0" encoding="UTF-8"?>
<svg width="26px" height="25px" viewBox="0 0 26 25" version="1.1" xmlns="http://www.w3.org/2000/svg" xmlns:xlink="http://www.w3.org/1999/xlink">
    <!-- Generator: Sketch 48.1 (47250) - http://www.bohemiancoding.com/sketch -->
    <title>004-linked-in-logo</title>
    <desc>Created with Sketch.</desc>
    <defs></defs>
    <g id="Homepage" stroke="none" stroke-width="1" fill="none" fill-rule="evenodd" transform="translate(-1398.000000, -373.000000)">
        <g id="004-linked-in-logo" transform="translate(1398.000000, 373.000000)" fill="#FFFFFF" fill-rule="nonzero">
            <path d="M26,15.3294325 L26,25 L20.4251419,25 L20.4251419,15.9726159 C20.4251419,13.7029527 19.6213232,12.1604068 17.6041366,12.1604068 C16.0614767,12.1604068 15.1514645,13.204766 14.7452323,14.2098392 C14.5989648,14.5717838 14.5545408,15.0786703 14.5545408,15.5790456 L14.5545408,24.998851 L8.98517457,24.998851 C8.98517457,24.998851 9.05993956,9.71521557 8.98517457,8.13234422 L14.5556827,8.13234422 L14.5556827,10.5229839 C14.5481246,10.5426268 14.5318666,10.5589321 14.5242542,10.5807637 L14.5556827,10.5807637 L14.5556827,10.5229839 C15.2999069,9.37400828 16.6183263,7.73658534 19.5790742,7.73658534 C23.2537597,7.73664006 26,10.1469227 26,15.3294325 Z M3.15355996,0 C1.24800435,0 0,1.25802406 0,2.91722386 C0,4.5317209 1.21119279,5.83225908 3.08205745,5.83225908 L3.11566091,5.83225908 C5.06346554,5.83225908 6.27030837,4.5317209 6.27030837,2.91722386 C6.23240931,1.25802406 5.06351991,0 3.15355996,0 Z M0.332609037,24.9999453 L5.90420462,24.9999453 L5.90420462,8.13130462 L0.332609037,8.13130462 L0.332609037,24.9999453 Z" id="LinkedIn_3_"></path>
        </g>
    </g>
</svg>