<?xml version="1.0" encoding="UTF-8"?>
<svg width="121px" height="120px" viewBox="0 0 121 120" version="1.1" xmlns="http://www.w3.org/2000/svg" xmlns:xlink="http://www.w3.org/1999/xlink">
    <!-- Generator: Sketch 48.1 (47250) - http://www.bohemiancoding.com/sketch -->
    <title>Shape</title>
    <desc>Created with Sketch.</desc>
    <defs></defs>
    <g id="Homepage" stroke="none" stroke-width="1" fill="none" fill-rule="evenodd" transform="translate(-380.000000, -940.000000)">
        <path d="M440.044254,1030.2 C441.044254,1030.2 442.044254,1029.6 442.444254,1028.8 C443.444254,1027.2 469.244254,988.6 469.244254,969.2 C469.244254,953.2 456.244254,940 440.044254,940 C423.844254,940 410.844254,953.2 410.844254,969.2 C410.844254,988.6 436.444254,1027.2 437.644254,1028.8 C438.044254,1029.8 439.044254,1030.2 440.044254,1030.2 Z M440.044254,946 C452.844254,946 463.244254,956.4 463.244254,969.2 C463.244254,983.4 446.444254,1011.4 440.044254,1021.6 C433.644254,1011.4 416.844254,983.4 416.844254,969.2 C416.844254,956.4 427.244254,946 440.044254,946 Z M454.644254,969 C454.644254,960.8 448.044254,954.4 440.044254,954.4 C432.044254,954.4 425.444254,961 425.444254,969 C425.444254,977.2 432.044254,983.6 440.044254,983.6 C448.044254,983.6 454.644254,977 454.644254,969 Z M431.444254,969 C431.444254,964.2 435.444254,960.4 440.044254,960.4 C444.644254,960.4 448.644254,964.4 448.644254,969 C448.644254,973.8 444.644254,977.6 440.044254,977.6 C435.444254,977.6 431.444254,973.8 431.444254,969 Z M499.244254,1059 C498.644254,1059.6 497.844254,1060 497.044254,1060 L455.844254,1060 C455.244254,1060 454.844254,1059.8 454.444254,1059.6 L424.044254,1042.4 L384.244254,1059.6 C383.844254,1060 383.444254,1060 383.044254,1060 C382.444254,1060 381.844254,1059.8 381.244254,1059.4 C380.444254,1058.8 379.844254,1057.6 380.044254,1056.6 L389.844254,989.4 C390.044254,988.4 390.444254,987.6 391.244254,987.2 L407.844254,977.8 C408.244254,979.8 408.844254,981.8 409.444254,983.8 L395.444254,991.8 L386.644254,1052.4 L423.044254,1036.6 C423.844254,1036.2 424.844254,1036.2 425.644254,1036.8 L456.644254,1054 L493.644254,1054 L484.844254,992.8 L467.244254,992.8 C468.044254,990.8 468.844254,988.8 469.644254,986.8 L487.444254,986.8 C488.844254,986.8 490.244254,987.8 490.444254,989.4 L500.044254,1056.6 C500.044254,1057.4 499.844254,1058.4 499.244254,1059 Z" id="Shape" fill="#FFFFFF" fill-rule="nonzero"></path>
    </g>
</svg>