<?xml version="1.0" encoding="UTF-8"?>
<svg width="30px" height="30px" viewBox="0 0 30 30" version="1.1" xmlns="http://www.w3.org/2000/svg" xmlns:xlink="http://www.w3.org/1999/xlink">
    <!-- Generator: Sketch 48.1 (47250) - http://www.bohemiancoding.com/sketch -->
    <title>002-add</title>
    <desc>Created with Sketch.</desc>
    <defs></defs>
    <g id="Data-Limitations" stroke="none" stroke-width="1" fill="none" fill-rule="evenodd" transform="translate(-1135.000000, -1413.000000)">
        <g id="002-add" transform="translate(1135.000000, 1413.000000)" fill="#FFFFFF" fill-rule="nonzero">
            <path d="M28.3719148,12.9069569 L17.0929736,12.9069569 L17.0929736,1.62790887 C17.0929736,1.11410204 16.3952751,0 14.999939,0 C13.6046029,0 12.9069044,1.11416303 12.9069044,1.62790887 L12.9069044,12.9070179 L1.62790225,12.9070179 C1.1141585,12.9069569 0,13.6046583 0,14.999939 C0,16.3952198 1.1141585,17.0929821 1.62790225,17.0929821 L12.9069654,17.0929821 L12.9069654,28.3720911 C12.9069654,28.885776 13.6046029,30 15,30 C16.3953971,30 17.0930346,28.885776 17.0930346,28.3720911 L17.0930346,17.0929821 L28.3720978,17.0929821 C28.8857805,17.0929821 30,16.3953417 30,14.999939 C30,13.6045363 28.8856585,12.9069569 28.3719148,12.9069569 Z" id="Shape"></path>
        </g>
    </g>
</svg>