<?xml version="1.0" encoding="UTF-8"?>
<svg width="17px" height="27px" viewBox="0 0 17 27" version="1.1" xmlns="http://www.w3.org/2000/svg" xmlns:xlink="http://www.w3.org/1999/xlink">
    <!-- Generator: Sketch 52.5 (67469) - http://www.bohemiancoding.com/sketch -->
    <title>Share-Icon</title>
    <desc>Created with Sketch.</desc>
    <g id="Page-1" stroke="none" stroke-width="1" fill="none" fill-rule="evenodd">
        <g id="Artboard" transform="translate(-287.000000, -135.000000)" fill="#FFFFFF">
            <g id="Share-Icon" transform="translate(287.000000, 135.000000)">
                <path d="M5.94468246,4.56395537 L8.44659401,1.96368257 L8.44659401,13.4248372 C8.44659401,13.7425571 8.69437232,14 9,14 C9.30562768,14 9.55340599,13.7425571 9.55340599,13.4248372 L9.55340599,1.96368257 L12.0553175,4.56395537 C12.1633424,4.67622715 12.3050143,4.73236305 12.4466125,4.73236305 C12.5882106,4.73236305 12.7298825,4.67622715 12.8379074,4.56395537 C13.0540309,4.33925842 13.0540309,3.97514201 12.8379074,3.75052175 L9.39129492,0.168407676 C9.17517144,-0.0561358919 8.82475477,-0.0561358919 8.60870508,0.168407676 L5.16209261,3.75052175 C4.94596913,3.9752187 4.94596913,4.33933511 5.16209261,4.56395537 C5.3781423,4.78849893 5.72855897,4.78849893 5.94468246,4.56395537 Z" id="Shape"></path>
                <path d="M16.387999,7 L11.357759,7 C11.0197712,7 10.745758,7.27318557 10.745758,7.61033417 C10.745758,7.94748277 11.0197712,8.22066836 11.357759,8.22066836 L15.775998,8.22066836 L15.775998,25.7793317 L1.22400196,25.7793317 L1.22400196,8.22066836 L5.64224102,8.22066836 C5.98022876,8.22066836 6.254242,7.94748277 6.254242,7.61033417 C6.254242,7.27318557 5.98022876,7 5.64224102,7 L0.612000979,7 C0.274013238,7 0,7.27318557 0,7.61033417 L0,26.3896659 C0,26.7268144 0.274013238,27 0.612000979,27 L16.387999,27 C16.7259868,27 17,26.7268144 17,26.3896659 L17,7.61033417 C17,7.27326696 16.7259868,7 16.387999,7 Z" id="Shape"></path>
            </g>
        </g>
    </g>
</svg>